<?xml version="1.0" standalone="no"?>
<!DOCTYPE svg PUBLIC "-//W3C//DTD SVG 1.1//EN" "http://www.w3.org/Graphics/SVG/1.1/DTD/svg11.dtd">
<svg xmlns="http://www.w3.org/2000/svg"><metadata>This SVG WebFont was generated by YouWorkForThem.
</metadata><defs><font horiz-adv-x="1433" id="ywftsvg"><font-face ascent="1638" bbox="-1512.45 -981.163 1638 2048" cap-height="1434" descent="-410" font-family="" font-stretch="normal" font-weight="700" panose-1="0 0 8 0 0 0 0 0 0 0" underline-position="0" underline-thickness="0" unicode-range="U+0020-25CA" units-per-em="2048" x-height="1024"/><missing-glyph d="M1196 1618q78 0 128 -51t50 -127v-1413q0 -76 -50 -127.5t-128 -51.5h-985q-76 0 -127 51.5t-51 127.5v1413q0 76 49 126t127 50zM1233 1403q0 31 -21.5 52.5t-52.5 21.5l-913 -2q-31 0 -52.5 -21.5t-21.5 -52.5v-1338q0 -31 21.5 -52t52.5 -21h913q31 0 52.5 21.5 t21.5 51.5v1340zM616 522q-20 227 203 314q113 43 107 143q-6 59 -67.5 86t-149.5 18q-154 -10 -199 -90q-27 -47 -70 -49t-68.5 32t-11.5 73q31 84 127.5 134t206.5 60q160 14 268.5 -54.5t120.5 -195.5q8 -90 -45 -160.5t-129 -97.5q-170 -68 -151 -200q6 -45 -28 -63.5 t-72 -2.5t-42 53zM684 205q-39 0 -64.5 21.5t-25.5 58.5t25.5 58.5t64.5 21.5q37 0 63.5 -21.5t26.5 -58.5q0 -35 -26.5 -57.5t-63.5 -22.5z"/><glyph d="M1196 1618q78 0 128 -51t50 -127v-1413q0 -76 -50 -127.5t-128 -51.5h-985q-76 0 -127 51.5t-51 127.5v1413q0 76 49 126t127 50zM1233 1403q0 31 -21.5 52.5t-52.5 21.5l-913 -2q-31 0 -52.5 -21.5t-21.5 -52.5v-1338q0 -31 21.5 -52t52.5 -21h913q31 0 52.5 21.5 t21.5 51.5v1340zM616 522q-20 227 203 314q113 43 107 143q-6 59 -67.5 86t-149.5 18q-154 -10 -199 -90q-27 -47 -70 -49t-68.5 32t-11.5 73q31 84 127.5 134t206.5 60q160 14 268.5 -54.5t120.5 -195.5q8 -90 -45 -160.5t-129 -97.5q-170 -68 -151 -200q6 -45 -28 -63.5 t-72 -2.5t-42 53zM684 205q-39 0 -64.5 21.5t-25.5 58.5t25.5 58.5t64.5 21.5q37 0 63.5 -21.5t26.5 -58.5q0 -35 -26.5 -57.5t-63.5 -22.5z" glyph-name=".notdef"/><glyph glyph-name="glyph1" horiz-adv-x="0"/><glyph glyph-name="glyph2" horiz-adv-x="681"/><glyph glyph-name="space" unicode=" "/><glyph d="M662 508l-80 809q-6 72 68.5 102.5t149 1t68.5 -103.5l-77 -809q-2 -35 -33 -49.5t-61.5 0t-34.5 49.5zM727 0q-61 0 -101 36t-40 91q0 57 40 91t101 34q57 0 98 -34t41 -91q0 -55 -41 -91t-98 -36z" glyph-name="exclam" unicode="!"/><glyph d="M453 1118l-19 297q-2 51 51.5 72.5t106.5 0t51 -72.5l-18 -295q-2 -47 -44 -65.5t-84 0t-44 63.5zM809 1118l-18 297q-2 51 51 72.5t106 0t51 -72.5l-18 -295q-2 -47 -44 -65.5t-84 0t-44 63.5z" glyph-name="quotedbl" unicode="&quot;"/><glyph d="M930 88q-14 -68 -73.5 -84t-109 24t-34.5 107l43 213h-207l-55 -258q-14 -68 -74 -84t-109 23t-35 108l43 211h-88q-51 0 -80.5 35t-29.5 77t29.5 76.5t80.5 34.5h138l61 289h-121q-51 0 -80.5 35t-29.5 77t29.5 76.5t80.5 34.5h168l58 263q8 41 36.5 64.5t62.5 22.5 t64.5 -14.5t47 -46.5t8.5 -74l-47 -215h206l58 260q8 41 36.5 65t62.5 23t64.5 -14.5t47 -46.5t8.5 -74l-47 -213h90q51 0 80.5 -34.5t29.5 -76.5t-29.5 -77t-80.5 -35h-139l-62 -289h123q70 0 98.5 -56t0 -111.5t-98.5 -55.5h-170zM596 571h209l61 289h-209z" glyph-name="numbersign" unicode="#"/><glyph d="M1245 414q0 -166 -116.5 -273.5t-301.5 -138.5v-152q0 -70 -57 -98t-114.5 0.5t-57.5 97.5v144q-281 29 -399 233q-31 55 5 101.5t100.5 44.5t101.5 -64q45 -76 192 -90v406q-199 27 -298 112.5t-99 276.5q0 170 108.5 281.5t288.5 140.5v141q0 72 57.5 101.5t114.5 0 t57 -101.5v-141q131 -18 232.5 -74.5t144.5 -149.5q14 -31 8 -63.5t-30.5 -54t-54 -31.5t-64.5 4t-62 51q-45 66 -174 92v-385q211 -31 314.5 -119.5t103.5 -291.5zM424 1014q0 -84 39 -119t135 -47v360q-174 -38 -174 -194zM827 229q195 45 195 185q0 94 -40 133t-155 55 v-373z" glyph-name="dollar" unicode="$"/><glyph d="M207 147l862 1242q35 49 89 39.5t74.5 -53.5t-7.5 -95l-863 -1241q-20 -29 -49.5 -37t-55.5 2t-46.5 30.5t-21 51t17.5 61.5zM344 909q-119 0 -190.5 75t-71.5 187q0 115 73.5 189t188.5 74q117 0 188.5 -73t71.5 -190q0 -115 -72.5 -188.5t-187.5 -73.5zM344 1077 q92 0 92 94q0 51 -23.5 72t-68.5 21q-94 0 -94 -93q0 -94 94 -94zM1092 0q-119 0 -191 75t-72 187q0 115 74 188.5t189 73.5q117 0 188.5 -72.5t71.5 -189.5q0 -115 -72.5 -188.5t-187.5 -73.5zM1092 168q92 0 92 94q0 51 -23.5 71.5t-68.5 20.5q-94 0 -95 -92q1 -94 95 -94 z" glyph-name="percent" unicode="%"/><glyph d="M209 162q-78 109 -73 219.5t68.5 208.5t182.5 188q-84 104 -124 179t-40 161q0 143 100.5 234.5t254.5 91.5q160 0 258 -91t98 -239q0 -195 -242 -366q20 -23 287 -289q47 84 58.5 129t15.5 131q2 39 23.5 64.5t50 30.5t57 -2t49 -32.5t20.5 -60.5q0 -29 -4 -70 t-35.5 -147.5t-89.5 -190.5l142 -141q43 -43 23.5 -98.5t-69 -68.5t-98.5 26v2l-133 133q-207 -166 -424 -174t-356 172zM553 895q180 123 180 219q0 129 -155 129q-154 0 -154 -125q0 -78 129 -223zM846 307l-322 324q-86 -63 -130 -116.5t-54 -116t35 -122.5 q45 -70 130 -82t173 20t168 93z" glyph-name="ampersand" unicode="&amp;"/><glyph d="M614 1116l-18 297q-2 51 51 72.5t106.5 0t51.5 -72.5l-19 -295q-2 -47 -44 -65.5t-84 0t-44 63.5z" glyph-name="quotesingle" unicode="'"/><glyph d="M504 629q0 498 203 903q18 39 53 54.5t67.5 7t60 -30t35 -57.5t-11.5 -74q-4 -8 -24.5 -56.5t-36.5 -89.5t-40 -116.5t-39 -149.5t-26.5 -178.5t-11.5 -212.5q0 -195 50.5 -406t81 -285.5t50.5 -115.5q27 -53 5.5 -92t-58.5 -60.5t-82 -9.5t-69 59q-90 182 -148.5 437.5 t-58.5 472.5z" glyph-name="parenleft" unicode="("/><glyph d="M930 629q0 -217 -58.5 -472t-148.5 -438q-25 -47 -70 -59t-81.5 9.5t-58 60.5t4.5 92q20 41 51 115.5t81 285.5t50 406q0 109 -11 213t-26.5 178t-39 149.5t-40 116.5t-37 89t-24.5 57q-18 39 -11 74.5t34.5 57t60.5 30t68 -7t53 -54.5q203 -405 203 -903z" glyph-name="parenright" unicode=")"/><glyph d="M1120 1190q10 -41 -10 -79t-61 -50l-162 -45l96 -137q25 -35 16.5 -77t-43.5 -67q-27 -20 -59 -20q-51 0 -84 45l-94 133l-88 -135q-31 -45 -88 -45q-33 0 -58 16q-35 25 -44 67t16 78l94 140l-164 45q-41 10 -62.5 48t-11.5 79q12 41 50 62.5t79 11.5l170 -48v179 q0 43 31 73.5t74 30.5t73.5 -30.5t30.5 -73.5v-177l170 48q41 12 79 -9.5t50 -62.5z" glyph-name="asterisk" unicode="*"/><glyph d="M1032 784q49 0 77 -32.5t28 -71.5t-28 -72t-77 -33h-211v-210q0 -49 -32.5 -77t-71.5 -28t-72 27.5t-33 77.5v210h-211q-49 0 -76.5 33t-27.5 72t27.5 71.5t76.5 32.5h211v211q0 49 33 77t72 28t71.5 -28t32.5 -77v-211h211z" glyph-name="plus" unicode="+"/><glyph d="M684 145q4 -82 -8 -175t-41 -132q-74 -104 -191 -110q-29 -2 -44 20.5t-6 49t42 32.5q111 25 107 172q-8 -2 -23 -2q-70 0 -117 39t-47 106q0 66 48.5 107t115.5 41q70 0 117 -41t47 -107z" glyph-name="comma" unicode=","/><glyph d="M510 571q-68 0 -95.5 54.5t0 108.5t95.5 54h412q68 0 95 -54t-0.5 -108.5t-94.5 -54.5h-412z" glyph-name="hyphen" unicode="-"/><glyph d="M717 -10q-82 0 -136.5 47t-54.5 125t54.5 123t136.5 45q78 0 133 -45t55 -123q0 -76 -55 -124t-133 -48z" glyph-name="period" unicode="."/><glyph d="M225 -150q-23 -37 -60.5 -49t-70.5 -1.5t-61.5 34t-32.5 60t16 73.5l988 1534q47 55 109.5 54t99 -55t-0.5 -116z" glyph-name="slash" unicode="/"/><glyph d="M719 -10q-293 0 -434.5 199.5t-141.5 527.5q0 326 143.5 526.5t432.5 200.5q150 0 262.5 -56.5t179 -158t99 -230.5t32.5 -282q0 -328 -144 -527.5t-429 -199.5zM430 367l391 837q-51 10 -102 10q-106 0 -178 -37.5t-109 -109.5t-51 -155t-14 -195q0 -235 63 -350z M719 219q104 0 176 37t108.5 109.5t51 155.5t14.5 196q0 236 -63 350l-392 -838q52 -10 105 -10z" glyph-name="zero" unicode="0"/><glyph d="M1026 223q70 8 99.5 -48t0 -115.5t-99.5 -59.5h-598q-68 0 -97.5 59.5t-1 115.5t98.5 48l193 -20v936l-111 -95q-51 -43 -108.5 -10t-64.5 91.5t48 103.5l281 186q57 35 117.5 3t60.5 -95v-1120z" glyph-name="one" unicode="1"/><glyph d="M295 0q-45 2 -78 35t-33 78q0 240 128 382t397 263q78 37 114.5 55t83.5 51t66.5 68t19.5 80q0 102 -77.5 155.5t-198.5 53.5q-297 0 -297 -134q0 -53 -54.5 -74.5t-107.5 0t-53 74.5q0 152 133 254.5t367 102.5q209 0 360.5 -118t151.5 -314q0 -166 -102.5 -263.5 t-313.5 -193.5q-160 -76 -253 -153.5t-128 -198.5l717 22q70 0 99.5 -55t0.5 -111.5t-98 -56.5z" glyph-name="two" unicode="2"/><glyph d="M1247 428q0 -209 -170 -323.5t-424 -114.5q-256 0 -420 112q-35 23 -45 58t3.5 65.5t38 55t60.5 25.5t72 -21q102 -72 291 -72q160 0 265.5 54.5t105.5 160.5q0 100 -99.5 157.5t-271.5 57.5q-51 0 -80.5 35t-29.5 77t29.5 76.5t80.5 34.5q135 0 225.5 45t90.5 131 q0 88 -91.5 133.5t-224.5 45.5q-158 0 -250 -60q-55 -39 -111 -9t-62.5 87t46.5 104q143 100 377 100.5t386.5 -106t152.5 -295.5q0 -84 -48 -162.5t-126 -115.5q106 -39 167.5 -135.5t61.5 -200.5z" glyph-name="three" unicode="3"/><glyph d="M877 115v137l-570 2q-70 0 -101.5 63.5t9.5 116.5l684 952q47 68 127 42.5t80 -109.5v-838h24q70 0 98.5 -57t0 -114.5t-98.5 -57.5h-2h-22v-137q0 -72 -57.5 -100.5t-114.5 1t-57 99.5zM530 481h347v484z" glyph-name="four" unicode="4"/><glyph d="M653 -10q-264 0 -426 131q-33 27 -40 62.5t8.5 64t41 50t62.5 21.5t70 -26q102 -80 284 -80q174 0 272.5 69.5t98.5 192.5q0 127 -103.5 194.5t-267.5 67.5q-182 0 -284 -80q-59 -49 -126 -8t-53 117l107 577q8 39 40 65t71 26h618q70 0 98.5 -55.5t0 -112t-98.5 -56.5 h-526l-51 -274q94 25 204 25q256 0 425 -131.5t169 -354.5t-167 -354t-427 -131z" glyph-name="five" unicode="5"/><glyph d="M735 -10q-283 0 -432 200.5t-149 530.5q0 313 158.5 518t424.5 205q162 0 302.5 -76t207.5 -197q35 -61 -2 -110t-96 -46t-102 56q-92 150 -310 150q-139 0 -231 -95.5t-113 -238.5q152 88 342 88q231 0 385 -130t154 -337q0 -233 -148.5 -375.5t-390.5 -142.5zM735 213 q150 0 234 79t84 216q0 113 -92.5 178.5t-225.5 65.5q-203 0 -352 -150q29 -193 107.5 -291t244.5 -98z" glyph-name="six" unicode="6"/><glyph d="M541 55q-20 -35 -55 -48t-66 -3t-56.5 32.5t-30.5 57.5t15 72l598 1044h-647q-51 0 -81 35t-30 77t30 77t81 35h838q61 0 96 -56.5t2 -111.5z" glyph-name="seven" unicode="7"/><glyph d="M715 -10q-238 0 -388.5 123t-150.5 331q0 113 51.5 210.5t139.5 150.5q-102 106 -103 256q0 174 127 278.5t324 104.5q199 0 325.5 -105.5t126.5 -277.5q0 -150 -102 -256q86 -53 138 -151.5t52 -209.5q0 -209 -152 -331.5t-388 -122.5zM715 899q102 0 165.5 41t63.5 121 t-64.5 120t-164.5 40q-102 0 -165 -41t-63 -119q0 -80 64 -121t164 -41zM715 213q143 0 230 59.5t87 171.5q0 109 -84 170.5t-233 61.5q-147 0 -231.5 -61.5t-84.5 -170.5q0 -117 88.5 -174t227.5 -57z" glyph-name="eight" unicode="8"/><glyph d="M692 1444q283 0 432.5 -201t149.5 -530q0 -313 -159 -518t-425 -205q-162 0 -302 75.5t-208 196.5q-35 61 2 110.5t96.5 46.5t102.5 -57q92 -150 309 -149q139 0 231.5 95t112.5 239q-152 -88 -342 -88q-231 0 -384.5 130t-153.5 337q0 233 148 375.5t390 142.5z M692 1221q-150 0 -233.5 -79t-83.5 -216q0 -113 92 -178.5t225 -65.5q203 0 352 149q-29 193 -107.5 291.5t-244.5 98.5z" glyph-name="nine" unicode="9"/><glyph d="M717 731q-82 0 -136.5 47t-54.5 125t54.5 123t136.5 45q78 0 133 -45t55 -123q0 -76 -55 -124t-133 -48zM717 0q-82 0 -136.5 47t-54.5 125t54.5 123t136.5 45q78 0 133 -45t55 -123q0 -76 -55 -124t-133 -48z" glyph-name="colon" unicode=":"/><glyph d="M682 682q-78 0 -130 45t-52 119t51 117t131 43q76 0 128 -44t52 -116q0 -74 -53 -119t-127 -45zM676 293q70 0 117 -41t47 -107q4 -82 -8.5 -175t-40.5 -132q-74 -104 -191 -110q-29 -2 -44 20.5t-6 49t42 32.5q111 25 106 172q-8 -2 -22 -2q-70 0 -117 39t-47 106 q0 66 48 107t116 41z" glyph-name="semicolon" unicode=";"/><glyph d="M1075 430q57 -29 59.5 -87t-44 -94t-107.5 -5l-629 307q-55 29 -55 95.5t55 92.5l629 308q57 29 104.5 -6t46.5 -93.5t-59 -89.5l-440 -213z" glyph-name="less" unicode="&lt;"/><glyph d="M354 838h725q61 0 86 -49.5t-0.5 -98.5t-85.5 -49h-725q-59 0 -84.5 49t-1 98.5t85.5 49.5zM354 442h725q61 0 86 -49t-0.5 -98t-85.5 -49h-725q-59 0 -84.5 49t-1 98t85.5 49z" glyph-name="equal" unicode="="/><glyph d="M356 430l441 215l-441 213q-57 31 -58 89.5t46 93t105 6.5l628 -308q55 -27 55.5 -93t-55.5 -95l-628 -307q-61 -31 -107.5 5t-44.5 94t59 87z" glyph-name="greater" unicode=">"/><glyph d="M524 438q-29 317 285 439q160 61 147 202q-8 82 -95 121t-208 27q-84 -8 -164.5 -39t-113.5 -88q-37 -66 -97.5 -69t-97.5 43t-16 102q41 117 176 187.5t293 86.5q223 20 376.5 -76t170.5 -274q12 -125 -64 -225.5t-180 -139.5q-244 -94 -215 -280q10 -63 -38 -89 t-101.5 -3.5t-57.5 75.5zM618 -10q-55 0 -90.5 31.5t-35.5 82.5q0 53 35.5 83t90.5 30q53 0 89 -30.5t36 -82t-37 -83t-88 -31.5z" glyph-name="question" unicode="?"/><glyph d="M717 -252q-334 0 -519.5 248t-185.5 620q0 379 188.5 623t516.5 244q221 0 383 -116t241.5 -310.5t79.5 -440.5q0 -547 -274 -546q-166 0 -264 161q-78 -45 -166 -45q-158 0 -250 116t-92 294t94 293t248 115q106 0 205 -89q16 23 36 37q49 41 108.5 -24.5t18.5 -118.5 q-29 -29 -28 -125l2 -266q0 -47 22.5 -85t65.5 -42q51 76 51 325q0 123 -25.5 234t-80 205t-150.5 150.5t-225 56.5q-238 0 -359.5 -183.5t-121.5 -462.5q0 -283 121.5 -464t359.5 -181q92 0 164 27q63 25 109 -16t40 -103.5t-72 -89.5q-116 -41 -241 -41zM717 410 q57 0 88 49t31 137q0 80 -29 132t-90 52q-119 0 -119 -184q0 -186 119 -186z" glyph-name="at" unicode="@"/><glyph d="M344 66q-25 -68 -88 -71t-105 49t-16 118l471 1192q16 47 62.5 67.5t93.5 2t63 -69.5l469 -1192q27 -66 -15 -117t-104.5 -48t-87.5 69l-94 247h-557zM504 545h424l-213 545z" glyph-name="A" unicode="A"/><glyph d="M319 0q-47 0 -80.5 34t-33.5 81v1204q0 47 33.5 81t80.5 34h422q129 0 231.5 -70t148.5 -171t34 -223t-94 -216q115 -98 149.5 -232.5t-2.5 -248t-141 -193.5t-248 -80h-500zM434 831h307q84 0 134.5 58.5t52.5 128t-46 128t-141 58.5h-307v-373zM434 229h385 q84 0 133 58.5t51.5 128t-47 128t-137.5 58.5h-385v-373z" glyph-name="B" unicode="B"/><glyph d="M737 -10q-279 0 -436.5 205.5t-157.5 521.5q0 317 160 522t434 205q281 0 443 -215q25 -35 24.5 -71t-24 -61.5t-53 -39t-64.5 -5t-59 41.5q-98 127 -267 127q-184 0 -277 -142.5t-93 -361.5q0 -223 93 -363.5t277 -140.5q172 0 267 129q41 55 105.5 43t87 -64.5 t-14.5 -111.5q-78 -104 -194 -161.5t-251 -57.5z" glyph-name="C" unicode="C"/><glyph d="M674 1434q293 0 443.5 -192.5t150.5 -524.5t-153.5 -524.5t-440.5 -192.5h-420q-45 0 -78 33t-33 78v1212q0 45 33 78t78 33h420zM674 223q371 0 370 494q0 242 -88 367.5t-282 125.5h-307v-987h307z" glyph-name="D" unicode="D"/><glyph d="M336 0q-53 0 -92 38t-39 91v1176q0 53 39 91t92 38h778q47 0 81 -34t34 -81t-34 -81t-81 -34h-680v-373h481q47 0 81 -33.5t34 -80.5t-33.5 -81t-81.5 -34h-481v-373h680q47 0 81 -33.5t34 -80.5t-34 -81t-81 -34h-778z" glyph-name="E" unicode="E"/><glyph d="M319.5 0q-47.5 0 -81 34t-33.5 81v1190q0 53 39 91t92 38h778q47 0 81 -34t34 -81t-34 -81t-81 -34h-680v-373h481q47 0 81 -33.5t34 -80.5t-33.5 -81t-81.5 -34h-481v-487q0 -47 -33.5 -81t-81 -34z" glyph-name="F" unicode="F"/><glyph d="M786 -10q-301 0 -475 202.5t-174 524t176 524.5t475 203q301 0 482 -211q27 -31 27.5 -67t-20 -60.5t-48 -40.5t-62 -10t-61.5 37q-115 135 -318 135q-209 0 -321.5 -140.5t-112.5 -370t110.5 -369.5t321.5 -140q178 0 291 108v293h-358q-68 0 -95.5 54.5t0 108.5 t95.5 54h467q45 0 76.5 -32.5t31.5 -77.5v-443q0 -41 -26 -69q-179 -213 -482 -213z" glyph-name="G" unicode="G"/><glyph d="M205 115v1204q0 72 57 101.5t114.5 0t57.5 -101.5v-488h565v488q0 72 57.5 101.5t115 0t57.5 -101.5v-1204q0 -72 -57.5 -101.5t-115 0t-57.5 101.5v487h-565v-487q0 -72 -57.5 -101.5t-114.5 0t-57 101.5z" glyph-name="H" unicode="H"/><glyph d="M319 0q-47 0 -80.5 34t-33.5 81q0 49 33.5 82.5t80.5 31.5l283 -20v1016l-283 -21q-47 -2 -80.5 32t-33.5 83q0 47 33.5 81t80.5 34h795q47 0 81 -34t34 -81q0 -49 -34 -83t-81 -32l-283 21v-1016l283 20q47 2 81 -31.5t34 -82.5q0 -47 -34 -81t-81 -34h-795z" glyph-name="I" unicode="I"/><glyph d="M715 -10q-184 0 -337 76.5t-188 216.5q-18 66 26 104.5t105.5 25t84.5 -74.5q49 -133 309 -125q133 0 221 49t88 152l-2 909q0 51 35 81t76 30t75.5 -30t34.5 -81l2 -909q0 -197 -151.5 -310.5t-378.5 -113.5z" glyph-name="J" unicode="J"/><glyph d="M1038 35l-454 629l-152 -148v-401q0 -72 -57.5 -101.5t-114.5 0t-57 101.5v1204q0 72 57 101.5t114.5 0t57.5 -101.5v-512l619 602q51 49 108.5 22.5t67.5 -87t-35 -115.5l-440 -424l450 -610q55 -76 2 -152q-45 -61 -108 -49q-33 8 -58 41z" glyph-name="K" unicode="K"/><glyph d="M317 0q-47 0 -80.5 34t-33.5 81v1204q0 72 57 101.5t114.5 0t57.5 -101.5v-1090h682q72 0 101.5 -57t0 -114.5t-101.5 -57.5h-797z" glyph-name="L" unicode="L"/><glyph d="M205 115v1204q0 86 86 112.5t125 -51.5l301 -596l301 596q25 49 76 55.5t93 -27.5t42 -89v-1204q0 -72 -57.5 -101.5t-115 0t-57.5 101.5v749l-186 -356q-31 -57 -94.5 -57t-93.5 57l-191 356v-749q0 -72 -57.5 -101.5t-114.5 0t-57 101.5z" glyph-name="M" unicode="M"/><glyph d="M1026 43l-592 887v-815q0 -72 -57.5 -101.5t-114.5 0t-57 101.5v1204q0 80 78.5 108.5t124.5 -36.5l591 -887v815q0 72 57.5 101.5t115 0t57.5 -101.5v-1204q0 -80 -79 -109t-124 37z" glyph-name="N" unicode="N"/><glyph d="M717 0q-285 0 -451 206t-166 521q0 313 167 520t450 207q285 0 449.5 -208t164.5 -519q0 -315 -167.5 -521t-446.5 -206zM716.5 229q194.5 0 293 138.5t98.5 359.5q0 225 -99.5 361.5t-291.5 136.5q-195 0 -294 -139.5t-99 -358.5q0 -225 99 -361.5t293.5 -136.5z" glyph-name="O" unicode="O"/><glyph d="M184 111v1210q0 49 34 81t77 32h358q274 0 434 -117t160 -344.5t-161.5 -344t-432.5 -116.5h-245v-401q0 -51 -35 -81t-77 -30t-77 30t-35 81zM408 735h245q371 0 371 237.5t-371 237.5h-245v-475z" glyph-name="P" unicode="P"/><glyph d="M1171 215l68 -68q25 -25 35 -53t3 -53t-21.5 -47.5t-39 -35.5t-49 -18.5t-52.5 3t-50 30.5l-86 86q-115 -59 -262 -59q-285 0 -451 206t-166 521q0 313 167 520t450 207q285 0 449.5 -208t164.5 -519t-160 -512zM717 229q49 0 84 9l-80 79q-41 41 -38 92.5t39 81t82 38 t91 -36.5l119 -119q94 133 94 354q0 225 -99.5 361.5t-291.5 136.5q-195 0 -294 -139.5t-99 -358.5q0 -225 99 -361.5t294 -136.5z" glyph-name="Q" unicode="Q"/><glyph d="M1042 49l-313 465h-321v-401q0 -51 -35 -81t-77 -30t-77 29.5t-35 81.5v1208q0 49 34 81t77 32h358q272 0 432 -117t160 -344q0 -291 -280 -410l262 -389q23 -37 20.5 -72.5t-27 -60.5t-55 -37t-65.5 -1t-58 46zM408 735h245q371 0 371 238q0 131 -96.5 184t-274.5 53 h-245v-475z" glyph-name="R" unicode="R"/><glyph d="M686 -10q-352 0 -487 237q-31 55 5 101.5t100.5 44.5t101.5 -64q57 -96 280 -96q133 0 234.5 50t101.5 151q0 115 -60.5 150.5t-254.5 49.5q-258 18 -382 102.5t-124 297.5q0 197 143 313.5t369 116.5q158 0 299 -59.5t192 -172.5q14 -31 8 -63.5t-30.5 -54t-54 -31.5 t-64.5 4t-62 51q-72 102 -288 103q-127 0 -208 -49.5t-81 -157.5q0 -104 60.5 -134t238.5 -42q102 -10 177 -24.5t143.5 -44.5t110.5 -75t66.5 -115.5t24.5 -164.5q0 -199 -163 -311.5t-396 -112.5z" glyph-name="S" unicode="S"/><glyph d="M602 115v1110l-407 -21q-72 -4 -103 53.5t0 117t103 59.5h1042q72 0 101.5 -59.5t0 -117t-101.5 -53.5l-408 21v-1110q0 -53 -35.5 -84t-77.5 -31t-78 31t-36 84z" glyph-name="T" unicode="T"/><glyph d="M717 -10q-238 0 -380 145.5t-142 376.5v813q0 68 54 95.5t107.5 0t53.5 -95.5v-813q0 -145 79.5 -226t227 -81t227.5 83t80 224v813q0 68 53 95.5t107.5 0t54.5 -95.5v-813q0 -231 -144.5 -376.5t-377.5 -145.5z" glyph-name="U" unicode="U"/><glyph d="M610 72l-442 1206q-25 66 18 114t106.5 43t88.5 -73l334 -938l334 938q14 41 46.5 60.5t65.5 13.5t62.5 -25.5t40 -55.5t-1.5 -77l-441 -1206q-27 -74 -104.5 -74t-106.5 74z" glyph-name="V" unicode="V"/><glyph d="M508 76q-16 -51 -62.5 -69.5t-91.5 6t-57 83.5l-234 1211q-14 70 34 105.5t107.5 16t74.5 -87.5l170 -778l163 586q14 51 58.5 70.5t88.5 0t58 -70.5l168 -588l170 782q8 41 36 65t60.5 25t63.5 -10.5t47 -43t8 -72.5l-233 -1211q-18 -92 -102.5 -96t-108.5 76l-211 659z " glyph-name="W" unicode="W"/><glyph d="M406 43q-37 -57 -100.5 -46t-89.5 66.5t9 122.5l344 531l-344 530q-39 61 -8 123t87 68t102 -47l311 -488l309 488q37 59 100.5 46.5t88 -68.5t-8.5 -122l-344 -530l344 -531q41 -63 9.5 -123.5t-89 -65.5t-100.5 46l-309 487z" glyph-name="X" unicode="X"/><glyph d="M604 115l-2 563l-418 569q-25 37 -24.5 75t24 64.5t53 41t66.5 5t62 -41.5l352 -469l352 469q27 35 62.5 43t65.5 -6.5t53.5 -42t23.5 -64.5t-25 -74l-420 -569l2 -563q0 -53 -35.5 -84t-77.5 -31t-78 31t-36 84z" glyph-name="Y" unicode="Y"/><glyph d="M240 0q-72 0 -104 65.5t14 118.5l806 1020h-716q-72 0 -101.5 57.5t0 115t101.5 57.5h952q72 0 103.5 -64.5t-13.5 -120.5l-807 -1020h717q72 0 101.5 -57t0 -114.5t-101.5 -57.5h-952z" glyph-name="Z" unicode="Z"/><glyph d="M582 -252q-45 0 -79 34t-34 79v1685q0 47 34 80t79 33h266q70 0 98.5 -56.5t0 -112.5t-98.5 -56h-154v-1461h154q72 0 101.5 -56t0 -112.5t-101.5 -56.5h-266z" glyph-name="bracketleft" unicode="["/><glyph d="M1004 -150l-988 1534q-37 61 0 115.5t99.5 55.5t109.5 -54l987 -1534q20 -37 16.5 -73.5t-32.5 -60t-61.5 -34t-70 1.5t-60.5 49z" glyph-name="backslash" unicode="\"/><glyph d="M852 -252h-266q-72 0 -101.5 56.5t0 112.5t101.5 56h153v1461h-153q-70 0 -98.5 56t0 112.5t98.5 56.5h266q45 0 79 -33t34 -80v-1685q0 -45 -34 -79t-79 -34z" glyph-name="bracketright" unicode="]"/><glyph d="M457 1303q29 14 94 54t101 58.5t53 18.5h22q8 0 26.5 -7.5t45 -22.5t52.5 -29.5t61.5 -35t58.5 -32.5q68 -39 43 -113q-18 -57 -72 -68q-33 -6 -65 19l-160 125l-164 -129q-45 -35 -94 -6.5t-51 80t49 88.5z" glyph-name="asciicircum" unicode="^"/><glyph d="M199 -102h1036q61 0 86 -49.5t-1 -98.5t-85 -49h-1036q-59 0 -85 49t-1 98.5t86 49.5z" glyph-name="underscore" unicode="_"/><glyph d="M510 1593l-66 142q-41 90 19 137q51 39 106 4q31 -18 43 -57l50 -148q20 -61 -9.5 -97t-76 -30t-66.5 49z" glyph-name="grave" unicode="`"/><glyph d="M680 -8q-207 0 -342 90t-135 252q0 164 136 249t341 85q70 0 127 -21.5t80.5 -41t56.5 -52.5q0 270 -258 270q-100 0 -162 -45q-45 -33 -103.5 -12.5t-74.5 67t27 97.5q45 49 135 75.5t178 26.5q219 0 346 -122t127 -324v-277q0 -78 47 -137q25 -33 25 -67.5t-22.5 -58 t-52.5 -37t-64.5 -5.5t-59.5 39q-20 29 -31 45q-133 -96 -321 -96zM680 207q92 0 176 34.5t84 94.5q-4 61 -81 92t-179 31q-106 0 -184 -32t-78 -93q0 -63 79 -95t183 -32z" glyph-name="a" unicode="a"/><glyph d="M752 -6q-197 0 -316 112q-12 -29 -39 -65q-31 -39 -74.5 -42t-74.5 23.5t-43 64.5t20 83q45 57 45 137v1127q0 66 53.5 93t107.5 0.5t54 -93.5v-478q115 74 267 74q217 0 347 -143.5t130 -364.5q0 -238 -126 -383t-351 -145zM752 207q135 0 199.5 85t64.5 230 q0 135 -67.5 214t-196.5 79t-196 -80t-67 -213q0 -145 66 -230t197 -85z" glyph-name="b" unicode="b"/><glyph d="M776 -10q-254 0 -413.5 141t-159.5 381q0 236 159.5 378t413.5 142q258 0 414 -143q31 -27 36 -61.5t-11.5 -62.5t-42 -47.5t-61.5 -16t-67 29.5q-96 86 -268 86q-160 0 -259 -77.5t-99 -227.5q0 -147 95 -227t263 -80q172 0 271 88q47 45 105 23.5t71.5 -75 t-31.5 -106.5q-158 -145 -416 -145z" glyph-name="c" unicode="c"/><glyph d="M680 -6q-225 0 -351 145.5t-126 382.5q0 221 130 364.5t347 143.5q152 0 266 -74v476q0 68 53.5 94t107.5 -1.5t54 -92.5v-1125q0 -80 45 -137q39 -53 11.5 -107.5t-83 -61.5t-100.5 40q-27 37 -39 65q-118 -112 -315 -112zM680 207q131 0 196.5 85t65.5 230 q0 133 -66.5 213t-195.5 80t-196.5 -79t-67.5 -214q0 -145 64.5 -230t199.5 -85z" glyph-name="d" unicode="d"/><glyph d="M717 -10q-233 0 -372.5 146.5t-139.5 375.5q0 233 140 376.5t372 143.5q236 0 374 -132t138 -353q0 -45 -32 -77t-77 -32h-694q20 -115 96 -174t195 -59q225 0 299 117q33 39 87 37.5t91 -46.5t8 -98q-127 -225 -485 -225zM426 612h571q-55 205 -280 205 q-100 0 -177 -53.5t-114 -151.5z" glyph-name="e" unicode="e"/><glyph d="M315 0q-68 0 -97.5 58.5t-0.5 114.5t98 50l230 -20v557l-125 -21q-78 -12 -103 64q-23 72 23 125q31 35 80 35h125v182q0 123 104.5 210t253.5 87q162 0 264 -111q49 -47 29 -107.5t-75.5 -77t-110.5 29.5q-43 43 -107 43q-137 0 -137 -95v-161h250q70 0 98.5 -58.5 t-1.5 -115t-97 -50.5l-250 21v-557l350 20q70 4 98.5 -52t0 -113.5t-98.5 -57.5h-801z" glyph-name="f" unicode="f"/><glyph d="M664 -571q-188 0 -324.5 95t-136.5 247q0 51 34.5 80.5t76.5 29.5t77 -29.5t35 -80.5q0 -47 71.5 -83t166.5 -36q125 0 203.5 60.5t78.5 172.5v174q-109 -72 -264 -71q-215 0 -346 146.5t-131 373.5t128 372.5t349 145.5q195 0 313 -111q20 39 41 64q39 53 99.5 42 t83 -62.5t-10.5 -108.5q-33 -41 -41 -90l2 -875q0 -207 -145 -331.5t-360 -124.5zM682 203q125 0 193.5 81t68.5 224q0 158 -62.5 230.5t-199.5 72.5q-129 0 -195.5 -82t-66.5 -221q0 -137 66.5 -221t195.5 -84z" glyph-name="g" unicode="g"/><glyph d="M279 109l2 1325q0 63 52 90.5t105.5 1t53.5 -91.5l2 -529q82 133 262 133q219 0 349 -143t130 -367v-422q0 -68 -54.5 -94t-107.5 2.5t-53 91.5v422q0 135 -67.5 215t-194.5 80q-123 0 -190.5 -73.5t-73.5 -196.5l2 -444q0 -68 -54.5 -95.5t-108.5 0t-54 95.5z" glyph-name="h" unicode="h"/><glyph d="M748 1270q-70 0 -117 41t-47 106q0 68 46 107t118 39q70 0 116.5 -39t46.5 -107q0 -66 -47.5 -106.5t-115.5 -40.5zM313 0q-68 0 -95.5 56.5t0.5 110.5t95 50l353 -20v632l-353 -20q-66 -4 -93 50t-0.5 109.5t93.5 55.5h459q45 0 76 -30.5t31 -75.5l2 -721l239 20 q68 6 95.5 -48t0 -111.5t-95.5 -57.5h-807z" glyph-name="i" unicode="i"/><glyph d="M836 1270q-70 0 -117 41t-47 106q0 68 46 107t118 39q70 0 116.5 -39t46.5 -107q0 -66 -47.5 -106.5t-115.5 -40.5zM846 823l-363 -20q-70 -4 -98.5 51t0.5 111.5t98 56.5h473q47 0 79 -32t32 -79v-1075q0 -164 -129 -258t-294 -70.5t-259 164.5q-23 37 -20.5 73t28 59.5 t56 34.5t66.5 0t58 -46q33 -55 99.5 -65.5t120 21.5t53.5 87v987z" glyph-name="j" unicode="j"/><glyph d="M1040 35l-401 448l-221 -139v-235q0 -68 -53.5 -95.5t-107.5 0t-54 95.5v1208q0 68 54 95.5t107.5 -0.5t53.5 -95v-719l643 408q35 20 69.5 18t57 -26.5t34 -54.5t0 -63.5t-45.5 -54.5l-355 -225l379 -422q27 -31 29 -65.5t-17.5 -60t-47 -42t-62.5 -10.5t-62 35z" glyph-name="k" unicode="k"/><glyph d="M313 0q-68 0 -95.5 56.5t0.5 109.5t95 49l316 -20v1157l-316 -21q-66 -4 -93 50.5t-0.5 109.5t93.5 55h422q45 0 77 -30.5t32 -75.5v-1245l276 20q68 4 95.5 -49t0 -109.5t-95.5 -56.5h-807z" glyph-name="l" unicode="l"/><glyph d="M176 719q0 74 -47 137q-49 66 -3 127t116 41q16 -4 43.5 -26.5t44.5 -45.5q25 41 102.5 66.5t173.5 7.5t152 -90q70 76 169 92t187 -18.5t150.5 -119.5t62.5 -196v-585q0 -51 -33.5 -81t-73.5 -30t-74 29.5t-34 81.5v585q0 82 -63.5 116t-127 0t-63.5 -118v-583 q0 -51 -33.5 -81t-73.5 -30t-74 29.5t-34 81.5l2 585q0 49 -26.5 83t-64.5 42t-75 0t-63.5 -42t-26.5 -85v-583q0 -68 -53 -95.5t-106.5 0t-53.5 95.5v610z" glyph-name="m" unicode="m"/><glyph d="M231 109v608q0 76 -45 137q-25 33 -24.5 67.5t23 59.5t51 39t63.5 5t57 -42q20 -25 37 -55q125 113 336 112q221 0 360.5 -144t139.5 -366v-421q0 -68 -53.5 -94.5t-107.5 2t-54 92.5v421q0 131 -77 213t-206 82q-133 0 -209 -83t-76 -214v-419q0 -68 -53 -95.5t-107.5 0 t-54.5 95.5z" glyph-name="n" unicode="n"/><glyph d="M717 -10q-254 0 -408.5 145.5t-154.5 376.5t156.5 376.5t406.5 145.5q252 0 407.5 -146.5t155.5 -375.5q0 -231 -156.5 -376.5t-406.5 -145.5zM717 205q164 0 256 84t92 223q0 143 -92 225t-256 82t-256 -83t-92 -224q0 -143 92 -225t256 -82z" glyph-name="o" unicode="o"/><glyph d="M272 -387v1102q0 78 -47 137q-39 53 -10 108.5t83 62.5t99 -42q20 -25 41 -63q119 111 314 110q221 0 349 -145.5t128 -372.5t-131 -373.5t-346 -146.5q-152 0 -265 73v-450q0 -66 -53 -93.5t-107.5 -1t-54.5 94.5zM752 205q129 0 195.5 84t66.5 221q0 139 -66.5 221 t-195.5 82t-196 -84t-67 -219q0 -141 68 -223t195 -82z" glyph-name="p" unicode="p"/><glyph d="M1159 -387q0 -68 -53 -94.5t-107.5 1t-54.5 93.5v450q-113 -74 -264 -73q-215 0 -346 146.5t-131 373.5t128 372.5t349 145.5q193 0 313 -110q20 39 41 63q39 53 99.5 42t83 -62.5t-10.5 -108.5q-47 -59 -47 -137v-1102zM680 205q127 0 194.5 82t67.5 223 q0 135 -66.5 219t-195.5 84t-195.5 -82t-66.5 -221q0 -137 66.5 -221t195.5 -84z" glyph-name="q" unicode="q"/><glyph d="M309 0q-66 0 -94.5 57.5t0.5 110.5t94 47l207 -20v634l-186 -20q-66 -8 -94.5 46t0 111.5t94.5 57.5h245q141 0 142 -156q33 66 99.5 116t160.5 50q96 0 146.5 -24.5t95.5 -75.5q27 -31 29.5 -65.5t-13.5 -59.5t-42 -43t-56.5 -17t-55.5 19q-66 51 -145 51 q-86 0 -145.5 -85t-59.5 -175v-364l277 20q68 4 95 -49t-0.5 -109.5t-94.5 -56.5h-699z" glyph-name="r" unicode="r"/><glyph d="M731 -10q-154 0 -300 48t-208 146q-29 49 -13.5 83t49.5 52.5t77 13.5t70 -36q33 -39 132 -65.5t185 -26.5q100 -4 195.5 25.5t95.5 78.5q0 59 -72 76.5t-211 24.5h-18q-94 6 -157.5 14t-131.5 27.5t-108 50t-65.5 83t-25.5 124.5q0 164 140.5 248.5t353.5 74.5 q150 -6 282 -56t191 -138q20 -35 15 -66t-31.5 -49t-58.5 -27.5t-61.5 -3.5t-43.5 27q-27 37 -120 65.5t-177 34.5q-100 4 -187.5 -20.5t-87.5 -89.5q0 -72 254 -82q20 -2 31 -2q92 -6 155.5 -14.5t135 -29t113.5 -53t71 -88t29 -131.5q0 -104 -74 -179t-183.5 -107.5 t-240.5 -32.5z" glyph-name="s" unicode="s"/><glyph d="M836 -10q-137 0 -242 93t-105 226v525l-149 -21q-76 -10 -100 64q-20 68 24 116q29 31 76 31h149v410q0 49 33 76.5t73 27.5t72.5 -27.5t32.5 -76.5v-410h293q66 0 92.5 -55.5t0 -107.5t-92.5 -48l-293 21v-525q0 -47 42 -76.5t98 -29.5q27 0 66.5 20.5t54.5 42.5 q35 55 96 48t86.5 -55t-4.5 -107q-47 -72 -131 -117t-172 -45z" glyph-name="t" unicode="t"/><glyph d="M1159 920v-609q0 -76 45 -137q25 -33 25 -67.5t-22.5 -59t-51.5 -39t-63.5 -5.5t-57.5 42q-23 25 -37 55q-125 -113 -315 -112q-219 0 -349 143t-130 367v422q0 68 54 94t107.5 -2.5t53.5 -91.5v-422q0 -135 67.5 -215t194.5 -80q131 0 197.5 81t66.5 216v420 q0 51 34 79.5t74 27.5t73.5 -29.5t33.5 -77.5z" glyph-name="u" unicode="u"/><glyph d="M618 59l-403 809q-31 61 5 109.5t96.5 47.5t91.5 -60l307 -615l307 617q31 59 91.5 60t96 -47t4.5 -110l-403 -811q-29 -55 -93.5 -58t-99.5 58z" glyph-name="v" unicode="v"/><glyph d="M612 63q-18 -70 -101 -62.5t-101 81.5l-203 811q-10 39 4 70.5t43 45t61.5 15.5t60 -19.5t38.5 -60.5l129 -506l75 385q8 43 53.5 60.5t90.5 0t53 -60.5l76 -385l129 506q10 39 37.5 60.5t60.5 19.5t61.5 -15.5t43 -46t4.5 -71.5l-203 -809q-12 -49 -57 -70.5t-89 -6.5 t-57 58l-104 392z" glyph-name="w" unicode="w"/><glyph d="M467 39q-41 -51 -101.5 -38t-81 64.5t16.5 110.5l277 336l-277 336q-43 55 -17.5 110.5t81 63.5t102.5 -37l250 -303l250 303q33 39 76.5 40t73.5 -26.5t40 -67.5t-24 -83l-277 -336l277 -336q41 -51 17 -107.5t-77 -66.5t-106 37l-250 305z" glyph-name="x" unicode="x"/><glyph d="M84 -332q-39 59 -6 114.5t90 58.5t102 -50q41 -61 128 -71.5t126 51.5l107 241l-400 850q-29 63 9.5 112.5t100.5 48.5t93 -65l320 -682l319 685q29 63 92.5 65t102.5 -48t8 -114l-553 -1196q-63 -117 -189 -156.5t-253 4t-197 152.5z" glyph-name="y" unicode="y"/><glyph d="M309 0q-72 0 -99.5 65.5t23.5 116.5l627 627h-551q-68 0 -94.5 54.5t0.5 107.5t94 53h811q72 0 99.5 -65.5t-23.5 -116.5l-627 -627h551q68 0 94.5 -54.5t0 -107.5t-94.5 -53h-811z" glyph-name="z" unicode="z"/><glyph d="M821 -342q-125 0 -215 89t-90 216v389q0 70 -35 117t-98 47q-72 0 -99.5 57.5t2 114.5t97.5 57q66 0 99.5 48.5t33.5 115.5v389q0 127 90 216.5t215 89.5h152q72 0 101.5 -57.5t-0.5 -115t-101 -57.5h-152q-33 0 -55.5 -21.5t-22.5 -54.5v-389q0 -84 -22.5 -144 t-77.5 -134q100 -125 100 -279v-389q0 -33 22.5 -54.5t55.5 -21.5h152q72 0 101.5 -57t-0.5 -114.5t-101 -57.5h-152z" glyph-name="braceleft" unicode="{"/><glyph d="M602 -299v1726q0 72 57.5 102t114.5 0t57 -102v-1726q0 -70 -57 -98.5t-114.5 0t-57.5 98.5z" glyph-name="bar" unicode="|"/><glyph d="M616 -342h-151q-72 0 -101.5 57.5t0 114.5t101.5 57h151q33 0 55.5 21.5t22.5 54.5v389q0 154 101 279q-55 74 -78 134t-23 144v389q0 33 -22.5 54.5t-55.5 21.5h-151q-72 0 -101.5 57.5t0 115t101.5 57.5h151q125 0 215.5 -89.5t90.5 -216.5v-389q0 -68 33.5 -116 t99.5 -48q68 0 97.5 -57t1.5 -114.5t-99 -57.5q-63 0 -98 -47t-35 -117v-389q0 -127 -90.5 -216t-215.5 -89z" glyph-name="braceright" unicode="}"/><glyph d="M268 647q27 74 85.5 115t138.5 41q59 0 128.5 -46t108.5 -46q43 0 66 41q27 49 76 52t80.5 -33t17.5 -83q-23 -74 -73 -116t-122 -42q-57 0 -130 45.5t-118 45.5q-59 0 -82 -41q-29 -49 -79 -53.5t-82.5 32.5t-14.5 88z" glyph-name="asciitilde" unicode="~"/><glyph d="M727 1135q57 0 98 -36t41 -91q0 -57 -41 -91t-98 -34q-61 0 -101 33.5t-40 91.5q0 55 40 91t101 36zM662 627q4 35 34.5 49t61 0t33.5 -49l77 -809q6 -74 -68.5 -103.5t-149.5 1t-68 102.5z" glyph-name="exclamdown" unicode="¡"/><glyph d="M1047 293q47 45 105 23.5t71.5 -75t-31.5 -106.5q-123 -111 -303 -137v-148q0 -49 -32 -80.5t-79 -31.5q-49 0 -80.5 31.5t-31.5 80.5v148q-209 31 -336 167t-127 347q0 207 127 345t336 167v143q0 49 32.5 81t79.5 32t79 -31.5t32 -81.5v-143q182 -25 301 -135 q31 -27 36 -61.5t-11.5 -62.5t-42 -47.5t-61.5 -16t-67 29.5q-96 86 -268 86q-160 0 -259 -77.5t-99 -227.5q0 -147 95 -227t263 -80q173 0 271 88z" glyph-name="cent" unicode="¢"/><glyph d="M397 221h101q41 0 76.5 32t35.5 89v303h-157q-70 0 -97.5 55.5t0 110.5t97.5 55h157v269q0 94 53.5 167.5t130 104.5t166 15.5t154.5 -83.5q35 -37 32 -83t-35 -72.5t-73 -32.5t-82 35q-31 35 -78 16.5t-47 -67.5v-269h156q70 0 97.5 -55t0 -110.5t-97.5 -55.5h-156v-303 q0 -76 -38 -121h247q70 0 97.5 -55t0 -110.5t-97.5 -55.5h-643q-70 0 -98.5 55.5t0 110.5t98.5 55z" glyph-name="sterling" unicode="£"/><glyph d="M1040 473l76 -76q47 -47 26.5 -100t-71.5 -65.5t-98 24.5l-74 76q-84 -47 -181 -47t-179 47l-76 -76q-27 -27 -59.5 -31t-58.5 12.5t-43 41t-13 58.5t30 60l76 76q-47 84 -47 181.5t47 181.5l-76 75q-45 45 -25.5 99.5t70 68t99.5 -25.5l76 -76q82 47 179 47t181 -47 l74 76q47 43 101 24.5t67.5 -67.5t-25.5 -99l-76 -75q47 -84 47 -181.5t-47 -181.5zM549 653q0 -70 50 -119t119.5 -49t119 49.5t49.5 119t-49.5 119.5t-118.5 50q-72 0 -121 -49t-49 -121z" glyph-name="currency" unicode="¤"/><glyph d="M1069 1391q27 35 62.5 43t65.5 -6.5t53.5 -42t23.5 -64.5t-25 -74l-405 -549h133q61 0 85.5 -44t-1 -88t-84.5 -44h-148v-100h148q61 0 85.5 -44t-1 -88t-84.5 -44h-146v-131q0 -53 -35.5 -84t-77.5 -31t-78 30.5t-36 84.5v131h-147q-59 0 -85 44t-1.5 88t86.5 44h145 v100h-145q-59 0 -85 44t-1.5 88t86.5 44h131l-404 549q-25 37 -24.5 75t24 64.5t53 41t66.5 5t62 -41.5l352 -469z" glyph-name="yen" unicode="¥"/><glyph d="M602 813v596q0 72 57.5 101.5t114.5 0t57 -101.5v-596q0 -72 -57 -100.5t-114.5 0t-57.5 100.5zM602 -276v595q0 72 57.5 101t114.5 -1t57 -100v-595q0 -72 -57 -102t-114.5 0t-57.5 102z" glyph-name="brokenbar" unicode="¦"/><glyph d="M725 -205q-172 0 -307 80t-135 209q0 70 55 98.5t111.5 2t58.5 -96.5q2 -37 73.5 -52.5t143.5 -15.5q90 -2 153.5 34t63.5 116q0 76 -45 96.5t-182 28.5q-229 23 -339 99.5t-110 269.5q0 88 60 190q-59 80 -60 205q0 172 125 273.5t318 101.5q172 0 307 -80t135 -209 q0 -70 -55.5 -98.5t-111.5 -2t-58 96.5q0 68 -219 67q-215 0 -215 -149q0 -74 43 -95.5t172 -29.5q236 -18 348 -95t112 -274q0 -92 -59 -190q59 -80 59 -205q0 -172 -124.5 -273.5t-317.5 -101.5zM918 496q25 29 24 84q-4 78 -52 99t-188 30q-141 14 -186 24 q-25 -29 -24 -69q0 -88 47 -112t192 -32q142 -14 187 -24z" glyph-name="section" unicode="§"/><glyph d="M502 1536q-70 0 -117 41t-47 106q0 68 46 107t118 39q70 0 117 -39t47 -107q0 -66 -48 -106.5t-116 -40.5zM932 1536q-70 0 -117 41t-47 106q0 68 46 107t118 39q70 0 117 -39t47 -107q0 -66 -48 -106.5t-116 -40.5z" glyph-name="dieresis" unicode="¨"/><glyph d="M719 184q-233 0 -377.5 141.5t-144.5 381.5q0 236 141 379t381 143q236 0 379 -143.5t143 -378.5q0 -231 -143 -377t-379 -146zM719 1085q-174 0 -276.5 -102t-102.5 -276q0 -172 100.5 -274.5t278.5 -102.5q174 0 275.5 102.5t101.5 274.5t-100.5 275t-276.5 103z M918 520q-57 -61 -137.5 -75.5t-151 12t-120.5 94t-50 158.5q0 88 49 155.5t118.5 96t149.5 15.5t139 -75q27 -33 18 -69.5t-49 -50t-73 19.5q-51 59 -129 27.5t-78 -119.5q0 -84 77 -116t132 25q33 31 69 23t51.5 -48t-15.5 -73z" glyph-name="copyright" unicode="©"/><glyph d="M451 537l243 -277q27 -31 29 -65.5t-18.5 -59t-49 -40t-62.5 -9.5t-58 35l-304 346q-51 68 0 141l304 346q27 31 61.5 36t62 -10t46 -41t17.5 -60.5t-28 -63.5zM956 537l244 -277q27 -31 29 -65.5t-18.5 -59t-49 -40t-62.5 -9.5t-59 35l-303 346q-53 68 0 141l303 346 q27 31 62 36t62.5 -10t46 -41t17.5 -60.5t-28 -63.5z" glyph-name="guillemotleft" unicode="«"/><glyph d="M1014 254v137h-701q-68 0 -95.5 54.5t0.5 107.5t95 53h807q45 0 77 -30.5t32 -75.5v-246q0 -68 -53.5 -95.5t-107.5 0t-54 95.5z" glyph-name="logicalnot" unicode="¬"/><glyph d="M717 510q-242 0 -389.5 146.5t-147.5 390.5q0 242 147.5 389t389.5 147q244 0 390 -149.5t146 -386.5q0 -242 -149 -389.5t-387 -147.5zM717 659q182 0 284.5 106.5t102.5 281.5q0 182 -104.5 284.5t-282.5 102.5q-182 0 -284.5 -105.5t-102.5 -281.5q0 -180 103.5 -284 t283.5 -104zM506 842v399q0 27 18.5 44.5t44.5 17.5h215q82 0 128 -60.5t31 -135.5t-87 -112l80 -116q20 -33 3 -65t-49 -34t-59 29l-114 170h-86v-137q0 -37 -31 -53.5t-62.5 -1t-31.5 54.5zM631 1104h153q37 0 37 37t-37 37h-153v-74z" glyph-name="registered" unicode="®"/><glyph d="M436 1735h355q47 0 72.5 -31t25.5 -69t-26.5 -68.5t-71.5 -30.5h-355q-45 0 -71.5 30.5t-26.5 68.5t25.5 69t72.5 31z" glyph-name="macron" unicode="¯"/><glyph d="M717 909q-119 0 -190.5 75t-71.5 187q0 115 73.5 189t188.5 74q117 0 188.5 -73t71.5 -190q0 -115 -72.5 -188.5t-187.5 -73.5zM717 1077q92 0 92 94q0 51 -23.5 72t-68.5 21q-94 0 -94 -93q0 -94 94 -94z" glyph-name="degree" unicode="°"/><glyph d="M1032 1008q49 0 77 -33t28 -72t-28 -71.5t-77 -32.5h-211v-211q0 -49 -32.5 -77t-71.5 -28t-72 28t-33 77v211h-211q-49 0 -76.5 32.5t-27.5 71.5t27.5 72t76.5 33h211v211q0 49 33 76.5t72 27.5t71.5 -27.5t32.5 -76.5v-211h211zM401 84q-68 0 -94 52t1.5 104.5 t92.5 52.5h633q66 0 92.5 -52.5t0 -104.5t-92.5 -52h-633z" glyph-name="plusminus" unicode="±"/><glyph d="M715 1593q-20 -43 -66.5 -49t-76 30t-9.5 97l49 148q23 72 93 71q61 0 83 -55q18 -43 -8 -100z" glyph-name="acute" unicode="´"/><glyph glyph-name="paragraph" unicode="¶"/><glyph d="M717 428q-82 0 -136.5 47t-54.5 125t54.5 123t136.5 45q78 0 133 -45t55 -123q0 -76 -55 -124t-133 -48z" glyph-name="periodcentered" unicode="·"/><glyph d="M504 -317q-29 35 -13.5 75.5t50 52t63.5 -11.5q25 -27 56.5 -18.5t48 41.5t-6 94t-59.5 84l209 27q49 -61 51 -144.5t-51 -163.5q-61 -86 -174 -99t-174 63z" glyph-name="cedilla" unicode="¸"/><glyph d="M477 537l-244 278q-27 29 -27.5 63.5t18 60.5t46 41t62.5 10t61 -36l303 -346q53 -74 0 -141l-303 -346q-25 -29 -58.5 -35t-62 9.5t-49 40t-18.5 59t28 65.5zM983 537l-244 278q-27 29 -27.5 63.5t18 60.5t46 41t62 10t61.5 -36l303 -346q51 -74 0 -141l-303 -346 q-25 -29 -58.5 -35t-62 9.5t-49 40t-18.5 59t28 65.5z" glyph-name="guillemotright" unicode="»"/><glyph d="M821 1128q55 0 91 -31.5t36 -82.5q0 -53 -35.5 -83t-91.5 -30q-53 0 -89 31t-36 82t37 82.5t88 31.5zM915 680q29 -317 -284 -438q-160 -61 -148 -203q8 -82 95.5 -121t207.5 -27q84 8 165 39t114 88q37 66 97.5 69t97 -43t16.5 -101q-41 -117 -176 -187.5t-293 -87.5 q-223 -20 -377 76t-170 274q-12 125 63.5 225.5t180.5 139.5q244 94 215 281q-10 63 38 88.5t101 3t57 -75.5z" glyph-name="questiondown" unicode="¿"/><glyph d="M633 1593l-66 142q-41 90 19 137q51 39 106 4q31 -18 43 -57l49 -148q20 -61 -9.5 -97t-75.5 -30t-66 49zM344 66q-25 -68 -88 -71t-105 49t-16 118l471 1192q16 47 62.5 67.5t93.5 2t63 -69.5l469 -1192q27 -66 -15 -117t-104.5 -48t-87.5 69l-94 247h-557zM504 545h424 l-213 545z" glyph-name="Agrave" unicode="À"/><glyph d="M842 1593q-20 -43 -66.5 -49t-76 30t-9.5 97l49 148q23 72 92 71q61 0 84 -55q18 -43 -8 -100zM344 66q-25 -68 -88 -71t-105 49t-16 118l471 1192q16 47 62.5 67.5t93.5 2t63 -69.5l469 -1192q27 -66 -15 -117t-104.5 -48t-87.5 69l-94 247h-557zM504 545h424l-213 545z " glyph-name="Aacute" unicode="Á"/><glyph d="M457 1712q29 14 94 54t101 58.5t53 18.5h22q8 0 26.5 -7t45 -22.5t52.5 -30t61.5 -34.5t58.5 -33q68 -39 43 -112q-18 -57 -72 -68q-33 -6 -65 18l-160 125l-164 -129q-45 -35 -94 -6t-51 80t49 88zM344 66q-25 -68 -88 -71t-105 49t-16 118l471 1192q16 47 62.5 67.5 t93.5 2t63 -69.5l469 -1192q27 -66 -15 -117t-104.5 -48t-87.5 69l-94 247h-557zM504 545h424l-213 545z" glyph-name="Acircumflex" unicode="Â"/><glyph d="M365 1698q27 74 85 114.5t138 40.5q59 0 128.5 -46t108.5 -46q43 0 66 41q27 49 76 52.5t80.5 -32.5t17.5 -83q-23 -74 -73 -116t-122 -42q-57 0 -129.5 45t-117.5 45q-59 0 -82 -41q-29 -49 -79 -53t-82.5 33t-14.5 88zM344 66q-25 -68 -88 -71t-105 49t-16 118 l471 1192q16 47 62.5 67.5t93.5 2t63 -69.5l469 -1192q27 -66 -15 -117t-104.5 -48t-87.5 69l-94 247h-557zM504 545h424l-213 545z" glyph-name="Atilde" unicode="Ã"/><glyph d="M500 1536q-70 0 -117 41t-47 106q0 68 46 107t118 39q70 0 117 -39t47 -107q0 -66 -48 -106.5t-116 -40.5zM930 1536q-70 0 -117 41t-47 106q0 68 46 107t118 39q70 0 117 -39t47 -107q0 -66 -48 -106.5t-116 -40.5zM344 66q-25 -68 -88 -71t-105 49t-16 118l471 1192 q16 47 62.5 67.5t93.5 2t63 -69.5l469 -1192q27 -66 -15 -117t-104.5 -48t-87.5 69l-94 247h-557zM504 545h424l-213 545z" glyph-name="Adieresis" unicode="Ä"/><glyph d="M714.5 1536q-106.5 0 -181 75t-74.5 183q0 104 74.5 179t181 75t181.5 -75t75 -179q0 -106 -75 -182t-181.5 -76zM715 1714q33 0 55.5 22.5t22.5 57.5q0 33 -22.5 54.5t-55.5 21.5t-55.5 -21.5t-22.5 -54.5q0 -35 22.5 -57.5t55.5 -22.5zM344 66q-25 -68 -88 -71t-105 49 t-16 118l471 1192q16 47 62.5 67.5t93.5 2t63 -69.5l469 -1192q27 -66 -15 -117t-104.5 -48t-87.5 69l-94 247h-557zM504 545h424l-213 545z" glyph-name="Aring" unicode="Å"/><glyph d="M123 162l471 1192q6 20 15 34.5t25.5 23.5t30 14.5t44 7.5t49 2t65.5 -1t76 -1h307q72 0 101.5 -57.5t0 -115t-101.5 -57.5h-293v-373h191q72 0 101.5 -57t0 -114.5t-101.5 -57.5h-191v-373h291q72 0 101.5 -57t0 -114.5t-101.5 -57.5h-389q-53 0 -92 38t-39 91v184h-260 l-92 -247q-25 -68 -88.5 -71t-105.5 49t-15 118zM492 545h192v495z" glyph-name="AE" unicode="Æ"/><glyph d="M1004 342q41 55 105.5 43t87 -64.5t-14.5 -111.5q-115 -156 -305 -203q39 -57 36.5 -137t-51.5 -150q-61 -86 -174 -99t-174 63q-29 35 -13.5 75.5t50.5 52t63 -11.5q25 -27 56.5 -18.5t48.5 41.5q14 31 -5.5 87t-51.5 85q-246 31 -382.5 230.5t-136.5 492.5 q0 317 160 522t434 205q281 0 443 -215q25 -35 24.5 -71t-24 -61.5t-53 -39t-64.5 -5t-59 41.5q-98 127 -267 127q-184 0 -277 -142.5t-93 -361.5q0 -223 93 -363.5t277 -140.5q173 0 267 129z" glyph-name="Ccedilla" unicode="Ç"/><glyph d="M678 1593l-66 142q-41 90 19 137q51 39 106 4q31 -18 43 -57l49 -148q20 -61 -9 -97t-75.5 -30t-66.5 49zM336 0q-53 0 -92 38t-39 91v1176q0 53 39 91t92 38h778q47 0 81 -34t34 -81t-34 -81t-81 -34h-680v-373h481q47 0 81 -33.5t34 -80.5t-33.5 -81t-81.5 -34h-481 v-373h680q47 0 81 -33.5t34 -80.5t-34 -81t-81 -34h-778z" glyph-name="Egrave" unicode="È"/><glyph d="M756 1626q-20 -43 -66.5 -49t-76 29.5t-9.5 97.5l49 147q23 72 92 72q61 0 84 -55q18 -43 -8 -101zM336 0q-53 0 -92 38t-39 91v1176q0 53 39 91t92 38h778q47 0 81 -34t34 -81t-34 -81t-81 -34h-680v-373h481q47 0 81 -33.5t34 -80.5t-33.5 -81t-81.5 -34h-481v-373h680 q47 0 81 -33.5t34 -80.5t-34 -81t-81 -34h-778z" glyph-name="Eacute" unicode="É"/><glyph d="M459 1722q29 14 94 54.5t101 58.5t53 18h22q8 0 26.5 -7t45 -22.5t52.5 -29.5t61.5 -34.5t58.5 -33.5q68 -39 43 -112q-18 -57 -72 -68q-33 -6 -65 19l-160 125l-164 -129q-45 -35 -94 -6.5t-51 79.5t49 88zM336 0q-53 0 -92 38t-39 91v1176q0 53 39 91t92 38h778 q47 0 81 -34t34 -81t-34 -81t-81 -34h-680v-373h481q47 0 81 -33.5t34 -80.5t-33.5 -81t-81.5 -34h-481v-373h680q47 0 81 -33.5t34 -80.5t-34 -81t-81 -34h-778z" glyph-name="Ecircumflex" unicode="Ê"/><glyph d="M502 1577q-70 0 -117 41t-47 106q0 68 46 107t118 39q70 0 117 -39t47 -107q0 -66 -48 -106.5t-116 -40.5zM932 1577q-70 0 -117 41t-47 106q0 68 46 107t118 39q70 0 117 -39t47 -107q0 -66 -48 -106.5t-116 -40.5zM336 0q-53 0 -92 38t-39 91v1176q0 53 39 91t92 38 h778q47 0 81 -34t34 -81t-34 -81t-81 -34h-680v-373h481q47 0 81 -33.5t34 -80.5t-33.5 -81t-81.5 -34h-481v-373h680q47 0 81 -33.5t34 -80.5t-34 -81t-81 -34h-778z" glyph-name="Edieresis" unicode="Ë"/><glyph d="M633 1593l-66 142q-41 90 19 137q51 39 106 4q31 -18 43 -57l49 -148q20 -61 -9.5 -97t-75.5 -30t-66 49zM319 0q-47 0 -80.5 34t-33.5 81q0 49 33.5 82.5t80.5 31.5l283 -20v1016l-283 -21q-47 -2 -80.5 32t-33.5 83q0 47 33.5 81t80.5 34h795q47 0 81 -34t34 -81 q0 -49 -34 -83t-81 -32l-283 21v-1016l283 20q47 2 81 -31.5t34 -82.5q0 -47 -34 -81t-81 -34h-795z" glyph-name="Igrave" unicode="Ì"/><glyph d="M795 1593q-20 -43 -66.5 -49t-76 30t-9.5 97l49 148q23 72 92 71q61 0 84 -55q18 -43 -8 -100zM319 0q-47 0 -80.5 34t-33.5 81q0 49 33.5 82.5t80.5 31.5l283 -20v1016l-283 -21q-47 -2 -80.5 32t-33.5 83q0 47 33.5 81t80.5 34h795q47 0 81 -34t34 -81q0 -49 -34 -83 t-81 -32l-283 21v-1016l283 20q47 2 81 -31.5t34 -82.5q0 -47 -34 -81t-81 -34h-795z" glyph-name="Iacute" unicode="Í"/><glyph d="M459 1712q29 14 94 54t101 58.5t53 18.5h22q8 0 26.5 -7t45 -22.5t52.5 -30t61.5 -34.5t58.5 -33q68 -39 43 -112q-18 -57 -72 -68q-33 -6 -65 18l-160 125l-164 -129q-45 -35 -94 -6t-51 80t49 88zM319 0q-47 0 -80.5 34t-33.5 81q0 49 33.5 82.5t80.5 31.5l283 -20 v1016l-283 -21q-47 -2 -80.5 32t-33.5 83q0 47 33.5 81t80.5 34h795q47 0 81 -34t34 -81q0 -49 -34 -83t-81 -32l-283 21v-1016l283 20q47 2 81 -31.5t34 -82.5q0 -47 -34 -81t-81 -34h-795z" glyph-name="Icircumflex" unicode="Î"/><glyph d="M502 1536q-70 0 -117 41t-47 106q0 68 46 107t118 39q70 0 117 -39t47 -107q0 -66 -48 -106.5t-116 -40.5zM932 1536q-70 0 -117 41t-47 106q0 68 46 107t118 39q70 0 117 -39t47 -107q0 -66 -48 -106.5t-116 -40.5zM319 0q-47 0 -80.5 34t-33.5 81q0 49 33.5 82.5 t80.5 31.5l283 -20v1016l-283 -21q-47 -2 -80.5 32t-33.5 83q0 47 33.5 81t80.5 34h795q47 0 81 -34t34 -81q0 -49 -34 -83t-81 -32l-283 21v-1016l283 20q47 2 81 -31.5t34 -82.5q0 -47 -34 -81t-81 -34h-795z" glyph-name="Idieresis" unicode="Ï"/><glyph d="M674 1434q293 0 443.5 -192.5t150.5 -524.5t-153.5 -524.5t-440.5 -192.5h-420q-45 0 -78 33t-33 78v507h-239q-59 0 -85 49.5t-1.5 98.5t86.5 49h239v508q0 45 33 78t78 33h420zM674 223q371 0 370 494q0 242 -88 367.5t-282 125.5h-307v-395h262q61 0 85.5 -49 t-1 -98.5t-84.5 -49.5h-262v-395h307z" glyph-name="Eth" unicode="Ð"/><glyph d="M367 1690q27 74 85 114.5t138 40.5q59 0 128.5 -46t108.5 -46q43 0 66 41q27 49 76 52t80.5 -32.5t17.5 -82.5q-23 -74 -73 -116t-122 -42q-57 0 -129.5 45t-117.5 45q-59 0 -82 -41q-29 -49 -79 -53t-82.5 33t-14.5 88zM1026 43l-592 887v-815q0 -72 -57.5 -101.5 t-114.5 0t-57 101.5v1204q0 80 78.5 108.5t124.5 -36.5l591 -887v815q0 72 57.5 101.5t115 0t57.5 -101.5v-1204q0 -80 -79 -109t-124 37z" glyph-name="Ntilde" unicode="Ñ"/><glyph d="M631 1593l-66 142q-41 90 19 137q51 39 106 4q31 -18 43 -57l49 -148q20 -61 -9.5 -97t-75.5 -30t-66 49zM717 0q-285 0 -451 206t-166 521q0 313 167 520t450 207q285 0 449.5 -208t164.5 -519q0 -315 -167.5 -521t-446.5 -206zM716.5 229q194.5 0 293 138.5t98.5 359.5 q0 225 -99.5 361.5t-291.5 136.5q-195 0 -294 -139.5t-99 -358.5q0 -225 99 -361.5t293.5 -136.5z" glyph-name="Ograve" unicode="Ò"/><glyph d="M795 1593q-20 -43 -66.5 -49t-76 30t-9.5 97l49 148q23 72 92 71q61 0 84 -55q18 -43 -8 -100zM717 0q-285 0 -451 206t-166 521q0 313 167 520t450 207q285 0 449.5 -208t164.5 -519q0 -315 -167.5 -521t-446.5 -206zM716.5 229q194.5 0 293 138.5t98.5 359.5 q0 225 -99.5 361.5t-291.5 136.5q-195 0 -294 -139.5t-99 -358.5q0 -225 99 -361.5t293.5 -136.5z" glyph-name="Oacute" unicode="Ó"/><glyph d="M457 1712q29 14 94 54t101 58.5t53 18.5h22q8 0 26.5 -7t45 -22.5t52.5 -30t61.5 -34.5t58.5 -33q68 -39 43 -112q-18 -57 -72 -68q-33 -6 -65 18l-160 125l-164 -129q-45 -35 -94 -6t-51 80t49 88zM717 0q-285 0 -451 206t-166 521q0 313 167 520t450 207 q285 0 449.5 -208t164.5 -519q0 -315 -167.5 -521t-446.5 -206zM716.5 229q194.5 0 293 138.5t98.5 359.5q0 225 -99.5 361.5t-291.5 136.5q-195 0 -294 -139.5t-99 -358.5q0 -225 99 -361.5t293.5 -136.5z" glyph-name="Ocircumflex" unicode="Ô"/><glyph d="M367 1690q27 74 85 114.5t138 40.5q59 0 128.5 -46t108.5 -46q43 0 66 41q27 49 76 52t80.5 -32.5t17.5 -82.5q-23 -74 -73 -116t-122 -42q-57 0 -129.5 45t-117.5 45q-59 0 -82 -41q-29 -49 -79 -53t-82.5 33t-14.5 88zM717 0q-285 0 -451 206t-166 521q0 313 167 520 t450 207q285 0 449.5 -208t164.5 -519q0 -315 -167.5 -521t-446.5 -206zM716.5 229q194.5 0 293 138.5t98.5 359.5q0 225 -99.5 361.5t-291.5 136.5q-195 0 -294 -139.5t-99 -358.5q0 -225 99 -361.5t293.5 -136.5z" glyph-name="Otilde" unicode="Õ"/><glyph d="M500 1536q-70 0 -117 41t-47 106q0 68 46 107t118 39q70 0 117 -39t47 -107q0 -66 -48 -106.5t-116 -40.5zM930 1536q-70 0 -117 41t-47 106q0 68 46 107t118 39q70 0 117 -39t47 -107q0 -66 -48 -106.5t-116 -40.5zM717 0q-285 0 -451 206t-166 521q0 313 167 520 t450 207q285 0 449.5 -208t164.5 -519q0 -315 -167.5 -521t-446.5 -206zM716.5 229q194.5 0 293 138.5t98.5 359.5q0 225 -99.5 361.5t-291.5 136.5q-195 0 -294 -139.5t-99 -358.5q0 -225 99 -361.5t293.5 -136.5z" glyph-name="Odieresis" unicode="Ö"/><glyph d="M1014 504q27 -27 31 -61.5t-13.5 -60.5t-43 -43t-60.5 -13t-62 30l-149 150l-150 -150q-35 -35 -78 -31.5t-68.5 33t-32.5 68.5t32 78l149 149l-149 150q-27 27 -31 61.5t13.5 60t43 43t60.5 14.5t61 -32l150 -149l149 149q27 29 62 32t60.5 -14.5t43 -43t13 -60.5 t-30.5 -61l-150 -150z" glyph-name="multiply" unicode="×"/><glyph d="M1206 1446q31 39 78 34t63.5 -40t-14.5 -82l-131 -162q129 -195 129 -469q0 -315 -168 -521t-446 -206q-219 0 -375 129l-102 -125q-63 -78 -129 -45q-47 25 -39 70q4 16 14 28l152 187q-137 193 -138 483q0 313 167 520t450 207q227 0 383 -139zM324 727q0 -176 61 -299 l576 713q-96 84 -244 84q-195 0 -294 -139.5t-99 -358.5zM1108 727q0 162 -53 285l-572 -707q92 -76 234 -76q195 0 293 138.5t98 359.5z" glyph-name="Oslash" unicode="Ø"/><glyph d="M678 1593l-66 142q-41 90 19 137q51 39 106 4q31 -18 43 -57l49 -148q20 -61 -9 -97t-75.5 -30t-66.5 49zM717 -10q-238 0 -380 145.5t-142 376.5v813q0 68 54 95.5t107.5 0t53.5 -95.5v-813q0 -145 79.5 -226t227 -81t227.5 83t80 224v813q0 68 53 95.5t107.5 0 t54.5 -95.5v-813q0 -231 -144.5 -376.5t-377.5 -145.5z" glyph-name="Ugrave" unicode="Ù"/><glyph d="M756 1593q-20 -43 -66.5 -49t-76 30t-9.5 97l49 148q23 72 92 71q61 0 84 -55q18 -43 -8 -100zM717 -10q-238 0 -380 145.5t-142 376.5v813q0 68 54 95.5t107.5 0t53.5 -95.5v-813q0 -145 79.5 -226t227 -81t227.5 83t80 224v813q0 68 53 95.5t107.5 0t54.5 -95.5v-813 q0 -231 -144.5 -376.5t-377.5 -145.5z" glyph-name="Uacute" unicode="Ú"/><glyph d="M459 1712q29 14 94 54t101 58.5t53 18.5h22q8 0 26.5 -7t45 -22.5t52.5 -30t61.5 -34.5t58.5 -33q68 -39 43 -112q-18 -57 -72 -68q-33 -6 -65 18l-160 125l-164 -129q-45 -35 -94 -6t-51 80t49 88zM717 -10q-238 0 -380 145.5t-142 376.5v813q0 68 54 95.5t107.5 0 t53.5 -95.5v-813q0 -145 79.5 -226t227 -81t227.5 83t80 224v813q0 68 53 95.5t107.5 0t54.5 -95.5v-813q0 -231 -144.5 -376.5t-377.5 -145.5z" glyph-name="Ucircumflex" unicode="Û"/><glyph d="M502 1536q-70 0 -117 41t-47 106q0 68 46 107t118 39q70 0 117 -39t47 -107q0 -66 -48 -106.5t-116 -40.5zM932 1536q-70 0 -117 41t-47 106q0 68 46 107t118 39q70 0 117 -39t47 -107q0 -66 -48 -106.5t-116 -40.5zM717 -10q-238 0 -380 145.5t-142 376.5v813 q0 68 54 95.5t107.5 0t53.5 -95.5v-813q0 -145 79.5 -226t227 -81t227.5 83t80 224v813q0 68 53 95.5t107.5 0t54.5 -95.5v-813q0 -231 -144.5 -376.5t-377.5 -145.5z" glyph-name="Udieresis" unicode="Ü"/><glyph d="M756 1593q-20 -43 -66.5 -49t-76 30t-9.5 97l49 148q23 72 92 71q61 0 84 -55q18 -43 -8 -100zM604 115l-2 563l-418 569q-25 37 -24.5 75t24 64.5t53 41t66.5 5t62 -41.5l352 -469l352 469q27 35 62.5 43t65.5 -6.5t53.5 -42t23.5 -64.5t-25 -74l-420 -569l2 -563 q0 -53 -35.5 -84t-77.5 -31t-78 31t-36 84z" glyph-name="Yacute" unicode="Ý"/><glyph d="M195 111v1210q0 72 56 100.5t111.5 0t55.5 -100.5v-143h246q274 0 433.5 -117t159.5 -344.5t-161.5 -344t-431.5 -116.5h-246v-145q0 -51 -35 -81t-77 -30t-76.5 30t-34.5 81zM418 479h246q371 0 370.5 237.5t-370.5 237.5h-246v-475z" glyph-name="Thorn" unicode="Þ"/><glyph d="M707 0q-72 0 -102 57.5t0 114.5t102 57h112q84 0 133 58.5t51.5 128t-47 128t-137.5 58.5h-112q-72 0 -102 57.5t0 114.5t102 57h34q84 0 134.5 58.5t52.5 128t-46 128t-141 58.5h-127q-78 0 -129 -51t-51 -129v-909q0 -72 -57.5 -101.5t-114.5 0t-57 101.5v909 q0 178 115.5 294t293.5 116h127q129 0 231.5 -70t148.5 -171t34 -223t-94 -216q115 -98 149.5 -232.5t-2.5 -248t-141 -193.5t-248 -80h-112z" glyph-name="germandbls" unicode="ß"/><glyph d="M678 1241l-66 141q-41 90 19 138q51 39 106 4q31 -18 43 -58l49 -147q20 -61 -9 -97t-75.5 -30t-66.5 49zM680 -8q-207 0 -342 90t-135 252q0 164 136 249t341 85q70 0 127 -21.5t80.5 -41t56.5 -52.5q0 270 -258 270q-100 0 -162 -45q-45 -33 -103.5 -12.5t-74.5 67 t27 97.5q45 49 135 75.5t178 26.5q219 0 346 -122t127 -324v-277q0 -78 47 -137q25 -33 25 -67.5t-22.5 -58t-52.5 -37t-64.5 -5.5t-59.5 39q-20 29 -31 45q-133 -96 -321 -96zM680 207q92 0 176 34.5t84 94.5q-4 61 -81 92t-179 31q-106 0 -184 -32t-78 -93q0 -63 79 -95 t183 -32z" glyph-name="agrave" unicode="à"/><glyph d="M756 1225q-20 -43 -66.5 -49.5t-76 29.5t-9.5 98l49 147q23 72 92 72q61 0 84 -56q18 -43 -8 -100zM680 -8q-207 0 -342 90t-135 252q0 164 136 249t341 85q70 0 127 -21.5t80.5 -41t56.5 -52.5q0 270 -258 270q-100 0 -162 -45q-45 -33 -103.5 -12.5t-74.5 67t27 97.5 q45 49 135 75.5t178 26.5q219 0 346 -122t127 -324v-277q0 -78 47 -137q25 -33 25 -67.5t-22.5 -58t-52.5 -37t-64.5 -5.5t-59.5 39q-20 29 -31 45q-133 -96 -321 -96zM680 207q92 0 176 34.5t84 94.5q-4 61 -81 92t-179 31q-106 0 -184 -32t-78 -93q0 -63 79 -95t183 -32z " glyph-name="aacute" unicode="á"/><glyph d="M459 1272q29 14 94 54t101 58.5t53 18.5h22q8 0 26.5 -7t45 -22.5t52.5 -30t61.5 -35t58.5 -32.5q68 -39 43 -113q-18 -57 -72 -67q-33 -6 -65 18l-160 125l-164 -129q-45 -35 -94 -6t-51 80t49 88zM680 -8q-207 0 -342 90t-135 252q0 164 136 249t341 85q70 0 127 -21.5 t80.5 -41t56.5 -52.5q0 270 -258 270q-100 0 -162 -45q-45 -33 -103.5 -12.5t-74.5 67t27 97.5q45 49 135 75.5t178 26.5q219 0 346 -122t127 -324v-277q0 -78 47 -137q25 -33 25 -67.5t-22.5 -58t-52.5 -37t-64.5 -5.5t-59.5 39q-20 29 -31 45q-133 -96 -321 -96zM680 207 q92 0 176 34.5t84 94.5q-4 61 -81 92t-179 31q-106 0 -184 -32t-78 -93q0 -63 79 -95t183 -32z" glyph-name="acircumflex" unicode="â"/><glyph d="M367 1288q27 74 85 115t138 41q59 0 128.5 -46t108.5 -46q43 0 66 41q27 49 76 52t80.5 -33t17.5 -83q-23 -74 -73 -116t-122 -42q-57 0 -129.5 45.5t-117.5 45.5q-59 0 -82 -41q-29 -49 -79 -53.5t-82.5 32.5t-14.5 88zM680 -8q-207 0 -342 90t-135 252q0 164 136 249 t341 85q70 0 127 -21.5t80.5 -41t56.5 -52.5q0 270 -258 270q-100 0 -162 -45q-45 -33 -103.5 -12.5t-74.5 67t27 97.5q45 49 135 75.5t178 26.5q219 0 346 -122t127 -324v-277q0 -78 47 -137q25 -33 25 -67.5t-22.5 -58t-52.5 -37t-64.5 -5.5t-59.5 39q-20 29 -31 45 q-133 -96 -321 -96zM680 207q92 0 176 34.5t84 94.5q-4 61 -81 92t-179 31q-106 0 -184 -32t-78 -93q0 -63 79 -95t183 -32z" glyph-name="atilde" unicode="ã"/><glyph d="M502 1141q-70 0 -117 41t-47 106q0 68 46 107t118 39q70 0 117 -39t47 -107q0 -66 -48 -106.5t-116 -40.5zM932 1141q-70 0 -117 41t-47 106q0 68 46 107t118 39q70 0 117 -39t47 -107q0 -66 -48 -106.5t-116 -40.5zM680 -8q-207 0 -342 90t-135 252q0 164 136 249 t341 85q70 0 127 -21.5t80.5 -41t56.5 -52.5q0 270 -258 270q-100 0 -162 -45q-45 -33 -103.5 -12.5t-74.5 67t27 97.5q45 49 135 75.5t178 26.5q219 0 346 -122t127 -324v-277q0 -78 47 -137q25 -33 25 -67.5t-22.5 -58t-52.5 -37t-64.5 -5.5t-59.5 39q-20 29 -31 45 q-133 -96 -321 -96zM680 207q92 0 176 34.5t84 94.5q-4 61 -81 92t-179 31q-106 0 -184 -32t-78 -93q0 -63 79 -95t183 -32z" glyph-name="adieresis" unicode="ä"/><glyph d="M755.5 1184q-106.5 0 -181 74.5t-74.5 183.5q0 104 74.5 179t181 75t181.5 -75t75 -179q0 -106 -75 -182t-181.5 -76zM755.5 1362q32.5 0 55.5 22.5t23 57.5q0 33 -23 54.5t-55.5 21.5t-55 -21.5t-22.5 -54.5q0 -35 22.5 -57.5t55 -22.5zM680 -8q-207 0 -342 90t-135 252 q0 164 136 249t341 85q70 0 127 -21.5t80.5 -41t56.5 -52.5q0 270 -258 270q-100 0 -162 -45q-45 -33 -103.5 -12.5t-74.5 67t27 97.5q45 49 135 75.5t178 26.5q219 0 346 -122t127 -324v-277q0 -78 47 -137q25 -33 25 -67.5t-22.5 -58t-52.5 -37t-64.5 -5.5t-59.5 39 q-20 29 -31 45q-133 -96 -321 -96zM680 207q92 0 176 34.5t84 94.5q-4 61 -81 92t-179 31q-106 0 -184 -32t-78 -93q0 -63 79 -95t183 -32z" glyph-name="aring" unicode="å"/><glyph d="M502 -12q-150 0 -239 96t-89 246q0 152 90 247t238 95q74 0 131 -37q0 115 -51.5 172t-122.5 -10q-35 -37 -81 -44.5t-77 12t-45 55.5t14 85q74 127 246 127q127 0 215 -102q72 98 205 98q147 0 235.5 -141.5t88.5 -339.5q0 -45 -32 -76t-77 -31h-358q12 -88 42.5 -161.5 t79.5 -73.5q41 0 78 22.5t47 59.5q20 63 81 73.5t104 -31.5t22 -106q-72 -236 -311 -235q-129 0 -209 102q-92 -102 -225 -102zM793 618h284q0 82 -42 147.5t-99 65.5t-100 -69.5t-43 -143.5zM502 205q43 0 87 45t44 80q0 59 -37 93t-94 34q-59 0 -95 -36t-36 -91 q0 -57 36 -91t95 -34z" glyph-name="ae" unicode="æ"/><glyph d="M1047 293q47 45 105 23.5t71.5 -75t-31.5 -106.5q-115 -106 -281 -133q37 -57 33 -136t-51 -147q-61 -86 -174 -99t-174 63q-29 35 -13.5 75.5t50 52t63.5 -11.5q25 -27 56.5 -18.5t48.5 41.5q14 31 -5.5 87t-52.5 85q-221 23 -355 162t-134 356q0 236 159.5 378 t413.5 142q258 0 414 -143q31 -27 36 -61.5t-11.5 -62.5t-42 -47.5t-61.5 -16t-67 29.5q-96 86 -268 86q-160 0 -259 -77.5t-99 -227.5q0 -147 95 -227t263 -80q173 0 271 88z" glyph-name="ccedilla" unicode="ç"/><glyph d="M678 1251l-66 142q-41 90 19 137q51 39 106 4q31 -18 43 -57l49 -148q20 -61 -9 -97t-75.5 -30t-66.5 49zM717 -10q-233 0 -372.5 146.5t-139.5 375.5q0 233 140 376.5t372 143.5q236 0 374 -132t138 -353q0 -45 -32 -77t-77 -32h-694q20 -115 96 -174t195 -59 q225 0 299 117q33 39 87 37.5t91 -46.5t8 -98q-127 -225 -485 -225zM426 612h571q-55 205 -280 205q-100 0 -177 -53.5t-114 -151.5z" glyph-name="egrave" unicode="è"/><glyph d="M838 1264q-20 -43 -66.5 -49.5t-76 29.5t-9.5 97l49 148q23 72 92 72q61 0 84 -56q18 -43 -8 -100zM717 -10q-233 0 -372.5 146.5t-139.5 375.5q0 233 140 376.5t372 143.5q236 0 374 -132t138 -353q0 -45 -32 -77t-77 -32h-694q20 -115 96 -174t195 -59q225 0 299 117 q33 39 87 37.5t91 -46.5t8 -98q-127 -225 -485 -225zM426 612h571q-55 205 -280 205q-100 0 -177 -53.5t-114 -151.5z" glyph-name="eacute" unicode="é"/><glyph d="M459 1337q29 14 94 54.5t101 58.5t53 18h22q8 0 26.5 -7t45 -22.5t52.5 -29.5t61.5 -34.5t58.5 -33.5q68 -39 43 -112q-18 -57 -72 -68q-33 -6 -65 19l-160 125l-164 -129q-45 -35 -94 -6.5t-51 79.5t49 88zM717 -10q-233 0 -372.5 146.5t-139.5 375.5q0 233 140 376.5 t372 143.5q236 0 374 -132t138 -353q0 -45 -32 -77t-77 -32h-694q20 -115 96 -174t195 -59q225 0 299 117q33 39 87 37.5t91 -46.5t8 -98q-127 -225 -485 -225zM426 612h571q-55 205 -280 205q-100 0 -177 -53.5t-114 -151.5z" glyph-name="ecircumflex" unicode="ê"/><glyph d="M502 1202q-70 0 -117 41t-47 107q0 68 46 106.5t118 38.5q70 0 117 -39t47 -106q0 -66 -48 -107t-116 -41zM932 1202q-70 0 -117 41t-47 107q0 68 46 106.5t118 38.5q70 0 117 -39t47 -106q0 -66 -48 -107t-116 -41zM717 -10q-233 0 -372.5 146.5t-139.5 375.5 q0 233 140 376.5t372 143.5q236 0 374 -132t138 -353q0 -45 -32 -77t-77 -32h-694q20 -115 96 -174t195 -59q225 0 299 117q33 39 87 37.5t91 -46.5t8 -98q-127 -225 -485 -225zM426 612h571q-55 205 -280 205q-100 0 -177 -53.5t-114 -151.5z" glyph-name="edieresis" unicode="ë"/><glyph d="M688 1241l-65 141q-41 90 18 138q51 39 107 4q31 -18 43 -58l49 -147q20 -61 -9.5 -97t-76 -30t-66.5 49zM313 0q-68 0 -95.5 56.5t0.5 110.5t95 50l353 -20v632l-353 -20q-66 -4 -93 50t-0.5 109.5t93.5 55.5h459q45 0 76 -30.5t31 -75.5l2 -721l239 20q68 6 95.5 -48 t0 -111.5t-95.5 -57.5h-807z" glyph-name="igrave" unicode="ì"/><glyph d="M836 1221q-20 -43 -66.5 -49.5t-76 29.5t-9.5 97l49 148q23 72 92 72q61 0 84 -56q18 -43 -8 -100zM313 0q-68 0 -95.5 56.5t0.5 110.5t95 50l353 -20v632l-353 -20q-66 -4 -93 50t-0.5 109.5t93.5 55.5h459q45 0 76 -30.5t31 -75.5l2 -721l239 20q68 6 95.5 -48 t0 -111.5t-95.5 -57.5h-807z" glyph-name="iacute" unicode="í"/><glyph d="M504 1329q29 14 94.5 54t101 58.5t52.5 18.5h22q8 0 26.5 -7t45 -22.5t52.5 -30t61.5 -34.5t58.5 -33q68 -39 43 -112q-18 -57 -72 -68q-33 -6 -65 18l-160 125l-164 -129q-45 -35 -94 -6t-51 80t49 88zM313 0q-68 0 -95.5 56.5t0.5 110.5t95 50l353 -20v632l-353 -20 q-66 -4 -93 50t-0.5 109.5t93.5 55.5h459q45 0 76 -30.5t31 -75.5l2 -721l239 20q68 6 95.5 -48t0 -111.5t-95.5 -57.5h-807z" glyph-name="icircumflex" unicode="î"/><glyph d="M502 1169q-70 0 -117 41t-47 107q0 68 46 106.5t118 38.5q70 0 117 -39t47 -106q0 -66 -48 -107t-116 -41zM932 1169q-70 0 -117 41t-47 107q0 68 46 106.5t118 38.5q70 0 117 -39t47 -106q0 -66 -48 -107t-116 -41zM313 0q-68 0 -95.5 56.5t0.5 110.5t95 50l353 -20v632 l-353 -20q-66 -4 -93 50t-0.5 109.5t93.5 55.5h459q45 0 76 -30.5t31 -75.5l2 -721l239 20q68 6 95.5 -48t0 -111.5t-95.5 -57.5h-807z" glyph-name="idieresis" unicode="ï"/><glyph d="M715 -10q-223 0 -361.5 140t-138.5 366q0 223 138.5 363t361.5 140q80 0 160.5 -28.5t125.5 -77.5q-6 41 -26.5 102.5t-40.5 83.5l-21 -20q-29 -29 -65.5 -34t-66 12.5t-49 45t-16.5 62.5t34 65l26 27l-82 59q-43 31 -36.5 87.5t53.5 82t123 -3.5q70 -39 90 -65l28 33 q27 31 64 35.5t65.5 -12.5t49 -45t18.5 -64.5t-33 -67.5l-26 -27q125 -170 124 -446l3 -307q0 -223 -139.5 -364.5t-362.5 -141.5zM715 213q133 0 205.5 77t72.5 206q0 131 -72.5 205.5t-205.5 74.5t-205 -76.5t-72 -203.5q0 -41 9.5 -82t35 -90.5t85 -80t147.5 -30.5z" glyph-name="eth" unicode="ð"/><glyph d="M367 1323q27 74 85 115t138 41q59 0 128.5 -46.5t108.5 -46.5q43 0 66 41q27 49 76 52.5t80.5 -32.5t17.5 -83q-23 -74 -73 -116t-122 -42q-57 0 -129.5 45t-117.5 45q-59 0 -82 -41q-29 -49 -79 -53t-82.5 33t-14.5 88zM231 109v608q0 76 -45 137q-25 33 -24.5 67.5 t23 59.5t51 39t63.5 5t57 -42q20 -25 37 -55q125 113 336 112q221 0 360.5 -144t139.5 -366v-421q0 -68 -53.5 -94.5t-107.5 2t-54 92.5v421q0 131 -77 213t-206 82q-133 0 -209 -83t-76 -214v-419q0 -68 -53 -95.5t-107.5 0t-54.5 95.5z" glyph-name="ntilde" unicode="ñ"/><glyph d="M639 1245l-66 141q-41 90 19 138q51 39 106 4q31 -18 43 -58l50 -147q20 -61 -9.5 -97t-76 -30t-66.5 49zM717 -10q-254 0 -408.5 145.5t-154.5 376.5t156.5 376.5t406.5 145.5q252 0 407.5 -146.5t155.5 -375.5q0 -231 -156.5 -376.5t-406.5 -145.5zM717 205 q164 0 256 84t92 223q0 143 -92 225t-256 82t-256 -83t-92 -224q0 -143 92 -225t256 -82z" glyph-name="ograve" unicode="ò"/><glyph d="M807 1243q-20 -43 -66.5 -49t-76 30t-9.5 97l50 147q23 72 92 72q61 0 84 -55q18 -43 -9 -101zM717 -10q-254 0 -408.5 145.5t-154.5 376.5t156.5 376.5t406.5 145.5q252 0 407.5 -146.5t155.5 -375.5q0 -231 -156.5 -376.5t-406.5 -145.5zM717 205q164 0 256 84t92 223 q0 143 -92 225t-256 82t-256 -83t-92 -224q0 -143 92 -225t256 -82z" glyph-name="oacute" unicode="ó"/><glyph d="M459 1335q29 14 94 54.5t101 58.5t53 18h22q8 0 26.5 -7t45 -22.5t52.5 -29.5t61.5 -34.5t58.5 -33.5q68 -39 43 -112q-18 -57 -72 -68q-33 -6 -65 19l-160 125l-164 -129q-45 -35 -94 -6.5t-51 79.5t49 88zM717 -10q-254 0 -408.5 145.5t-154.5 376.5t156.5 376.5 t406.5 145.5q252 0 407.5 -146.5t155.5 -375.5q0 -231 -156.5 -376.5t-406.5 -145.5zM717 205q164 0 256 84t92 223q0 143 -92 225t-256 82t-256 -83t-92 -224q0 -143 92 -225t256 -82z" glyph-name="ocircumflex" unicode="ô"/><glyph d="M367 1319q27 74 85 115t138 41q59 0 128.5 -46.5t108.5 -46.5q43 0 66 41q27 49 76 52.5t80.5 -32.5t17.5 -83q-23 -74 -73 -116t-122 -42q-57 0 -129.5 45t-117.5 45q-59 0 -82 -41q-29 -49 -79 -53t-82.5 33t-14.5 88zM717 -10q-254 0 -408.5 145.5t-154.5 376.5 t156.5 376.5t406.5 145.5q252 0 407.5 -146.5t155.5 -375.5q0 -231 -156.5 -376.5t-406.5 -145.5zM717 205q164 0 256 84t92 223q0 143 -92 225t-256 82t-256 -83t-92 -224q0 -143 92 -225t256 -82z" glyph-name="otilde" unicode="õ"/><glyph d="M502 1194q-70 0 -117 41t-47 106q0 68 46 107t118 39q70 0 117 -39t47 -107q0 -66 -48 -106.5t-116 -40.5zM932 1194q-70 0 -117 41t-47 106q0 68 46 107t118 39q70 0 117 -39t47 -107q0 -66 -48 -106.5t-116 -40.5zM717 -10q-254 0 -408.5 145.5t-154.5 376.5 t156.5 376.5t406.5 145.5q252 0 407.5 -146.5t155.5 -375.5q0 -231 -156.5 -376.5t-406.5 -145.5zM717 205q164 0 256 84t92 223q0 143 -92 225t-256 82t-256 -83t-92 -224q0 -143 92 -225t256 -82z" glyph-name="odieresis" unicode="ö"/><glyph d="M606 739q-70 0 -117 41t-47 107q0 68 46.5 106.5t117.5 38.5q70 0 117 -39t47 -106q0 -66 -48 -107t-116 -41zM221 637h787q61 0 85.5 -49t-1 -98.5t-84.5 -49.5h-787q-59 0 -84.5 49.5t-1 98.5t85.5 49zM606 45q-70 0 -117 41t-47 107q0 68 46.5 106.5t117.5 38.5 q70 0 117 -39t47 -106q0 -66 -48 -107t-116 -41z" glyph-name="divide" unicode="÷"/><glyph d="M1124 887q156 -145 156 -375q0 -231 -156.5 -376.5t-406.5 -145.5q-156 0 -273 55l-45 -57q-47 -59 -108 -37q-51 18 -41 69q2 20 20 43l49 62q-166 143 -165 387q0 231 156.5 376.5t406.5 145.5q154 0 280 -61l50 61q53 68 116 49q51 -16 45 -69q-4 -29 -28 -60z M369 512q0 -137 86 -219l403 506q-59 20 -141 20q-164 0 -256 -83t-92 -224zM717 205q164 0 256 84t92 223q0 125 -74 209l-403 -500q61 -16 129 -16z" glyph-name="oslash" unicode="ø"/><glyph d="M606 1233l-65 141q-41 90 18 137q51 39 107 5q31 -18 43 -58l49 -147q20 -61 -9.5 -97t-76 -30t-66.5 49zM1159 920v-609q0 -76 45 -137q25 -33 25 -67.5t-22.5 -59t-51.5 -39t-63.5 -5.5t-57.5 42q-23 25 -37 55q-125 -113 -315 -112q-219 0 -349 143t-130 367v422 q0 68 54 94t107.5 -2.5t53.5 -91.5v-422q0 -135 67.5 -215t194.5 -80q131 0 197.5 81t66.5 216v420q0 51 34 79.5t74 27.5t73.5 -29.5t33.5 -77.5z" glyph-name="ugrave" unicode="ù"/><glyph d="M715 1241q-20 -43 -66.5 -49t-76 29.5t-9.5 97.5l49 147q23 72 93 72q61 0 83 -55q18 -43 -8 -101zM1159 920v-609q0 -76 45 -137q25 -33 25 -67.5t-22.5 -59t-51.5 -39t-63.5 -5.5t-57.5 42q-23 25 -37 55q-125 -113 -315 -112q-219 0 -349 143t-130 367v422q0 68 54 94 t107.5 -2.5t53.5 -91.5v-422q0 -135 67.5 -215t194.5 -80q131 0 197.5 81t66.5 216v420q0 51 34 79.5t74 27.5t73.5 -29.5t33.5 -77.5z" glyph-name="uacute" unicode="ú"/><glyph d="M416 1331q29 14 94 54t101 58.5t53 18.5h22q8 0 26.5 -7t45 -22.5t52.5 -29.5t61.5 -34.5t58.5 -33.5q68 -39 43 -112q-18 -57 -72 -68q-33 -6 -65 19l-160 124l-164 -129q-45 -35 -94 -6t-51 80t49 88zM1159 920v-609q0 -76 45 -137q25 -33 25 -67.5t-22.5 -59 t-51.5 -39t-63.5 -5.5t-57.5 42q-23 25 -37 55q-125 -113 -315 -112q-219 0 -349 143t-130 367v422q0 68 54 94t107.5 -2.5t53.5 -91.5v-422q0 -135 67.5 -215t194.5 -80q131 0 197.5 81t66.5 216v420q0 51 34 79.5t74 27.5t73.5 -29.5t33.5 -77.5z" glyph-name="ucircumflex" unicode="û"/><glyph d="M465 1184q-70 0 -117 41t-47 106q0 68 46 107t118 39q70 0 117 -39t47 -107q0 -66 -48 -106.5t-116 -40.5zM895 1184q-70 0 -117 41t-47 106q0 68 46 107t118 39q70 0 117 -39t47 -107q0 -66 -48 -106.5t-116 -40.5zM1159 920v-609q0 -76 45 -137q25 -33 25 -67.5 t-22.5 -59t-51.5 -39t-63.5 -5.5t-57.5 42q-23 25 -37 55q-125 -113 -315 -112q-219 0 -349 143t-130 367v422q0 68 54 94t107.5 -2.5t53.5 -91.5v-422q0 -135 67.5 -215t194.5 -80q131 0 197.5 81t66.5 216v420q0 51 34 79.5t74 27.5t73.5 -29.5t33.5 -77.5z" glyph-name="udieresis" unicode="ü"/><glyph d="M838 1239q-20 -43 -66.5 -49t-76 29.5t-9.5 97.5l49 147q23 72 92 72q61 0 84 -55q18 -43 -8 -101zM84 -332q-39 59 -6 114.5t90 58.5t102 -50q41 -61 128 -71.5t126 51.5l107 241l-400 850q-29 63 9.5 112.5t100.5 48.5t93 -65l320 -682l319 685q29 63 92.5 65 t102.5 -48t8 -114l-553 -1196q-63 -117 -189 -156.5t-253 4t-197 152.5z" glyph-name="yacute" unicode="ý"/><glyph d="M231 -387v1759q0 70 55.5 99.5t111 0t55.5 -99.5v-454q90 111 258 110q221 0 349 -145.5t128 -372.5t-131 -373.5t-346 -146.5q-152 0 -265 73v-450q0 -66 -53 -93.5t-107.5 -1t-54.5 94.5zM711 205q129 0 195.5 84t66.5 221q0 139 -66.5 221t-195.5 82t-195.5 -84 t-66.5 -219q0 -141 67.5 -223t194.5 -82z" glyph-name="thorn" unicode="þ"/><glyph d="M588 1192q-70 0 -117 41t-47 106q0 68 46 107t118 39q70 0 117 -39t47 -107q0 -66 -48 -106.5t-116 -40.5zM1018 1192q-70 0 -117 41t-47 106q0 68 46 107t118 39q70 0 117 -39t47 -107q0 -66 -48 -106.5t-116 -40.5zM84 -332q-39 59 -6 114.5t90 58.5t102 -50 q41 -61 128 -71.5t126 51.5l107 241l-400 850q-29 63 9.5 112.5t100.5 48.5t93 -65l320 -682l319 685q29 63 92.5 65t102.5 -48t8 -114l-553 -1196q-63 -117 -189 -156.5t-253 4t-197 152.5z" glyph-name="ydieresis" unicode="ÿ"/><glyph d="M539 1735h354q47 0 72.5 -31t25.5 -69t-26.5 -68.5t-71.5 -30.5h-354q-45 0 -72 30.5t-27 68.5t26 69t73 31zM344 66q-25 -68 -88 -71t-105 49t-16 118l471 1192q16 47 62.5 67.5t93.5 2t63 -69.5l469 -1192q27 -66 -15 -117t-104.5 -48t-87.5 69l-94 247h-557zM504 545 h424l-213 545z" glyph-name="Amacron" unicode="Ā"/><glyph d="M539 1354h354q47 0 72.5 -31t25.5 -68.5t-26.5 -68.5t-71.5 -31h-354q-45 0 -72 31t-27 68.5t26 68.5t73 31zM680 -8q-207 0 -342 90t-135 252q0 164 136 249t341 85q70 0 127 -21.5t80.5 -41t56.5 -52.5q0 270 -258 270q-100 0 -162 -45q-45 -33 -103.5 -12.5t-74.5 67 t27 97.5q45 49 135 75.5t178 26.5q219 0 346 -122t127 -324v-277q0 -78 47 -137q25 -33 25 -67.5t-22.5 -58t-52.5 -37t-64.5 -5.5t-59.5 39q-20 29 -31 45q-133 -96 -321 -96zM680 207q92 0 176 34.5t84 94.5q-4 61 -81 92t-179 31q-106 0 -184 -32t-78 -93q0 -63 79 -95 t183 -32z" glyph-name="amacron" unicode="ā"/><glyph d="M721 1536q-96 0 -171 58.5t-97 148.5q-12 41 30.5 68.5t100 18.5t75.5 -58q18 -47 60.5 -47.5t62.5 47.5q31 70 115 63q70 -6 90 -53q8 -18 2 -39q-23 -90 -97.5 -148.5t-170.5 -58.5zM344 66q-25 -68 -88 -71t-105 49t-16 118l471 1192q16 47 62.5 67.5t93.5 2t63 -69.5 l469 -1192q27 -66 -15 -117t-104.5 -48t-87.5 69l-94 247h-557zM504 545h424l-213 545z" glyph-name="Abreve" unicode="Ă"/><glyph d="M733 1264q-96 0 -171 58t-97 148q-12 41 31 69t100 18.5t76 -58.5q18 -47 60 -47t63 47q31 70 114 64q70 -6 90 -54q8 -18 2 -39q-23 -90 -97.5 -148t-170.5 -58zM680 -8q-207 0 -342 90t-135 252q0 164 136 249t341 85q70 0 127 -21.5t80.5 -41t56.5 -52.5 q0 270 -258 270q-100 0 -162 -45q-45 -33 -103.5 -12.5t-74.5 67t27 97.5q45 49 135 75.5t178 26.5q219 0 346 -122t127 -324v-277q0 -78 47 -137q25 -33 25 -67.5t-22.5 -58t-52.5 -37t-64.5 -5.5t-59.5 39q-20 29 -31 45q-133 -96 -321 -96zM680 207q92 0 176 34.5 t84 94.5q-4 61 -81 92t-179 31q-106 0 -184 -32t-78 -93q0 -63 79 -95t183 -32z" glyph-name="abreve" unicode="ă"/><glyph d="M1290.5 -139.5q24.5 26.5 62.5 11.5t51 -51t-13 -77q-61 -76 -174 -62.5t-175 99.5q-51 78 -50 160t48 143l-88 229h-557l-92 -247q-25 -68 -88 -71t-105 49t-16 118l471 1192q16 47 62.5 67.5t93.5 2t63 -69.5l469 -1192q20 -53 -4 -101h2l-6 -4q-8 -16 -26 -30 q-25 -33 -35 -75t2 -69q16 -33 48 -41t56.5 18.5zM463 545h424l-213 545z" glyph-name="Aogonek" unicode="Ą"/><glyph d="M1255.5 -145.5q24.5 26.5 62.5 11t51 -51t-13 -76.5q-61 -76 -174 -62.5t-174 99.5q-53 80 -51.5 161.5t49.5 143.5q0 4 -5 8q-133 -96 -321 -96q-207 0 -342 90t-135 252q0 164 136 249t341 85q70 0 127 -21.5t80.5 -41t56.5 -52.5q0 270 -258 270q-100 0 -162 -45 q-45 -33 -103.5 -12.5t-74.5 67t27 97.5q45 49 135 75.5t178 26.5q219 0 346 -122t127 -324v-277q0 -78 47 -137q45 -57 8 -117h3l-3 -2h-2q-8 -14 -26 -28q-25 -35 -36 -77t1 -71q16 -33 48 -41t56.5 18.5zM680 207q92 0 176 34.5t84 94.5q-4 61 -81 92t-179 31 q-106 0 -184 -32t-78 -93q0 -63 79 -95t183 -32z" glyph-name="aogonek" unicode="ą"/><glyph d="M879 1593q-20 -43 -66.5 -49t-76 30t-9.5 97l49 148q23 72 92 71q61 0 84 -55q18 -43 -8 -100zM737 -10q-279 0 -436.5 205.5t-157.5 521.5q0 317 160 522t434 205q281 0 443 -215q25 -35 24.5 -71t-24 -61.5t-53 -39t-64.5 -5t-59 41.5q-98 127 -267 127 q-184 0 -277 -142.5t-93 -361.5q0 -223 93 -363.5t277 -140.5q172 0 267 129q41 55 105.5 43t87 -64.5t-14.5 -111.5q-78 -104 -194 -161.5t-251 -57.5z" glyph-name="Cacute" unicode="Ć"/><glyph d="M877 1247q-20 -43 -66.5 -49t-76 30t-9.5 97l49 148q23 72 92 71q61 0 84 -55q18 -43 -8 -100zM776 -10q-254 0 -413.5 141t-159.5 381q0 236 159.5 378t413.5 142q258 0 414 -143q31 -27 36 -61.5t-11.5 -62.5t-42 -47.5t-61.5 -16t-67 29.5q-96 86 -268 86 q-160 0 -259 -77.5t-99 -227.5q0 -147 95 -227t263 -80q172 0 271 88q47 45 105 23.5t71.5 -75t-31.5 -106.5q-158 -145 -416 -145z" glyph-name="cacute" unicode="ć"/><glyph d="M778 1536q-70 0 -117 41t-47 106q0 68 46.5 107t117.5 39q70 0 117 -39t47 -107q0 -66 -48 -106.5t-116 -40.5zM778 -10q-279 0 -436.5 205.5t-157.5 521.5q0 317 160 522t434 205q281 0 443 -215q25 -35 24.5 -71t-24 -61.5t-53 -39t-64.5 -5t-60 41.5q-98 127 -266 127 q-184 0 -277 -142.5t-93 -361.5q0 -223 93 -363.5t277 -140.5q172 0 266 129q41 55 105.5 43t87.5 -64.5t-14 -111.5q-78 -104 -194 -161.5t-251 -57.5z" glyph-name="Cdotaccent" unicode="Ċ"/><glyph d="M655 1169q-70 0 -116.5 41t-46.5 107q0 68 46 106.5t117 38.5q70 0 117 -39t47 -106q0 -66 -48 -107t-116 -41zM676 -10q-254 0 -414 141t-160 381q0 236 160 378t414 142q258 0 414 -143q31 -27 35.5 -61.5t-11.5 -62.5t-41.5 -47.5t-61.5 -16t-67 29.5q-96 86 -268 86 q-160 0 -259.5 -77.5t-99.5 -227.5q0 -147 95.5 -227t263.5 -80q172 0 270 88q47 45 105.5 23.5t72 -75t-31.5 -106.5q-158 -145 -416 -145z" glyph-name="cdotaccent" horiz-adv-x="1228" unicode="ċ"/><glyph d="M766 1538q-29 0 -203 96q-59 33 -53 90.5t53 79t96 -7.5l115 -90l115 90q59 47 112 -4q47 -47 29 -104q-12 -35 -47 -54q-174 -96 -203 -96h-14zM737 -10q-279 0 -436.5 205.5t-157.5 521.5q0 317 160 522t434 205q281 0 443 -215q25 -35 24.5 -71t-24 -61.5t-53 -39 t-64.5 -5t-59 41.5q-98 127 -267 127q-184 0 -277 -142.5t-93 -361.5q0 -223 93 -363.5t277 -140.5q172 0 267 129q41 55 105.5 43t87 -64.5t-14.5 -111.5q-78 -104 -194 -161.5t-251 -57.5z" glyph-name="Ccaron" unicode="Č"/><glyph d="M709 1194q-29 0 -203 96q-59 33 -53 90.5t53 79t96 -7.5l115 -90l114 90q59 47 113 -4q47 -47 29 -105q-12 -35 -47 -53q-174 -96 -203 -96h-14zM776 -10q-254 0 -413.5 141t-159.5 381q0 236 159.5 378t413.5 142q258 0 414 -143q31 -27 36 -61.5t-11.5 -62.5t-42 -47.5 t-61.5 -16t-67 29.5q-96 86 -268 86q-160 0 -259 -77.5t-99 -227.5q0 -147 95 -227t263 -80q172 0 271 88q47 45 105 23.5t71.5 -75t-31.5 -106.5q-158 -145 -416 -145z" glyph-name="ccaron" unicode="č"/><glyph d="M403 1634q-59 33 -53 90.5t53.5 79t96.5 -7.5l114 -90l115 90q59 47 113 -4q47 -47 28 -104q-12 -35 -47 -54q-174 -96 -202 -96h-15q-29 0 -203 96zM674 1434q293 0 443.5 -192.5t150.5 -524.5t-153.5 -524.5t-440.5 -192.5h-420q-45 0 -78 33t-33 78v1212q0 45 33 78 t78 33h420zM674 223q371 0 370 494q0 242 -88 367.5t-282 125.5h-307v-987h307z" glyph-name="Dcaron" unicode="Ď"/><glyph d="M1241 1225l-18 297q-2 51 51 72.5t106.5 0t51.5 -72.5l-19 -295q-2 -47 -44 -65.5t-84 0t-44 63.5zM618 -6q-225 0 -351 145.5t-126 382.5q0 221 130 364.5t347 143.5q152 0 267 -74v476q0 68 53 94t107.5 -1.5t54.5 -92.5v-1125q0 -80 45 -137q39 -53 11 -107.5 t-83 -61.5t-100 40q-27 37 -39 65q-119 -112 -316 -112zM618 207q131 0 197 85t66 230q0 133 -66.5 213t-196 80t-197 -79t-67.5 -214q0 -145 64.5 -230t199.5 -85z" glyph-name="dcaron" unicode="ď"/><glyph d="M674 1434q293 0 443.5 -192.5t150.5 -524.5t-153.5 -524.5t-440.5 -192.5h-420q-45 0 -78 33t-33 78v507h-239q-59 0 -85 49.5t-1.5 98.5t86.5 49h239v508q0 45 33 78t78 33h420zM674 223q371 0 370 494q0 242 -88 367.5t-282 125.5h-307v-395h262q61 0 85.5 -49 t-1 -98.5t-84.5 -49.5h-262v-395h307z" glyph-name="Dcroat" unicode="Đ"/><glyph d="M1317 1341q61 0 85.5 -49t-1 -98t-84.5 -49h-156v-838q0 -80 45 -137q39 -53 11.5 -107.5t-83 -61.5t-100.5 40q-27 37 -39 65q-119 -113 -315 -112q-225 0 -351 145.5t-126 382.5q0 221 130 364.5t347 143.5q152 0 266 -74v189h-354q-59 0 -85 49t-1.5 98t86.5 49h354 v91q0 68 53.5 94t107.5 -1.5t54 -92.5v-91h156zM680 207q131 0 196.5 85t65.5 230q0 133 -66.5 213t-195.5 80t-196.5 -79t-67.5 -214q0 -145 64.5 -230t199.5 -85z" glyph-name="dcroat" unicode="đ"/><glyph d="M541 1735h354q47 0 72.5 -31t25.5 -69t-26.5 -68.5t-71.5 -30.5h-354q-45 0 -72 30.5t-27 68.5t26 69t73 31zM336 0q-53 0 -92 38t-39 91v1176q0 53 39 91t92 38h778q47 0 81 -34t34 -81t-34 -81t-81 -34h-680v-373h481q47 0 81 -33.5t34 -80.5t-33.5 -81t-81.5 -34h-481 v-373h680q47 0 81 -33.5t34 -80.5t-34 -81t-81 -34h-778z" glyph-name="Emacron" unicode="Ē"/><glyph d="M541 1397h354q61 0 87 -49.5t0 -99.5t-87 -50h-354q-61 0 -87 50t0 99.5t87 49.5zM717 -10q-233 0 -372.5 146.5t-139.5 375.5q0 233 140 376.5t372 143.5q236 0 374 -132t138 -353q0 -45 -32 -77t-77 -32h-694q20 -115 96 -174t195 -59q225 0 299 117q33 39 87 37.5 t91 -46.5t8 -98q-127 -225 -485 -225zM426 612h571q-55 205 -280 205q-100 0 -177 -53.5t-114 -151.5z" glyph-name="emacron" unicode="ē"/><glyph d="M717 1536q-70 0 -117 41t-47 106q0 68 46 107t118 39q70 0 117 -39t47 -107q0 -66 -48 -106.5t-116 -40.5zM336 0q-53 0 -92 38t-39 91v1176q0 53 39 91t92 38h778q47 0 81 -34t34 -81t-34 -81t-81 -34h-680v-373h481q47 0 81 -33.5t34 -80.5t-33.5 -81t-81.5 -34h-481 v-373h680q47 0 81 -33.5t34 -80.5t-34 -81t-81 -34h-778z" glyph-name="Edotaccent" unicode="Ė"/><glyph d="M717 1208q-70 0 -117 41t-47 107q0 68 46 106.5t118 38.5q70 0 117 -39t47 -106q0 -66 -48 -107t-116 -41zM717 -10q-233 0 -372.5 146.5t-139.5 375.5q0 233 140 376.5t372 143.5q236 0 374 -132t138 -353q0 -45 -32 -77t-77 -32h-694q20 -115 96 -174t195 -59 q225 0 299 117q33 39 87 37.5t91 -46.5t8 -98q-127 -225 -485 -225zM426 612h571q-55 205 -280 205q-100 0 -177 -53.5t-114 -151.5z" glyph-name="edotaccent" unicode="ė"/><glyph d="M1149 -200.5q25 26.5 62.5 11t51 -51t-13.5 -76.5q-61 -76 -173.5 -63t-174.5 99q-47 68 -51 146t33 135h-547q-53 0 -92 38t-39 91v1176q0 53 39 91t92 38h778q47 0 81 -34t34 -81t-34 -81t-81 -34h-680v-373h481q47 0 81 -33.5t34 -80.5t-33.5 -81t-81.5 -34h-481v-373 h680q47 0 81 -33.5t34 -80.5t-34 -81t-81 -34h-4q-37 -23 -59.5 -84t-6 -94t48 -41t56.5 18.5z" glyph-name="Eogonek" unicode="Ę"/><glyph d="M1146.5 -98.5q24.5 26.5 62.5 11.5t51.5 -51t-13.5 -77q-61 -76 -173.5 -62.5t-174.5 99.5q-57 82 -51 176q-55 -8 -131 -8q-233 0 -372.5 146.5t-139.5 375.5q0 233 140 376.5t372 143.5q236 0 374 -132t138 -353q0 -45 -32 -77t-77 -32h-694q20 -115 96 -174t195 -59 q225 0 299 117q33 39 87 37.5t91 -46.5t8 -98q-39 -72 -110 -127q-31 -31 -47.5 -83t-2.5 -81q16 -33 48 -41t56.5 18.5zM717 817q-100 0 -177 -53t-114 -152h571q-55 205 -280 205z" glyph-name="eogonek" unicode="ę"/><glyph d="M711 1538q-29 0 -203 96q-59 33 -53 90.5t53 79t96 -7.5l115 -90l115 90q59 47 112 -4q47 -47 29 -104q-12 -35 -47 -54q-174 -96 -203 -96h-14zM336 0q-53 0 -92 38t-39 91v1176q0 53 39 91t92 38h778q47 0 81 -34t34 -81t-34 -81t-81 -34h-680v-373h481q47 0 81 -33.5 t34 -80.5t-33.5 -81t-81.5 -34h-481v-373h680q47 0 81 -33.5t34 -80.5t-34 -81t-81 -34h-778z" glyph-name="Ecaron" unicode="Ě"/><glyph d="M741 1196q-29 0 -202 96q-59 33 -53 90.5t53 79t96 -7.5l115 -90l114 90q59 47 113 -4q47 -47 29 -104q-12 -35 -48 -54q-174 -96 -202 -96h-15zM717 -10q-233 0 -372.5 146.5t-139.5 375.5q0 233 140 376.5t372 143.5q236 0 374 -132t138 -353q0 -45 -32 -77t-77 -32 h-694q20 -115 96 -174t195 -59q225 0 299 117q33 39 87 37.5t91 -46.5t8 -98q-127 -225 -485 -225zM426 612h571q-55 205 -280 205q-100 0 -177 -53.5t-114 -151.5z" glyph-name="ecaron" unicode="ě"/><glyph d="M776 1536q-96 0 -171 58.5t-97 148.5q-12 41 31 68.5t100 18.5t76 -58q18 -47 60 -47.5t63 47.5q31 70 114 63q70 -6 90 -53q8 -18 2 -39q-23 -90 -97.5 -148.5t-170.5 -58.5zM786 -10q-301 0 -475 202.5t-174 524t176 524.5t475 203q301 0 482 -211q27 -31 27.5 -67 t-20 -60.5t-48 -40.5t-62 -10t-61.5 37q-115 135 -318 135q-209 0 -321.5 -140.5t-112.5 -370t110.5 -369.5t321.5 -140q178 0 291 108v293h-358q-68 0 -95.5 54.5t0 108.5t95.5 54h467q45 0 76.5 -32.5t31.5 -77.5v-443q0 -41 -26 -69q-179 -213 -482 -213z" glyph-name="Gbreve" unicode="Ğ"/><glyph d="M686 1167q-96 0 -171 58.5t-97 148.5q-12 41 31 68.5t100 18.5t76 -58q18 -47 60 -47t63 47q31 70 114 63q70 -6 90 -53q8 -18 2 -39q-23 -90 -97.5 -148.5t-170.5 -58.5zM664 -571q-188 0 -324.5 95t-136.5 247q0 51 34.5 80.5t76.5 29.5t77 -29.5t35 -80.5 q0 -47 71.5 -83t166.5 -36q125 0 203.5 60.5t78.5 172.5v174q-109 -72 -264 -71q-215 0 -346 146.5t-131 373.5t128 372.5t349 145.5q195 0 313 -111q20 39 41 64q39 53 99.5 42t83 -62.5t-10.5 -108.5q-33 -41 -41 -90l2 -875q0 -207 -145 -331.5t-360 -124.5zM682 203 q125 0 193.5 81t68.5 224q0 158 -62.5 230.5t-199.5 72.5q-129 0 -195.5 -82t-66.5 -221q0 -137 66.5 -221t195.5 -84z" glyph-name="gbreve" unicode="ğ"/><glyph d="M776 1536q-70 0 -117 41t-47 106q0 68 46.5 107t117.5 39q70 0 117 -39t47 -107q0 -66 -48 -106.5t-116 -40.5zM786 -10q-301 0 -475 202.5t-174 524t176 524.5t475 203q301 0 482 -211q27 -31 27.5 -67t-20 -60.5t-48 -40.5t-62 -10t-61.5 37q-115 135 -318 135 q-209 0 -321.5 -140.5t-112.5 -370t110.5 -369.5t321.5 -140q178 0 291 108v293h-358q-68 0 -95.5 54.5t0 108.5t95.5 54h467q45 0 76.5 -32.5t31.5 -77.5v-443q0 -41 -26 -69q-179 -213 -482 -213z" glyph-name="Gdotaccent" unicode="Ġ"/><glyph d="M676 1188q-70 0 -117 41t-47 106q0 68 46 107t118 39q70 0 117 -39t47 -107q0 -66 -48 -106.5t-116 -40.5zM664 -571q-188 0 -324.5 95t-136.5 247q0 51 34.5 80.5t76.5 29.5t77 -29.5t35 -80.5q0 -47 71.5 -83t166.5 -36q125 0 203.5 60.5t78.5 172.5v174 q-109 -72 -264 -71q-215 0 -346 146.5t-131 373.5t128 372.5t349 145.5q195 0 313 -111q20 39 41 64q39 53 99.5 42t83 -62.5t-10.5 -108.5q-33 -41 -41 -90l2 -875q0 -207 -145 -331.5t-360 -124.5zM682 203q125 0 193.5 81t68.5 224q0 158 -62.5 230.5t-199.5 72.5 q-129 0 -195.5 -82t-66.5 -221q0 -137 66.5 -221t195.5 -84z" glyph-name="gdotaccent" unicode="ġ"/><glyph d="M1186 825q45 0 76.5 -32.5t31.5 -77.5v-443q0 -41 -26 -69q-178 -213 -482 -213q-301 0 -475 202.5t-174 524t176 524.5t475 203q301 0 482 -211q27 -31 27.5 -67t-20 -60.5t-48 -40.5t-62 -10t-61.5 37q-115 135 -318 135q-209 0 -321.5 -140.5t-112.5 -370 t110.5 -369.5t321.5 -140q178 0 291 108v293h-358q-68 0 -95.5 54.5t0 108.5t95.5 54h467zM760 -156q49 0 83 -28.5t34 -75.5q4 -113 -35 -174q-47 -68 -135 -78q-33 -2 -37 30.5t32 41.5q59 12 72 78h-14q-49 0 -82 27.5t-33 74.5t34 75.5t81 28.5z" glyph-name="Gcommaaccent" unicode="Ģ"/><glyph d="M1036 979q39 53 99.5 42t83 -62.5t-10.5 -108.5q-33 -41 -41 -90l2 -875q0 -176 -106.5 -293.5t-276.5 -150.5q14 -37 15 -66q6 -160 -49 -245q-68 -96 -191 -111q-29 -2 -44 20.5t-6 48t42 33.5q88 18 102 109h-18q-70 0 -117 39t-47 106q0 41 21 76q-129 37 -210 121 t-81 199q0 51 34.5 80.5t76.5 29.5t77 -29.5t35 -80.5q0 -47 71.5 -83t166.5 -36q125 0 203.5 60.5t78.5 172.5v174q-109 -72 -264 -71q-215 0 -346 146.5t-131 373.5t128 372.5t349 145.5q195 0 313 -111q21 39 41 64zM682 203q125 0 193.5 81t68.5 224q0 158 -62.5 230.5 t-199.5 72.5q-129 0 -195.5 -82t-66.5 -221q0 -137 66.5 -221t195.5 -84z" glyph-name="gcommaaccent" unicode="ģ"/><glyph d="M1335 1235q61 0 86 -49t-0.5 -98.5t-85.5 -49.5h-106v-923q0 -72 -57.5 -101.5t-115 0t-57.5 101.5v487h-565v-487q0 -72 -57.5 -101.5t-114.5 0t-57 101.5v923h-109q-59 0 -84.5 49.5t-1 98.5t85.5 49h109v84q0 72 57 101.5t114.5 0t57.5 -101.5v-84h565v84 q0 72 57.5 101.5t115 0t57.5 -101.5v-84h106zM999 831v207h-565v-207h565z" glyph-name="Hbar" unicode="Ħ"/><glyph d="M838 1038q219 0 349 -143t130 -367v-422q0 -68 -54.5 -94t-107.5 2.5t-53 91.5v422q0 135 -67.5 215t-194.5 80q-123 0 -190.5 -73.5t-74.5 -196.5l3 -444q0 -68 -54.5 -95.5t-109 0t-54.5 95.5l2 1048h-262q-59 0 -84.5 49t-1 98.5t85.5 49.5h262v80q0 63 52.5 90.5 t105.5 1t53 -91.5v-80h252q61 0 86 -49.5t-0.5 -98.5t-85.5 -49h-250v-252q83 133 263 133z" glyph-name="hbar" unicode="ħ"/><glyph d="M541 1735h354q47 0 72.5 -31t25.5 -69t-26.5 -68.5t-71.5 -30.5h-354q-45 0 -72 30.5t-27 68.5t26 69t73 31zM319 0q-47 0 -80.5 34t-33.5 81q0 49 33.5 82.5t80.5 31.5l283 -20v1016l-283 -21q-47 -2 -80.5 32t-33.5 83q0 47 33.5 81t80.5 34h795q47 0 81 -34t34 -81 q0 -49 -34 -83t-81 -32l-283 21v-1016l283 20q47 2 81 -31.5t34 -82.5q0 -47 -34 -81t-81 -34h-795z" glyph-name="Imacron" unicode="Ī"/><glyph d="M541 1430h354q61 0 87 -49.5t0 -99.5t-87 -50h-354q-61 0 -87 50t0 99.5t87 49.5zM313 0q-68 0 -95.5 56.5t0.5 110.5t95 50l353 -20v632l-353 -20q-66 -4 -93 50t-0.5 109.5t93.5 55.5h459q45 0 76 -30.5t31 -75.5l2 -721l239 20q68 6 95.5 -48t0 -111.5t-95.5 -57.5 h-807z" glyph-name="imacron" unicode="ī"/><glyph d="M1114 229q47 0 81 -33.5t34 -80.5t-34 -81t-81 -34h-283q-37 -23 -59 -84t-6 -94t48 -41t56.5 18.5t62.5 11t51 -51t-13 -76.5q-61 -76 -174 -63t-174 99q-47 68 -51.5 146t32.5 135h-285q-47 0 -80.5 34t-33.5 81t33.5 80.5t80.5 33.5h283v975h-283q-47 0 -80.5 34 t-33.5 81t33.5 81t80.5 34h795q47 0 81 -34t34 -81t-34 -81t-81 -34h-283v-975h283z" glyph-name="Iogonek" unicode="Į"/><glyph d="M739 1270q-70 0 -117 41t-47 106q0 68 46.5 107t117.5 39q70 0 117 -39t47 -107q0 -66 -48 -106.5t-116 -40.5zM1120 217q68 6 95.5 -48t0 -111.5t-95.5 -57.5h-250q-37 -25 -58 -84t-5 -92t48 -41t56.5 18.5t62.5 11t51 -51t-13 -76.5q-61 -76 -174 -63t-174 99 q-47 66 -51.5 145t30.5 134h-330q-68 0 -95.5 56.5t0.5 110.5t95 50l353 -20v632l-353 -20q-66 -4 -93 50t-0.5 109.5t93.5 55.5h459q45 0 76 -30.5t31 -75.5l2 -721z" glyph-name="iogonek" unicode="į"/><glyph d="M717 1536q-70 0 -117 41t-47 106q0 68 46 107t118 39q70 0 117 -39t47 -107q0 -66 -48 -106.5t-116 -40.5zM319 0q-47 0 -80.5 34t-33.5 81q0 49 33.5 82.5t80.5 31.5l283 -20v1016l-283 -21q-47 -2 -80.5 32t-33.5 83q0 47 33.5 81t80.5 34h795q47 0 81 -34t34 -81 q0 -49 -34 -83t-81 -32l-283 21v-1016l283 20q47 2 81 -31.5t34 -82.5q0 -47 -34 -81t-81 -34h-795z" glyph-name="Idotaccent" unicode="İ"/><glyph d="M313 0q-68 0 -95.5 56.5t0.5 110.5t95 50l353 -20v632l-353 -20q-66 -4 -93 50t-0.5 109.5t93.5 55.5h459q45 0 76 -30.5t31 -75.5l2 -721l239 20q68 6 95.5 -48t0 -111.5t-95.5 -57.5h-807z" glyph-name="dotlessi" unicode="ı"/><glyph d="M752 805l450 -610q55 -76 2 -152q-45 -61 -108 -49q-33 8 -58 41l-454 629l-152 -148v-401q0 -72 -57.5 -101.5t-114.5 0t-57 101.5v1204q0 72 57 101.5t114.5 0t57.5 -101.5v-512l619 602q51 49 108.5 22.5t67.5 -87t-35 -115.5zM700 -137q49 0 82 -28t33 -75 q6 -109 -35 -172q-47 -68 -131 -75q-20 -2 -30.5 13t-4 33.5t28.5 24.5q57 12 70 74h-13q-47 0 -79.5 27.5t-32.5 74.5t32.5 75t79.5 28z" glyph-name="Kcommaaccent" unicode="Ķ"/><glyph d="M1200 178q27 -31 29 -65.5t-17.5 -60t-47 -42t-62.5 -10.5t-62 35l-401 448l-221 -139v-235q0 -68 -53.5 -95.5t-107.5 0t-54 95.5v1208q0 68 54 95.5t107.5 -0.5t53.5 -95v-719l643 408q35 20 69.5 18t57 -26.5t34 -54.5t0 -63.5t-45.5 -54.5l-355 -225zM678 -117 q55 0 92 -31.5t37 -82.5q4 -131 -39 -193q-53 -78 -150 -88q-37 -2 -41 35t35 45q68 14 80 86h-14q-55 0 -92 30.5t-37 84.5q0 51 38 82.5t91 31.5z" glyph-name="kcommaaccent" unicode="ķ"/><glyph d="M412 1593q-20 -43 -66.5 -49t-76 30t-9.5 97l49 148q23 72 92 71q61 0 84 -55q18 -43 -8 -100zM317 0q-47 0 -80.5 34t-33.5 81v1204q0 72 57 101.5t114.5 0t57.5 -101.5v-1090h682q72 0 101.5 -57t0 -114.5t-101.5 -57.5h-797z" glyph-name="Lacute" unicode="Ĺ"/><glyph d="M844 1737q-20 -43 -66.5 -49.5t-76 29.5t-9.5 98l49 147q23 72 93 72q61 0 84 -56q18 -43 -9 -100zM313 0q-68 0 -95.5 56.5t0.5 109.5t95 49l316 -20v1157l-316 -21q-66 -4 -93 50.5t-0.5 109.5t93.5 55h422q45 0 77 -30.5t32 -75.5v-1245l276 20q68 4 95.5 -49 t0 -109.5t-95.5 -56.5h-807z" glyph-name="lacute" unicode="ĺ"/><glyph d="M1114 229q72 0 101.5 -57t0 -114.5t-101.5 -57.5h-797q-47 0 -80.5 34t-33.5 81v1204q0 72 57 101.5t114.5 0t57.5 -101.5v-1090h682zM680 -119q55 0 91 -31.5t36 -85.5q6 -123 -39 -192q-51 -76 -150 -86q-23 -2 -35 15.5t-3.5 38t32.5 26.5q66 12 82 86h-14 q-55 0 -92 30.5t-37 81.5q0 53 38 85t91 32z" glyph-name="Lcommaaccent" unicode="Ļ"/><glyph d="M1120 215q68 4 95.5 -49t0 -109.5t-95.5 -56.5h-807q-68 0 -95.5 56.5t0.5 109.5t95 49l316 -20v1157l-316 -21q-66 -4 -93 50.5t-0.5 109.5t93.5 55h422q45 0 77 -30.5t32 -75.5v-1245zM729 -104q70 0 117 -41t47 -107q6 -160 -49 -246q-68 -96 -191 -110 q-29 -2 -44 20.5t-6 48t42 33.5q88 18 103 109h-19q-70 0 -117 39t-47 106q0 66 48 107t116 41z" glyph-name="lcommaaccent" unicode="ļ"/><glyph d="M690 1116l-18 297q-2 51 51 72.5t106.5 0t51.5 -72.5l-19 -295q-2 -47 -44 -65.5t-84 0t-44 63.5zM317 0q-47 0 -80.5 34t-33.5 81v1204q0 72 57 101.5t114.5 0t57.5 -101.5v-1090h682q72 0 101.5 -57t0 -114.5t-101.5 -57.5h-797z" glyph-name="Lcaron" unicode="Ľ"/><glyph d="M1026 1235l-18 297q-2 51 51 72.5t106.5 0t51.5 -72.5l-19 -295q-2 -47 -44 -65.5t-84 0t-44 63.5zM313 0q-68 0 -95.5 56.5t0.5 109.5t95 49l316 -20v1157l-316 -21q-66 -4 -93 50.5t-0.5 109.5t93.5 55h422q45 0 77 -30.5t32 -75.5v-1245l276 20q68 4 95.5 -49 t0 -109.5t-95.5 -56.5h-807z" glyph-name="lcaron" unicode="ľ"/><glyph d="M1212 229q72 0 101.5 -57t0 -114.5t-101.5 -57.5h-796q-47 0 -81 34t-34 81v534l-80 -47q-49 -23 -86 -5.5t-37 64t49 76.5l154 94v488q0 72 57.5 101.5t114.5 0t57 -101.5v-348l52 30q53 27 93 9.5t40 -65.5t-56 -81l-129 -78v-557h682z" glyph-name="Lslash" unicode="Ł"/><glyph d="M1120 215q68 4 95.5 -49t0 -109.5t-95.5 -56.5h-807q-68 0 -95.5 56.5t0.5 109.5t95 49l316 -20v464l-90 -53q-49 -23 -86 -5.5t-37 64t49 76.5l164 101v510l-316 -21q-66 -4 -93 50.5t-0.5 109.5t93.5 55h422q45 0 77 -30.5t32 -75.5v-467l55 33q53 27 93 9t40 -66 t-55 -81l-133 -80v-593z" glyph-name="lslash" unicode="ł"/><glyph d="M817 1593q-20 -43 -66 -49t-76 30t-9 97l49 148q23 72 92 71q61 0 84 -55q18 -43 -8 -100zM1026 43l-592 887v-815q0 -72 -57.5 -101.5t-114.5 0t-57 101.5v1204q0 80 78.5 108.5t124.5 -36.5l591 -887v815q0 72 57.5 101.5t115 0t57.5 -101.5v-1204q0 -80 -79 -109 t-124 37z" glyph-name="Nacute" unicode="Ń"/><glyph d="M715 1593q-20 -43 -66.5 -49t-76 30t-9.5 97l49 148q23 72 93 71q61 0 83 -55q18 -43 -8 -100zM231 109v608q0 76 -45 137q-25 33 -24.5 67.5t23 59.5t51 39t63.5 5t57 -42q20 -25 37 -55q125 113 336 112q221 0 360.5 -144t139.5 -366v-421q0 -68 -53.5 -94.5t-107.5 2 t-54 92.5v421q0 131 -77 213t-206 82q-133 0 -209 -83t-76 -214v-419q0 -68 -53 -95.5t-107.5 0t-54.5 95.5z" glyph-name="nacute" unicode="ń"/><glyph d="M999 1319q0 72 57.5 101.5t115 0t57.5 -101.5v-1204q0 -80 -79 -109t-124 37l-592 887v-815q0 -72 -57.5 -101.5t-114.5 0t-57 101.5v1204q0 80 78.5 108.5t124.5 -36.5l591 -887v815zM717 -104q70 0 117 -41t47 -107q6 -160 -50 -246q-68 -96 -190 -110q-29 -2 -44 20.5 t-6 48t42 33.5q88 18 102 109h-18q-70 0 -117 39t-47 106q0 66 48 107t116 41z" glyph-name="Ncommaaccent" unicode="Ņ"/><glyph d="M729 1040q221 0 360.5 -144t139.5 -366v-421q0 -68 -53.5 -94.5t-107.5 2t-54 92.5v421q0 131 -77 213t-206 82q-133 0 -209 -83t-76 -214v-419q0 -68 -53 -95.5t-107.5 0t-54.5 95.5v608q0 76 -45 137q-25 33 -24.5 67.5t23 59.5t51 39t63.5 5t57 -42q20 -25 37 -55 q125 112 336 112zM731 -92q55 0 92 -32t37 -83q4 -127 -39 -192q-55 -76 -149 -86q-23 -2 -35 15t-4 37.5t33 26.5q70 14 79 84h-14q-53 0 -91 32t-38 83t38 83t91 32z" glyph-name="ncommaaccent" unicode="ņ"/><glyph d="M711 1538q-29 0 -203 96q-59 33 -53 90.5t53 79t96 -7.5l115 -90l115 90q59 47 112 -4q47 -47 29 -104q-12 -35 -47 -54q-174 -96 -203 -96h-14zM1026 43l-592 887v-815q0 -72 -57.5 -101.5t-114.5 0t-57 101.5v1204q0 80 78.5 108.5t124.5 -36.5l591 -887v815 q0 72 57.5 101.5t115 0t57.5 -101.5v-1204q0 -80 -79 -109t-124 37z" glyph-name="Ncaron" unicode="Ň"/><glyph d="M711 1245q-29 0 -203 96q-59 33 -53 90.5t53 79t96 -7.5l115 -90l115 90q59 47 112 -4q47 -47 29 -104q-12 -35 -47 -54q-174 -96 -203 -96h-14zM231 109v608q0 76 -45 137q-25 33 -24.5 67.5t23 59.5t51 39t63.5 5t57 -42q20 -25 37 -55q125 113 336 112 q221 0 360.5 -144t139.5 -366v-421q0 -68 -53.5 -94.5t-107.5 2t-54 92.5v421q0 131 -77 213t-206 82q-133 0 -209 -83t-76 -214v-419q0 -68 -53 -95.5t-107.5 0t-54.5 95.5z" glyph-name="ncaron" unicode="ň"/><glyph d="M434 115q0 -72 -57.5 -101.5t-114.5 0t-57 101.5v1204q0 80 78.5 108.5t124.5 -36.5l591 -887v815q0 72 57.5 101.5t115 0t57.5 -101.5l-2 -1475q0 -131 -87 -224t-204 -120.5t-243 14.5t-199 154q-23 35 -21 71t26.5 60.5t55.5 36.5t66.5 1t60.5 -46q41 -63 119 -76.5 t139 24.5t61 105v236l-567 850v-815z" glyph-name="Eng" unicode="Ŋ"/><glyph d="M485 -387q-31 47 -15.5 86t47.5 62.5t77 17.5t72 -47q41 -66 120.5 -79t144 25.5t64.5 108.5v741q0 135 -67.5 215t-194.5 80q-131 0 -197.5 -80.5t-66.5 -216.5v-420q0 -51 -34 -79.5t-73.5 -27.5t-73.5 29.5t-34 77.5v609q0 76 -45 137q-25 33 -25 67.5t22.5 59.5 t51.5 39t63.5 5t57.5 -42q23 -25 37 -55q125 113 315 112q219 0 349 -143t130 -367v-741q0 -104 -55 -186t-142 -121t-184.5 -45t-192 41t-151.5 137z" glyph-name="eng" unicode="ŋ"/><glyph d="M539 1776h354q47 0 72.5 -31t25.5 -69t-26.5 -68.5t-71.5 -30.5h-354q-45 0 -72 30.5t-27 68.5t26 69t73 31zM717 0q-285 0 -451 206t-166 521q0 313 167 520t450 207q285 0 449.5 -208t164.5 -519q0 -315 -167.5 -521t-446.5 -206zM716.5 229q194.5 0 293 138.5 t98.5 359.5q0 225 -99.5 361.5t-291.5 136.5q-195 0 -294 -139.5t-99 -358.5q0 -225 99 -361.5t293.5 -136.5z" glyph-name="Omacron" unicode="Ō"/><glyph d="M541 1491h354q61 0 87 -49t0 -99.5t-87 -50.5h-354q-61 0 -87 50.5t0 99.5t87 49zM717 -10q-254 0 -408.5 145.5t-154.5 376.5t156.5 376.5t406.5 145.5q252 0 407.5 -146.5t155.5 -375.5q0 -231 -156.5 -376.5t-406.5 -145.5zM717 205q164 0 256 84t92 223 q0 143 -92 225t-256 82t-256 -83t-92 -224q0 -143 92 -225t256 -82z" glyph-name="omacron" unicode="ō"/><glyph d="M674 1593q-20 -43 -66.5 -49t-76 30t-9.5 97l49 148q23 72 93 71q61 0 84 -55q18 -43 -9 -100zM961 1593q-20 -43 -66.5 -49t-76.5 30t-9 97l49 148q23 72 92 71q61 0 84 -55q18 -43 -8 -100zM717 0q-285 0 -451 206t-166 521q0 313 167 520t450 207q285 0 449.5 -208 t164.5 -519q0 -315 -167.5 -521t-446.5 -206zM716.5 229q194.5 0 293 138.5t98.5 359.5q0 225 -99.5 361.5t-291.5 136.5q-195 0 -294 -139.5t-99 -358.5q0 -225 99 -361.5t293.5 -136.5z" glyph-name="Ohungarumlaut" unicode="Ő"/><glyph d="M670 1286q-20 -43 -66.5 -49t-76 30t-9.5 97l49 147q23 72 92 72q61 0 84 -55q18 -43 -8 -101zM956 1286q-20 -43 -66 -49t-76 30t-9 97l49 147q23 72 92 72q61 0 84 -55q18 -43 -8 -101zM717 -10q-254 0 -408.5 145.5t-154.5 376.5t156.5 376.5t406.5 145.5 q252 0 407.5 -146.5t155.5 -375.5q0 -231 -156.5 -376.5t-406.5 -145.5zM717 205q164 0 256 84t92 223q0 143 -92 225t-256 82t-256 -83t-92 -224q0 -143 92 -225t256 -82z" glyph-name="ohungarumlaut" unicode="ő"/><glyph d="M1251 229q72 0 101.5 -57t0 -114.5t-101.5 -57.5h-569q-281 0 -443.5 203t-162.5 514q0 309 165 513t441 204h569q72 0 101.5 -57.5t0 -115t-101.5 -57.5h-340v-373h273q72 0 101.5 -57t-0.5 -114.5t-101 -57.5h-273v-373h340zM295 717q0 -221 97 -356.5t290 -135.5v983 q-190 0 -288.5 -138t-98.5 -353z" glyph-name="OE" unicode="Œ"/><glyph d="M141 512q0 231 90.5 376.5t233.5 145.5q170 0 258 -184q92 182 252 182q147 0 232 -131t85 -354q0 -45 -18.5 -77t-44.5 -32h-432q25 -233 178 -233q20 0 36.5 2t31 7t25.5 8t21.5 12.5t15.5 13.5t14 17.5t11.5 16.5t10.5 18t10 17q29 49 82 29q53 -23 51 -88 q0 -20 -8 -43q-74 -225 -301 -225q-164 0 -252 184q-90 -184 -258 -184q-145 0 -234.5 145.5t-89.5 376.5zM338 512q0 -154 28.5 -230.5t98.5 -76.5q74 0 102.5 77.5t28.5 229.5q0 154 -28.5 230.5t-102.5 76.5q-72 0 -99.5 -76.5t-27.5 -230.5zM797 612h333 q-16 102 -52 153.5t-103 51.5q-59 0 -107 -53.5t-71 -151.5z" glyph-name="oe" unicode="œ"/><glyph d="M756 1593q-20 -43 -66.5 -49t-76 30t-9.5 97l49 148q23 72 92 71q61 0 84 -55q18 -43 -8 -100zM1042 49l-313 465h-321v-401q0 -51 -35 -81t-77 -30t-77 29.5t-35 81.5v1208q0 49 34 81t77 32h358q272 0 432 -117t160 -344q0 -291 -280 -410l262 -389q23 -37 20.5 -72.5 t-27 -60.5t-55 -37t-65.5 -1t-58 46zM408 735h245q371 0 371 238q0 131 -96.5 184t-274.5 53h-245v-475z" glyph-name="Racute" unicode="Ŕ"/><glyph d="M782 1278q-20 -43 -66 -49t-76 29.5t-9 97.5l49 147q23 72 92 72q61 0 84 -55q18 -43 -8 -101zM309 0q-66 0 -94.5 57.5t0.5 110.5t94 47l207 -20v634l-186 -20q-66 -8 -94.5 46t0 111.5t94.5 57.5h245q141 0 142 -156q33 66 99.5 116t160.5 50q96 0 146.5 -24.5 t95.5 -75.5q27 -31 29.5 -65.5t-13.5 -59.5t-42 -43t-56.5 -17t-55.5 19q-66 51 -145 51q-86 0 -145.5 -85t-59.5 -175v-364l277 20q68 4 95 -49t-0.5 -109.5t-94.5 -56.5h-699z" glyph-name="racute" unicode="ŕ"/><glyph d="M1227 174q23 -37 20.5 -72.5t-27 -60.5t-55 -37t-65.5 -1t-58 46l-313 465h-321v-401q0 -51 -35 -81t-77 -30t-77 29.5t-35 81.5v1208q0 49 34 81t77 32h358q272 0 432 -117t160 -344q0 -291 -280 -410zM653 735q371 0 371 238q0 131 -96.5 184t-274.5 53h-245v-475h245z M682 -98q55 0 92 -33t37 -84q4 -129 -39 -195q-53 -74 -149 -88q-23 0 -35.5 17.5t-5 38t31.5 26.5q66 12 82 86h-14q-55 0 -92 31t-37 84q0 51 38 84t91 33z" glyph-name="Rcommaaccent" unicode="Ŗ"/><glyph d="M1219 934q27 -31 29.5 -65.5t-13.5 -59.5t-42 -43t-56.5 -17t-55.5 19q-66 51 -145 51q-86 0 -145.5 -85t-59.5 -175v-364l277 20q68 4 95 -49t-0.5 -109.5t-94.5 -56.5h-699q-66 0 -94.5 57.5t0.5 110.5t94 47l207 -20v634l-186 -20q-66 -8 -94.5 46t0 111.5t94.5 57.5 h245q141 0 142 -156q33 66 99.5 116t160.5 50q96 0 146.5 -24.5t95.5 -75.5zM614.5 -178q47.5 0 79 -26.5t31.5 -71.5q4 -106 -33 -164q-47 -66 -129 -76q-31 -2 -35 29.5t31 40.5q57 14 68 71h-13q-47 0 -78.5 26.5t-31.5 72t31.5 72t79 26.5z" glyph-name="rcommaaccent" unicode="ŗ"/><glyph d="M606 1538q-29 0 -203 96q-59 33 -53 90.5t53.5 79t96.5 -7.5l114 -90l115 90q59 47 113 -4q47 -47 28 -104q-12 -35 -47 -54q-174 -96 -202 -96h-15zM1042 49l-313 465h-321v-401q0 -51 -35 -81t-77 -30t-77 29.5t-35 81.5v1208q0 49 34 81t77 32h358q272 0 432 -117 t160 -344q0 -291 -280 -410l262 -389q23 -37 20.5 -72.5t-27 -60.5t-55 -37t-65.5 -1t-58 46zM408 735h245q371 0 371 238q0 131 -96.5 184t-274.5 53h-245v-475z" glyph-name="Rcaron" unicode="Ř"/><glyph d="M711 1286q-29 0 -203 96q-59 33 -53 90.5t53 79t96 -7.5l115 -90l115 90q59 47 112 -4q47 -47 29 -104q-12 -35 -47 -54q-174 -96 -203 -96h-14zM309 0q-66 0 -94.5 57.5t0.5 110.5t94 47l207 -20v634l-186 -20q-66 -8 -94.5 46t0 111.5t94.5 57.5h245q141 0 142 -156 q33 66 99.5 116t160.5 50q96 0 146.5 -24.5t95.5 -75.5q27 -31 29.5 -65.5t-13.5 -59.5t-42 -43t-56.5 -17t-55.5 19q-66 51 -145 51q-86 0 -145.5 -85t-59.5 -175v-364l277 20q68 4 95 -49t-0.5 -109.5t-94.5 -56.5h-699z" glyph-name="rcaron" unicode="ř"/><glyph d="M797 1593q-20 -43 -66.5 -49t-76 30t-9.5 97l49 148q23 72 92 71q61 0 84 -55q18 -43 -8 -100zM686 -10q-352 0 -487 237q-31 55 5 101.5t100.5 44.5t101.5 -64q57 -96 280 -96q133 0 234.5 50t101.5 151q0 115 -60.5 150.5t-254.5 49.5q-258 18 -382 102.5t-124 297.5 q0 197 143 313.5t369 116.5q158 0 299 -59.5t192 -172.5q14 -31 8 -63.5t-30.5 -54t-54 -31.5t-64.5 4t-62 51q-72 102 -288 103q-127 0 -208 -49.5t-81 -157.5q0 -104 60.5 -134t238.5 -42q102 -10 177 -24.5t143.5 -44.5t110.5 -75t66.5 -115.5t24.5 -164.5 q0 -199 -163 -311.5t-396 -112.5z" glyph-name="Sacute" unicode="Ś"/><glyph d="M821 1290q-20 -43 -66 -49t-76 30t-9 97l49 148q23 72 92 71q61 0 84 -55q18 -43 -8 -100zM731 -10q-154 0 -300 48t-208 146q-29 49 -13.5 83t49.5 52.5t77 13.5t70 -36q33 -39 132 -65.5t185 -26.5q100 -4 195.5 25.5t95.5 78.5q0 59 -72 76.5t-211 24.5h-18 q-94 6 -157.5 14t-131.5 27.5t-108 50t-65.5 83t-25.5 124.5q0 164 140.5 248.5t353.5 74.5q150 -6 282 -56t191 -138q20 -35 15 -66t-31.5 -49t-58.5 -27.5t-61.5 -3.5t-43.5 27q-27 37 -120 65.5t-177 34.5q-100 4 -187.5 -20.5t-87.5 -89.5q0 -72 254 -82q20 -2 31 -2 q92 -6 155.5 -14.5t135 -29t113.5 -53t71 -88t29 -131.5q0 -104 -74 -179t-183.5 -107.5t-240.5 -32.5z" glyph-name="sacute" unicode="ś"/><glyph d="M1245 414q0 -158 -105.5 -262.5t-275.5 -143.5q41 -57 39 -138t-51 -151q-61 -86 -174 -99t-174 63q-29 35 -13.5 75.5t50 52t63.5 -11.5q25 -27 56.5 -18.5t48.5 41.5q14 31 -3.5 84t-50.5 84q-330 10 -456 237q-31 55 5 101.5t100.5 44.5t101.5 -64q57 -96 280 -96 q133 0 234.5 50t101.5 151q0 115 -60.5 150.5t-254.5 49.5q-258 18 -382 102.5t-124 297.5q0 197 143 313.5t369 116.5q158 0 299 -59.5t192 -172.5q14 -31 8 -63.5t-30.5 -54t-54 -31.5t-64.5 4t-62 51q-72 102 -288 103q-127 0 -208 -49.5t-81 -157.5q0 -104 60.5 -134 t238.5 -42q102 -10 177 -24.5t143.5 -44.5t110.5 -75t66.5 -115.5t24.5 -164.5z" glyph-name="Scedilla" unicode="Ş"/><glyph d="M1229 309q0 -123 -94.5 -199.5t-243.5 -105.5q39 -55 36 -136t-53 -149q-61 -86 -173.5 -99t-174.5 63q-29 35 -13.5 75.5t50.5 52t64 -11.5q25 -27 56.5 -18.5t47.5 41.5q14 31 -4 85t-51 85q-143 6 -270 54t-183 138q-29 49 -13.5 83t49.5 52.5t77 13.5t70 -36 q33 -39 132 -65.5t185 -26.5q100 -4 195.5 25.5t95.5 78.5q0 59 -72 76.5t-211 24.5h-18q-94 6 -157.5 14t-131.5 27.5t-108 50t-65.5 83t-25.5 124.5q0 164 140.5 248.5t353.5 74.5q150 -6 282 -56t191 -138q20 -35 15 -66t-31.5 -49t-58.5 -27.5t-61.5 -3.5t-43.5 27 q-27 37 -120 65.5t-177 34.5q-100 4 -187.5 -20.5t-87.5 -89.5q0 -72 254 -82q20 -2 31 -2q92 -6 155.5 -14.5t135 -29t113.5 -53t71 -88t29 -131.5z" glyph-name="scedilla" unicode="ş"/><glyph d="M711 1538q-29 0 -203 96q-59 33 -53 90.5t53 79t96 -7.5l115 -90l115 90q59 47 112 -4q47 -47 29 -104q-12 -35 -47 -54q-174 -96 -203 -96h-14zM686 -10q-352 0 -487 237q-31 55 5 101.5t100.5 44.5t101.5 -64q57 -96 280 -96q133 0 234.5 50t101.5 151 q0 115 -60.5 150.5t-254.5 49.5q-258 18 -382 102.5t-124 297.5q0 197 143 313.5t369 116.5q158 0 299 -59.5t192 -172.5q14 -31 8 -63.5t-30.5 -54t-54 -31.5t-64.5 4t-62 51q-72 102 -288 103q-127 0 -208 -49.5t-81 -157.5q0 -104 60.5 -134t238.5 -42q102 -10 177 -24.5 t143.5 -44.5t110.5 -75t66.5 -115.5t24.5 -164.5q0 -199 -163 -311.5t-396 -112.5z" glyph-name="Scaron" unicode="Š"/><glyph d="M711 1264q-29 0 -203 96q-59 33 -53 90t53 78.5t96 -6.5l115 -90l115 90q59 47 112 -4q47 -47 29 -105q-12 -35 -47 -53q-174 -96 -203 -96h-14zM731 -10q-154 0 -300 48t-208 146q-29 49 -13.5 83t49.5 52.5t77 13.5t70 -36q33 -39 132 -65.5t185 -26.5 q100 -4 195.5 25.5t95.5 78.5q0 59 -72 76.5t-211 24.5h-18q-94 6 -157.5 14t-131.5 27.5t-108 50t-65.5 83t-25.5 124.5q0 164 140.5 248.5t353.5 74.5q150 -6 282 -56t191 -138q20 -35 15 -66t-31.5 -49t-58.5 -27.5t-61.5 -3.5t-43.5 27q-27 37 -120 65.5t-177 34.5 q-100 4 -187.5 -20.5t-87.5 -89.5q0 -72 254 -82q20 -2 31 -2q92 -6 155.5 -14.5t135 -29t113.5 -53t71 -88t29 -131.5q0 -104 -74 -179t-183.5 -107.5t-240.5 -32.5z" glyph-name="scaron" unicode="š"/><glyph d="M1237 1434q72 0 101.5 -59.5t0 -117t-101.5 -53.5l-408 21v-1110q0 -18 -2 -27q45 -63 45 -143t-51 -158q-61 -86 -173.5 -99.5t-174.5 62.5q-29 35 -13.5 76t50.5 52t63 -11q25 -27 57 -18.5t48 40.5q23 47 -23 127q-53 33 -53 99v1110l-407 -21q-72 -4 -103 53.5t0 117 t103 59.5h1042z" glyph-name="Tcommaaccent" unicode="Ţ"/><glyph d="M961 266q35 55 96 48t86.5 -55t-4.5 -107q-55 -84 -156 -129l33 4q49 -61 51 -144.5t-51 -163.5q-61 -86 -174 -99t-174 63q-29 35 -13.5 75.5t50 52t63.5 -11.5q25 -27 56.5 -18.5t47.5 41.5q14 31 -3 84t-50 84q-133 6 -231.5 98t-98.5 221v525l-149 -21 q-76 -10 -100 64q-20 68 24 116q29 31 76 31h149v410q0 49 33 76.5t73 27.5t72.5 -27.5t32.5 -76.5v-410h293q66 0 92.5 -55.5t0 -107.5t-92.5 -48l-293 21v-525q0 -47 42 -76.5t98 -29.5q27 0 67 20t54 43z" glyph-name="tcommaaccent" unicode="ţ"/><glyph d="M709 1538q-29 0 -203 96q-59 33 -53 90.5t53 79t96 -7.5l115 -90l114 90q59 47 113 -4q47 -47 29 -104q-12 -35 -47 -54q-174 -96 -203 -96h-14zM602 115v1110l-407 -21q-72 -4 -103 53.5t0 117t103 59.5h1042q72 0 101.5 -59.5t0 -117t-101.5 -53.5l-408 21v-1110 q0 -53 -35.5 -84t-77.5 -31t-78 31t-36 84z" glyph-name="Tcaron" unicode="Ť"/><glyph d="M932 1300l-19 297q-2 51 51.5 73t106.5 0.5t51 -73.5l-18 -294q-2 -47 -44 -65.5t-84 -0.5t-44 63zM836 -10q-137 0 -242 93t-105 226v525l-149 -21q-76 -10 -100 64q-20 68 24 116q29 31 76 31h149v410q0 49 33 76.5t73 27.5t72.5 -27.5t32.5 -76.5v-410h293 q66 0 92.5 -55.5t0 -107.5t-92.5 -48l-293 21v-525q0 -47 42 -76.5t98 -29.5q27 0 66.5 20.5t54.5 42.5q35 55 96 48t86.5 -55t-4.5 -107q-47 -72 -131 -117t-172 -45z" glyph-name="tcaron" unicode="ť"/><glyph d="M1237 1434q72 0 101.5 -59.5t0 -117t-101.5 -53.5l-408 21v-465h248q61 0 86 -49t-0.5 -98.5t-85.5 -49.5h-248v-448q0 -53 -35.5 -84t-77.5 -31t-78 30.5t-36 84.5v448h-250q-59 0 -84.5 49.5t-1 98.5t85.5 49h250v465l-407 -21q-72 -4 -103 53.5t0 117t103 59.5h1042z " glyph-name="Tbar" unicode="Ŧ"/><glyph d="M961 266q35 55 96 48t86.5 -55t-4.5 -107q-47 -72 -131 -117t-172 -45q-137 0 -242 93t-105 226v142h-94q-55 0 -78.5 49t0 98t78.5 49h94v187l-149 -21q-76 -10 -100 64q-20 68 24 116q29 31 76 31h149v410q0 49 33 76.5t73 27.5t72.5 -27.5t32.5 -76.5v-410h293 q66 0 92.5 -55.5t0 -107.5t-92.5 -48l-293 21v-187h365q55 0 78.5 -49t0 -98t-78.5 -49h-365v-142q0 -47 42 -76.5t98 -29.5q27 0 67 20t54 43z" glyph-name="tbar" unicode="ŧ"/><glyph d="M541 1735h354q47 0 72.5 -31t25.5 -69t-26.5 -68.5t-71.5 -30.5h-354q-45 0 -72 30.5t-27 68.5t26 69t73 31zM717 -10q-238 0 -380 145.5t-142 376.5v813q0 68 54 95.5t107.5 0t53.5 -95.5v-813q0 -145 79.5 -226t227 -81t227.5 83t80 224v813q0 68 53 95.5t107.5 0 t54.5 -95.5v-813q0 -231 -144.5 -376.5t-377.5 -145.5z" glyph-name="Umacron" unicode="Ū"/><glyph d="M498 1495h354q61 0 87 -49t0 -99.5t-87 -50.5h-354q-61 0 -87 50.5t0 99.5t87 49zM1159 920v-609q0 -76 45 -137q25 -33 25 -67.5t-22.5 -59t-51.5 -39t-63.5 -5.5t-57.5 42q-23 25 -37 55q-125 -113 -315 -112q-219 0 -349 143t-130 367v422q0 68 54 94t107.5 -2.5 t53.5 -91.5v-422q0 -135 67.5 -215t194.5 -80q131 0 197.5 81t66.5 216v420q0 51 34 79.5t74 27.5t73.5 -29.5t33.5 -77.5z" glyph-name="umacron" unicode="ū"/><glyph d="M716.5 1475q-106.5 0 -181 74.5t-74.5 183.5q0 104 74.5 179t181 75t181.5 -75t75 -179q0 -106 -75 -182t-181.5 -76zM717 1653q33 0 55.5 22.5t22.5 57.5q0 33 -22.5 54t-55.5 21t-55.5 -21.5t-22.5 -53.5q0 -35 22.5 -57.5t55.5 -22.5zM717 -10q-238 0 -380 145.5 t-142 376.5v813q0 68 54 95.5t107.5 0t53.5 -95.5v-813q0 -145 79.5 -226t227 -81t227.5 83t80 224v813q0 68 53 95.5t107.5 0t54.5 -95.5v-813q0 -231 -144.5 -376.5t-377.5 -145.5z" glyph-name="Uring" unicode="Ů"/><glyph d="M696.5 1174q-106.5 0 -181.5 74.5t-75 183.5q0 104 75 179t181.5 75t181 -75t74.5 -179q0 -106 -74.5 -182t-181 -76zM696.5 1352q32.5 0 55 22.5t22.5 57.5q0 33 -22.5 54t-55 21t-55.5 -21.5t-23 -53.5q0 -35 23 -57.5t55.5 -22.5zM1159 920v-609q0 -76 45 -137 q25 -33 25 -67.5t-22.5 -59t-51.5 -39t-63.5 -5.5t-57.5 42q-23 25 -37 55q-125 -113 -315 -112q-219 0 -349 143t-130 367v422q0 68 54 94t107.5 -2.5t53.5 -91.5v-422q0 -135 67.5 -215t194.5 -80q131 0 197.5 81t66.5 216v420q0 51 34 79.5t74 27.5t73.5 -29.5 t33.5 -77.5z" glyph-name="uring" unicode="ů"/><glyph d="M647 1593q-20 -43 -66 -49t-76 30t-9 97l49 148q23 72 92 71q61 0 84 -55q18 -43 -8 -100zM934 1593q-20 -43 -66.5 -49t-76 30t-9.5 97l49 148q23 72 93 71q61 0 84 -55q18 -43 -9 -100zM717 -10q-238 0 -380 145.5t-142 376.5v813q0 68 54 95.5t107.5 0t53.5 -95.5 v-813q0 -145 79.5 -226t227 -81t227.5 83t80 224v813q0 68 53 95.5t107.5 0t54.5 -95.5v-813q0 -231 -144.5 -376.5t-377.5 -145.5z" glyph-name="Uhungarumlaut" unicode="Ű"/><glyph d="M625 1260q-20 -43 -66.5 -49.5t-76 29.5t-9.5 97l49 148q23 72 92 71q61 0 84 -55q18 -43 -8 -100zM911 1260q-20 -43 -66 -49.5t-76 29.5t-9 97l49 148q23 72 92 71q61 0 84 -55q18 -43 -8 -100zM1159 920v-609q0 -76 45 -137q25 -33 25 -67.5t-22.5 -59t-51.5 -39 t-63.5 -5.5t-57.5 42q-23 25 -37 55q-125 -113 -315 -112q-219 0 -349 143t-130 367v422q0 68 54 94t107.5 -2.5t53.5 -91.5v-422q0 -135 67.5 -215t194.5 -80q131 0 197.5 81t66.5 216v420q0 51 34 79.5t74 27.5t73.5 -29.5t33.5 -77.5z" glyph-name="uhungarumlaut" unicode="ű"/><glyph d="M1024 1325q0 68 53 95.5t107.5 0t54.5 -95.5v-813q0 -195 -104.5 -331t-282.5 -177q-37 -23 -59.5 -84t-6 -94t48 -41t56 18.5t62.5 11t51.5 -51t-13.5 -76.5q-61 -76 -173.5 -62.5t-174.5 99.5q-47 63 -51 139t29 133q-197 31 -311.5 171t-114.5 345v813q0 68 54 95.5 t107.5 0t53.5 -95.5v-813q0 -145 79.5 -226t227 -81t227.5 83t80 224v813z" glyph-name="Uogonek" unicode="Ų"/><glyph d="M1204 174q25 -33 25 -67.5t-22.5 -59t-51.5 -39t-63.5 -5.5t-57.5 42q-23 25 -37 55q-80 -70 -180 -96l35 -4q-37 -23 -59.5 -84t-6 -94t48 -41t56 18.5t62.5 11t51.5 -51t-13.5 -76.5q-61 -76 -173.5 -63t-174.5 99q-47 63 -52 140.5t27 132.5q-193 20 -304 159.5 t-111 346.5v422q0 68 54 94t107.5 -2.5t53.5 -91.5v-422q0 -135 67.5 -215t194.5 -80q131 0 197.5 81t66.5 216v420q0 51 34 79.5t74 27.5t73.5 -29.5t33.5 -77.5v-609q0 -76 45 -137z" glyph-name="uogonek" unicode="ų"/><glyph d="M459 1712q29 14 94 54t101 58.5t53 18.5h22q8 0 26.5 -7t45 -22.5t52.5 -30t61.5 -34.5t58.5 -33q68 -39 43 -112q-18 -57 -72 -68q-33 -6 -65 18l-160 125l-164 -129q-45 -35 -94 -6t-51 80t49 88zM508 76q-16 -51 -62.5 -69.5t-91.5 6t-57 83.5l-234 1211 q-14 70 34 105.5t107.5 16t74.5 -87.5l170 -778l163 586q14 51 58.5 70.5t88.5 0t58 -70.5l168 -588l170 782q8 41 36 65t60.5 25t63.5 -10.5t47 -43t8 -72.5l-233 -1211q-18 -92 -102.5 -96t-108.5 76l-211 659z" glyph-name="Wcircumflex" unicode="Ŵ"/><glyph d="M459 1333q29 14 94 54t101 58.5t53 18.5h22q8 0 26.5 -7t45 -22.5t52.5 -29.5t61.5 -34.5t58.5 -33.5q68 -39 43 -112q-18 -57 -72 -68q-33 -6 -65 19l-160 124l-164 -129q-45 -35 -94 -6t-51 80t49 88zM612 63q-18 -70 -101 -62.5t-101 81.5l-203 811q-10 39 4 70.5 t43 45t61.5 15.5t60 -19.5t38.5 -60.5l129 -506l75 385q8 43 53.5 60.5t90.5 0t53 -60.5l76 -385l129 506q10 39 37.5 60.5t60.5 19.5t61.5 -15.5t43 -46t4.5 -71.5l-203 -809q-12 -49 -57 -70.5t-89 -6.5t-57 58l-104 392z" glyph-name="wcircumflex" unicode="ŵ"/><glyph d="M459 1712q29 14 94 54t101 58.5t53 18.5h22q8 0 26.5 -7t45 -22.5t52.5 -30t61.5 -34.5t58.5 -33q68 -39 43 -112q-18 -57 -72 -68q-33 -6 -65 18l-160 125l-164 -129q-45 -35 -94 -6t-51 80t49 88zM604 115l-2 563l-418 569q-25 37 -24.5 75t24 64.5t53 41t66.5 5 t62 -41.5l352 -469l352 469q27 35 62.5 43t65.5 -6.5t53.5 -42t23.5 -64.5t-25 -74l-420 -569l2 -563q0 -53 -35.5 -84t-77.5 -31t-78 31t-36 84z" glyph-name="Ycircumflex" unicode="Ŷ"/><glyph d="M530 1335q29 14 94.5 54.5t101.5 58.5t52 18h23q8 0 26.5 -7t45 -22.5t52 -29.5t61.5 -34.5t58 -33.5q68 -39 43 -112q-18 -57 -71 -68q-33 -6 -66 19l-159 125l-164 -129q-45 -35 -94.5 -6.5t-51.5 79.5t49 88zM84 -332q-39 59 -6 114.5t90 58.5t102 -50 q41 -61 128 -71.5t126 51.5l107 241l-400 850q-29 63 9.5 112.5t100.5 48.5t93 -65l320 -682l319 685q29 63 92.5 65t102.5 -48t8 -114l-553 -1196q-63 -117 -189 -156.5t-253 4t-197 152.5z" glyph-name="ycircumflex" unicode="ŷ"/><glyph d="M502 1536q-70 0 -117 41t-47 106q0 68 46 107t118 39q70 0 117 -39t47 -107q0 -66 -48 -106.5t-116 -40.5zM932 1536q-70 0 -117 41t-47 106q0 68 46 107t118 39q70 0 117 -39t47 -107q0 -66 -48 -106.5t-116 -40.5zM604 115l-2 563l-418 569q-25 37 -24.5 75t24 64.5 t53 41t66.5 5t62 -41.5l352 -469l352 469q27 35 62.5 43t65.5 -6.5t53.5 -42t23.5 -64.5t-25 -74l-420 -569l2 -563q0 -53 -35.5 -84t-77.5 -31t-78 31t-36 84z" glyph-name="Ydieresis" unicode="Ÿ"/><glyph d="M797 1593q-20 -43 -66.5 -49t-76 30t-9.5 97l49 148q23 72 92 71q61 0 84 -55q18 -43 -8 -100zM240 0q-72 0 -104 65.5t14 118.5l806 1020h-716q-72 0 -101.5 57.5t0 115t101.5 57.5h952q72 0 103.5 -64.5t-13.5 -120.5l-807 -1020h717q72 0 101.5 -57t0 -114.5 t-101.5 -57.5h-952z" glyph-name="Zacute" unicode="Ź"/><glyph d="M819 1317q-20 -43 -66 -49t-76 29.5t-9 97.5l49 147q23 72 92 72q61 0 84 -55q18 -43 -8 -101zM309 0q-72 0 -99.5 65.5t23.5 116.5l627 627h-551q-68 0 -94.5 54.5t0.5 107.5t94 53h811q72 0 99.5 -65.5t-23.5 -116.5l-627 -627h551q68 0 94.5 -54.5t0 -107.5t-94.5 -53 h-811z" glyph-name="zacute" unicode="ź"/><glyph d="M717 1536q-70 0 -117 41t-47 106q0 68 46 107t118 39q70 0 117 -39t47 -107q0 -66 -48 -106.5t-116 -40.5zM240 0q-72 0 -104 65.5t14 118.5l806 1020h-716q-72 0 -101.5 57.5t0 115t101.5 57.5h952q72 0 103.5 -64.5t-13.5 -120.5l-807 -1020h717q72 0 101.5 -57 t0 -114.5t-101.5 -57.5h-952z" glyph-name="Zdotaccent" unicode="Ż"/><glyph d="M717 1270q-70 0 -117 41t-47 106q0 68 46 107t118 39q70 0 117 -39t47 -107q0 -66 -48 -106.5t-116 -40.5zM309 0q-72 0 -99.5 65.5t23.5 116.5l627 627h-551q-68 0 -94.5 54.5t0.5 107.5t94 53h811q72 0 99.5 -65.5t-23.5 -116.5l-627 -627h551q68 0 94.5 -54.5 t0 -107.5t-94.5 -53h-811z" glyph-name="zdotaccent" unicode="ż"/><glyph d="M711 1538q-29 0 -203 96q-59 33 -53 90.5t53 79t96 -7.5l115 -90l115 90q59 47 112 -4q47 -47 29 -104q-12 -35 -47 -54q-174 -96 -203 -96h-14zM240 0q-72 0 -104 65.5t14 118.5l806 1020h-716q-72 0 -101.5 57.5t0 115t101.5 57.5h952q72 0 103.5 -64.5t-13.5 -120.5 l-807 -1020h717q72 0 101.5 -57t0 -114.5t-101.5 -57.5h-952z" glyph-name="Zcaron" unicode="Ž"/><glyph d="M709 1257q-29 0 -203 97q-59 33 -53 90t53 78.5t96 -6.5l115 -91l114 91q59 47 113 -5q47 -47 29 -104q-12 -35 -47 -53q-174 -96 -203 -97h-14zM309 0q-72 0 -99.5 65.5t23.5 116.5l627 627h-551q-68 0 -94.5 54.5t0.5 107.5t94 53h811q72 0 99.5 -65.5t-23.5 -116.5 l-627 -627h551q68 0 94.5 -54.5t0 -107.5t-94.5 -53h-811z" glyph-name="zcaron" unicode="ž"/><glyph d="M723 838q102 -10 177 -24.5t143.5 -44.5t110.5 -75t66.5 -115.5t24.5 -164.5q0 -199 -162.5 -311.5t-396.5 -112.5q-352 0 -487 237q-31 55 5 101.5t100.5 44.5t101.5 -64q57 -96 280 -96q133 0 234.5 50t101.5 151q0 115 -60.5 150.5t-254.5 49.5q-258 18 -382 102.5 t-124 297.5q0 197 143 313.5t369 116.5q158 0 299 -59.5t192 -172.5q14 -31 8 -63.5t-30.5 -54t-54 -31.5t-64.5 4t-62 51q-72 102 -288 103q-127 0 -208 -49.5t-81 -157.5q0 -104 60.5 -134t238.5 -42zM733 -158q70 0 117 -41t47 -106q6 -160 -49 -246q-68 -96 -191 -111 q-29 -2 -44 21t-6 48.5t42 33.5q88 18 103 108h-19q-70 0 -117 39t-47 107q0 66 48 106.5t116 40.5z" glyph-name="Scommaaccent" unicode="Ș"/><glyph d="M725 625q92 -6 155.5 -14.5t135 -29t113.5 -53t71 -88t29 -131.5q0 -104 -74 -179t-183.5 -107.5t-240.5 -32.5q-154 0 -300 48t-208 146q-29 49 -13.5 83t49.5 52.5t77 13.5t70 -36q33 -39 132 -65.5t185 -26.5q100 -4 195.5 25.5t95.5 78.5q0 59 -72 76.5t-211 24.5 h-18q-94 6 -157.5 14t-131.5 27.5t-108 50t-65.5 83t-25.5 124.5q0 164 140.5 248.5t353.5 74.5q150 -6 282 -56t191 -138q20 -35 15 -66t-31.5 -49t-58.5 -27.5t-61.5 -3.5t-43.5 27q-27 37 -120 65.5t-177 34.5q-100 4 -187.5 -20.5t-87.5 -89.5q0 -72 254 -82 q21 -2 31 -2zM717 -158q70 0 117 -41t47 -106q6 -160 -50 -246q-68 -96 -190 -111q-29 -2 -44 21t-6 48.5t42 33.5q88 18 102 108h-18q-70 0 -117 39t-47 107q0 66 48 106.5t116 40.5z" glyph-name="scommaaccent" unicode="ș"/><glyph d="M1237 1434q72 0 101.5 -59.5t0 -117t-101.5 -53.5l-408 21v-1110q0 -53 -35.5 -84t-77.5 -31t-78 30.5t-36 84.5v1110l-407 -21q-72 -4 -103 53.5t0 117t103 59.5h1042zM713 -178q70 0 117 -41t47 -107q6 -160 -50 -245q-68 -96 -190 -111q-29 -2 -44 20.5t-6 48t42 33.5 q88 18 102 109h-18q-70 0 -117 39t-47 106q0 66 48 107t116 41z" glyph-name="uni021A" unicode="Ț"/><glyph d="M961 266q35 55 96 48t86.5 -55t-4.5 -107q-47 -72 -131 -117t-172 -45q-137 0 -242 93t-105 226v525l-149 -21q-76 -10 -100 64q-20 68 24 116q29 31 76 31h149v410q0 49 33 76.5t73 27.5t72.5 -27.5t32.5 -76.5v-410h293q66 0 92.5 -55.5t0 -107.5t-92.5 -48l-293 21 v-525q0 -47 42 -76.5t98 -29.5q27 0 67 20t54 43zM737 -178q70 0 117 -41t47 -107q6 -160 -49 -245q-68 -96 -190 -111q-29 -2 -44.5 20.5t-6 48t41.5 33.5q88 18 103 109h-19q-70 0 -117 39t-47 106q0 66 48 107t116 41z" glyph-name="uni021B" unicode="ț"/><glyph d="M846 823l-363 -20q-70 -4 -98.5 51t0.5 111.5t98 56.5h473q47 0 79 -32t32 -79v-1075q0 -164 -129 -258t-294 -70.5t-259 164.5q-23 37 -20.5 73t28 59.5t56 34.5t66.5 0t58 -46q33 -55 99.5 -65.5t120 21.5t53.5 87v987z" glyph-name="uni0237" unicode="ȷ"/><glyph d="M354 1712q29 14 94.5 54t101.5 58.5t52 18.5h23q8 0 26.5 -7t45 -22.5t52 -30t61.5 -34.5t58 -33q68 -39 43 -112q-18 -57 -71 -68q-33 -6 -66 18l-160 125l-163 -129q-45 -35 -94.5 -6t-51.5 80t49 88z" glyph-name="circumflex" unicode="ˆ"/><glyph d="M606 1538q-29 0 -203 96q-59 33 -53 90.5t53.5 79t96.5 -7.5l114 -90l115 90q59 47 113 -4q47 -47 28 -104q-12 -35 -47 -54q-174 -96 -202 -96h-15z" glyph-name="caron" unicode="ˇ"/><glyph d="M626.5 1536q-96.5 0 -171 58.5t-97.5 148.5q-12 41 31 68.5t100.5 18.5t75.5 -58q18 -47 60.5 -47.5t62.5 47.5q31 70 115 63q70 -6 90 -53q8 -18 2 -39q-23 -90 -97.5 -148.5t-171 -58.5z" glyph-name="breve" unicode="˘"/><glyph d="M717 1270q-70 0 -117 41t-47 106q0 68 46 107t118 39q70 0 117 -39t47 -107q0 -66 -48 -106.5t-116 -40.5z" glyph-name="dotaccent" unicode="˙"/><glyph d="M561.5 1475q-106.5 0 -181.5 74.5t-75 183.5q0 104 75 179t181.5 75t181 -75t74.5 -179q0 -106 -74.5 -182t-181 -76zM561 1653q33 0 55.5 22.5t22.5 57.5q0 33 -22.5 54t-55.5 21t-55.5 -21.5t-22.5 -53.5q0 -35 22.5 -57.5t55.5 -22.5z" glyph-name="ring" unicode="˚"/><glyph d="M991 -317q-61 -76 -173.5 -63t-174.5 99q-53 80 -51 163t51 145l209 -27q-37 -23 -59.5 -84t-6 -94t48 -41t56 18.5t62.5 11t51.5 -51t-13.5 -76.5z" glyph-name="ogonek" unicode="˛"/><glyph d="M244 1690q27 74 85 114.5t138 40.5q59 0 129 -46t109 -46q43 0 65 41q27 49 76 52t80.5 -32.5t17.5 -82.5q-23 -74 -73 -116t-121 -42q-57 0 -130 45t-118 45q-59 0 -82 -41q-29 -49 -79 -53t-82.5 33t-14.5 88z" glyph-name="tilde" unicode="˜"/><glyph d="M721 1593q-20 -43 -66.5 -49t-76 30t-9.5 97l49 148q23 72 93 71q61 0 84 -55q18 -43 -9 -100zM1008 1593q-20 -43 -66.5 -49t-76 30t-9.5 97l49 148q23 72 92 71q61 0 84 -55q18 -43 -8 -100z" glyph-name="hungarumlaut" unicode="˝"/><glyph d="M-924 1593l-65 142q-41 90 18 137q51 39 107 4q31 -18 43 -57l49 -148q20 -61 -9.5 -97t-76 -30t-66.5 49z" glyph-name="gravecomb" horiz-adv-x="0" unicode="̀"/><glyph d="M-719 1593q-20 -43 -66 -49t-76 30t-9 97l49 148q23 72 92 71q61 0 84 -55q18 -43 -8 -100z" glyph-name="acutecomb" horiz-adv-x="0" unicode="́"/><glyph d="M-1079 1712q29 14 94 54t101 58.5t53 18.5h22q8 0 26.5 -7t45 -22.5t52.5 -30t61.5 -34.5t58.5 -33q68 -39 43 -112q-18 -57 -72 -68q-33 -6 -65 18l-160 125l-164 -129q-45 -35 -94 -6t-51 80t49 88z" glyph-name="uni0302" horiz-adv-x="0" unicode="̂"/><glyph d="M-1190 1690q27 74 85 114.5t138 40.5q59 0 129 -46t109 -46q43 0 65 41q27 49 76 52t81 -32.5t18 -82.5q-23 -74 -73 -116t-122 -42q-57 0 -130 45t-118 45q-59 0 -82 -41q-29 -49 -79 -53t-82.5 33t-14.5 88z" glyph-name="tildecomb" horiz-adv-x="0" unicode="̃"/><glyph d="M-997 1735h354q47 0 72.5 -31t25.5 -69t-26.5 -68.5t-71.5 -30.5h-354q-45 0 -72 30.5t-27 68.5t26 69t73 31z" glyph-name="uni0304" horiz-adv-x="0" unicode="̄"/><glyph d="M-807 1536q-96 0 -171 58.5t-97 148.5q-12 41 31 68.5t100 18.5t76 -58q18 -47 60 -47.5t63 47.5q31 70 114 63q70 -6 90 -53q8 -18 2 -39q-23 -90 -97.5 -148.5t-170.5 -58.5z" glyph-name="uni0306" horiz-adv-x="0" unicode="̆"/><glyph d="M-717 1270q-70 0 -117 41t-47 106q0 68 46.5 107t117.5 39q70 0 117 -39t47 -107q0 -66 -48 -106.5t-116 -40.5z" glyph-name="uni0307" horiz-adv-x="0" unicode="̇"/><glyph d="M-932 1536q-70 0 -117 41t-47 106q0 68 46 107t118 39q70 0 117 -39t47 -107q0 -66 -48 -106.5t-116 -40.5zM-502 1536q-70 0 -117 41t-47 106q0 68 46.5 107t117.5 39q70 0 117 -39t47 -107q0 -66 -48 -106.5t-116 -40.5z" glyph-name="uni0308" horiz-adv-x="0" unicode="̈"/><glyph d="M-872.5 1475q-106.5 0 -181 74.5t-74.5 183.5q0 104 74.5 179t181 75t181.5 -75t75 -179q0 -106 -75 -182t-181.5 -76zM-872.5 1653q32.5 0 55 22.5t22.5 57.5q0 33 -22.5 54t-55 21t-55 -21.5t-22.5 -53.5q0 -35 22.5 -57.5t55 -22.5z" glyph-name="uni030A" horiz-adv-x="0" unicode="̊"/><glyph d="M-713 1593q-20 -43 -66 -49t-76 30t-9 97l49 148q23 72 92 71q61 0 84 -55q18 -43 -8 -100zM-426 1593q-20 -43 -66.5 -49t-76 30t-9.5 97l50 148q23 72 92 71q61 0 84 -55q18 -43 -8 -100z" glyph-name="uni030B" horiz-adv-x="0" unicode="̋"/><glyph d="M-827 1538q-29 0 -203 96q-59 33 -53 90.5t53 79t96 -7.5l115 -90l114 90q59 47 113 -4q47 -47 29 -104q-12 -35 -47 -54q-174 -96 -203 -96h-14z" glyph-name="uni030C" horiz-adv-x="0" unicode="̌"/><glyph d="M-819 1829q70 0 117 -39t47 -107q0 -66 -48.5 -106.5t-115.5 -40.5q-70 0 -117 41t-47 106q-6 160 49 246q68 96 191 111q29 2 44 -20.5t6 -48t-42 -34.5q-88 -18 -103 -108h19z" glyph-name="uni0312" horiz-adv-x="0" unicode="̒"/><glyph d="M-655 -367q6 -160 -50 -245q-68 -96 -190 -111q-29 -2 -44 20.5t-6 48t42 33.5q88 18 102 109h-18q-70 0 -117 39t-47 106q0 66 48 107t116 41q70 0 117 -41t47 -107z" glyph-name="uni0326" horiz-adv-x="0" unicode="̦"/><glyph d="M-930 -317q-29 35 -13.5 75.5t50.5 52t64 -11.5q25 -27 56.5 -18.5t47.5 41.5t-6.5 94t-59.5 84l209 27q49 -61 51.5 -144.5t-51.5 -163.5q-61 -86 -174 -99t-174 63z" glyph-name="uni0327" horiz-adv-x="0" unicode="̧"/><glyph d="M-442 -317q-61 -76 -174 -63t-175 99q-53 80 -51 163t51 145l209 -27q-37 -23 -59.5 -84t-6 -94t48.5 -41t56.5 18.5t62.5 11t51.5 -51t-13.5 -76.5z" glyph-name="uni0328" horiz-adv-x="0" unicode="̨"/><glyph d="M-1151 637h725q61 0 86 -49t-1 -98.5t-85 -49.5h-725q-59 0 -85 49.5t-1 98.5t86 49z" glyph-name="uni0335" horiz-adv-x="0" unicode="̵"/><glyph glyph-name="uni0336" horiz-adv-x="0" unicode="̶"/><glyph d="M-1288 86l776 971q53 68 117 49q51 -16 45 -70q-4 -29 -29 -59l-780 -967q-47 -59 -109 -37q-51 18 -41 70q3 20 21 43z" glyph-name="uni0337" horiz-adv-x="0" unicode="̷"/><glyph d="M-1497 63l1120 1389q31 39 78 34t63.5 -40t-14.5 -82l-1093 -1354q-63 -78 -130 -45q-47 25 -38 70q4 16 14 28z" glyph-name="uni0338" horiz-adv-x="0" unicode="̸"/><glyph d="M678 1593l-66 142q-41 90 19 137q51 39 106 4q31 -18 43 -57l49 -148q20 -61 -9 -97t-75.5 -30t-66.5 49zM508 76q-16 -51 -62.5 -69.5t-91.5 6t-57 83.5l-234 1211q-14 70 34 105.5t107.5 16t74.5 -87.5l170 -778l163 586q14 51 58.5 70.5t88.5 0t58 -70.5l168 -588 l170 782q8 41 36 65t60.5 25t63.5 -10.5t47 -43t8 -72.5l-233 -1211q-18 -92 -102.5 -96t-108.5 76l-211 659z" glyph-name="Wgrave" unicode="Ẁ"/><glyph d="M678 1237l-66 141q-41 90 19 138q51 39 106 4q31 -18 43 -58l49 -147q20 -61 -9 -97t-75.5 -30t-66.5 49zM612 63q-18 -70 -101 -62.5t-101 81.5l-203 811q-10 39 4 70.5t43 45t61.5 15.5t60 -19.5t38.5 -60.5l129 -506l75 385q8 43 53.5 60.5t90.5 0t53 -60.5l76 -385 l129 506q10 39 37.5 60.5t60.5 19.5t61.5 -15.5t43 -46t4.5 -71.5l-203 -809q-12 -49 -57 -70.5t-89 -6.5t-57 58l-104 392z" glyph-name="wgrave" unicode="ẁ"/><glyph d="M756 1593q-20 -43 -66.5 -49t-76 30t-9.5 97l49 148q23 72 92 71q61 0 84 -55q18 -43 -8 -100zM508 76q-16 -51 -62.5 -69.5t-91.5 6t-57 83.5l-234 1211q-14 70 34 105.5t107.5 16t74.5 -87.5l170 -778l163 586q14 51 58.5 70.5t88.5 0t58 -70.5l168 -588l170 782 q8 41 36 65t60.5 25t63.5 -10.5t47 -43t8 -72.5l-233 -1211q-18 -92 -102.5 -96t-108.5 76l-211 659z" glyph-name="Wacute" unicode="Ẃ"/><glyph d="M756 1239q-20 -43 -66.5 -49t-76 29.5t-9.5 97.5l49 147q23 72 92 72q61 0 84 -55q18 -43 -8 -101zM612 63q-18 -70 -101 -62.5t-101 81.5l-203 811q-10 39 4 70.5t43 45t61.5 15.5t60 -19.5t38.5 -60.5l129 -506l75 385q8 43 53.5 60.5t90.5 0t53 -60.5l76 -385l129 506 q10 39 37.5 60.5t60.5 19.5t61.5 -15.5t43 -46t4.5 -71.5l-203 -809q-12 -49 -57 -70.5t-89 -6.5t-57 58l-104 392z" glyph-name="wacute" unicode="ẃ"/><glyph d="M502 1536q-70 0 -117 41t-47 106q0 68 46 107t118 39q70 0 117 -39t47 -107q0 -66 -48 -106.5t-116 -40.5zM932 1536q-70 0 -117 41t-47 106q0 68 46 107t118 39q70 0 117 -39t47 -107q0 -66 -48 -106.5t-116 -40.5zM508 76q-16 -51 -62.5 -69.5t-91.5 6t-57 83.5 l-234 1211q-14 70 34 105.5t107.5 16t74.5 -87.5l170 -778l163 586q14 51 58.5 70.5t88.5 0t58 -70.5l168 -588l170 782q8 41 36 65t60.5 25t63.5 -10.5t47 -43t8 -72.5l-233 -1211q-18 -92 -102.5 -96t-108.5 76l-211 659z" glyph-name="Wdieresis" unicode="Ẅ"/><glyph d="M502 1188q-70 0 -117 41t-47 106q0 68 46 107t118 39q70 0 117 -39t47 -107q0 -66 -48 -106.5t-116 -40.5zM932 1188q-70 0 -117 41t-47 106q0 68 46 107t118 39q70 0 117 -39t47 -107q0 -66 -48 -106.5t-116 -40.5zM612 63q-18 -70 -101 -62.5t-101 81.5l-203 811 q-10 39 4 70.5t43 45t61.5 15.5t60 -19.5t38.5 -60.5l129 -506l75 385q8 43 53.5 60.5t90.5 0t53 -60.5l76 -385l129 506q10 39 37.5 60.5t60.5 19.5t61.5 -15.5t43 -46t4.5 -71.5l-203 -809q-12 -49 -57 -70.5t-89 -6.5t-57 58l-104 392z" glyph-name="wdieresis" unicode="ẅ"/><glyph d="M678 1593l-66 142q-41 90 19 137q51 39 106 4q31 -18 43 -57l49 -148q20 -61 -9 -97t-75.5 -30t-66.5 49zM604 115l-2 563l-418 569q-25 37 -24.5 75t24 64.5t53 41t66.5 5t62 -41.5l352 -469l352 469q27 35 62.5 43t65.5 -6.5t53.5 -42t23.5 -64.5t-25 -74l-420 -569 l2 -563q0 -53 -35.5 -84t-77.5 -31t-78 31t-36 84z" glyph-name="Ygrave" unicode="Ỳ"/><glyph d="M723 1235l-66 141q-41 90 19 137q51 39 106 5q31 -18 43 -58l49 -147q20 -61 -9 -97t-75.5 -30t-66.5 49zM84 -332q-39 59 -6 114.5t90 58.5t102 -50q41 -61 128 -71.5t126 51.5l107 241l-400 850q-29 63 9.5 112.5t100.5 48.5t93 -65l320 -682l319 685q29 63 92.5 65 t102.5 -48t8 -114l-553 -1196q-63 -117 -189 -156.5t-253 4t-197 152.5z" glyph-name="ygrave" unicode="ỳ"/><glyph d="M367 571q-68 0 -95.5 54.5t0 108.5t95.5 54h698q68 0 95.5 -54t0 -108.5t-95.5 -54.5h-698z" glyph-name="endash" unicode="–"/><glyph d="M244 571q-68 0 -95.5 54.5t0 108.5t95.5 54h944q68 0 95.5 -54t-0.5 -108.5t-95 -54.5h-944z" glyph-name="emdash" unicode="—"/><glyph d="M874 1214q70 0 117 -38.5t47 -106.5q0 -66 -48 -106.5t-116 -40.5q-70 0 -116.5 41t-46.5 106q-4 82 8 175t41 132q74 104 190 111q29 2 44.5 -20.5t6 -49t-42.5 -33.5q-111 -25 -106 -172q8 2 22 2z" glyph-name="quoteleft" unicode="‘"/><glyph d="M592 1372q4 -82 -8.5 -175t-40.5 -132q-74 -104 -191 -111q-29 -2 -44 20.5t-6 49.5t42 33q111 25 107 172q-8 -2 -23 -2q-70 0 -117 39t-47 106q0 66 48 107t116 41q70 0 117 -41t47 -107z" glyph-name="quoteright" unicode="’"/><glyph d="M684 145q4 -82 -8 -175t-41 -132q-74 -104 -191 -110q-29 -2 -44 20.5t-6 49t42 32.5q111 25 107 172q-8 -2 -23 -2q-70 0 -117 39t-47 106q0 66 48.5 107t115.5 41q70 0 117 -41t47 -107z" glyph-name="quotesinglbase" unicode="‚"/><glyph d="M649 1214q70 0 117 -38.5t47 -106.5q0 -66 -48 -106.5t-116 -40.5q-70 0 -117 41t-47 106q-4 82 8.5 175t41.5 132q74 104 190 111q29 2 44 -20.5t6 -49t-42 -33.5q-111 -25 -106 -172q8 2 22 2zM1102 1214q70 0 117 -38.5t47 -106.5q0 -66 -48.5 -106.5t-115.5 -40.5 q-70 0 -117 41t-47 106q-4 82 8 175t41 132q74 104 191 111q29 2 44 -20.5t6 -49t-42 -33.5q-111 -25 -107 -172q9 2 23 2z" glyph-name="quotedblleft" unicode="“"/><glyph d="M180 1520q70 0 117 -41t47 -107q4 -82 -8 -175t-41 -132q-74 -104 -191 -111q-29 -2 -44 20.5t-6 49.5t42 33q111 25 107 172q-8 -2 -23 -2q-70 0 -117 39t-47 106q0 66 48 107t116 41zM754 1372q4 -82 -8.5 -175t-40.5 -132q-74 -104 -191 -111q-29 -2 -44 20.5t-6 49.5 t42 33q111 25 106 172q-8 -2 -22 -2q-70 0 -117 39t-47 106q0 66 48 107t116 41q70 0 117 -41t47 -107z" glyph-name="quotedblright" unicode="”"/><glyph d="M684 145q4 -82 -8 -175t-41 -132q-74 -104 -191 -110q-29 -2 -44 20.5t-6 49t42 32.5q111 25 107 172q-8 -2 -23 -2q-70 0 -117 39t-47 106q0 66 48.5 107t115.5 41q70 0 117 -41t47 -107z" glyph-name="quotedblbase" unicode="„"/><glyph d="M612 834v264h-82q-63 0 -88.5 51t0 102.5t88.5 51.5h82v77q0 47 33 75t71 28t70.5 -26.5t32.5 -76.5v-77h82q63 0 90 -51.5t0.5 -102.5t-90.5 -51h-82v-264q0 -63 -51 -89t-103.5 0t-52.5 89z" glyph-name="dagger" unicode="†"/><glyph glyph-name="daggerdbl" unicode="‡"/><glyph d="M705 297q-164 0 -272.5 95t-108.5 249q0 156 107.5 246t273.5 90q158 0 267 -91t109 -245q0 -152 -110 -248t-266 -96z" glyph-name="bullet" unicode="•"/><glyph d="M164 -10q-82 0 -136.5 47t-54.5 125t54.5 123t136.5 45q78 0 133 -45t55 -123q0 -76 -55 -124t-133 -48zM621 -10q-82 0 -136.5 47t-54.5 125t54.5 123t136.5 45q78 0 133 -45t55 -123q0 -76 -55 -124t-133 -48zM1065 -10q-82 0 -136.5 47t-54.5 125t54.5 123t136.5 45 q78 0 133 -45t55 -123q0 -76 -55 -124t-133 -48z" glyph-name="ellipsis" unicode="…"/><glyph d="M-141 147l862 1242q35 49 89 39.5t74.5 -53.5t-7.5 -95l-863 -1241q-20 -29 -50 -37t-55.5 2t-46 30.5t-21 51t17.5 61.5zM-4 909q-119 0 -190.5 75t-71.5 187q0 115 73.5 189t188.5 74q117 0 188.5 -73t71.5 -190q0 -115 -72.5 -188.5t-187.5 -73.5zM-4 1077q92 0 92 94 q0 51 -23.5 72t-68.5 21q-94 0 -94 -93q0 -94 94 -94zM743 0q-119 0 -190.5 75t-71.5 187q0 115 74 188.5t188 73.5q117 0 189 -72.5t72 -189.5q0 -115 -73 -188.5t-188 -73.5zM1378 0q-119 0 -190.5 75t-71.5 187q0 115 74 188.5t188 73.5q117 0 188.5 -72.5t71.5 -189.5 q0 -115 -72.5 -188.5t-187.5 -73.5zM743 168q92 0 93 94q0 51 -24 71.5t-69 20.5q-94 0 -94 -92q0 -94 94 -94zM1378 168q92 0 92 94q0 51 -23.5 71.5t-68.5 20.5q-94 0 -94 -92q0 -94 94 -94z" glyph-name="perthousand" unicode="‰"/><glyph d="M705 537l243 -277q27 -31 29 -65.5t-18.5 -59t-49 -40t-62.5 -9.5t-59 35l-303 346q-51 68 0 141l303 346q27 31 62 36t62.5 -10t46 -41t17.5 -60.5t-28 -63.5z" glyph-name="guilsinglleft" unicode="‹"/><glyph d="M731 537l-244 278q-27 29 -27.5 63.5t18 60.5t46 41t62.5 10t61 -36l303 -346q53 -74 0 -141l-303 -346q-25 -29 -58.5 -35t-62 9.5t-49 40t-18.5 59t28 65.5z" glyph-name="guilsinglright" unicode="›"/><glyph d="M-12 63l1120 1389q31 39 78 34t63.5 -40t-14.5 -82l-1094 -1354q-63 -78 -129 -45q-47 25 -39 70q5 16 15 28z" glyph-name="fraction" unicode="⁄"/><glyph d="M1126 342q41 55 105.5 43t87 -64.5t-13.5 -111.5q-78 -104 -194 -161.5t-251 -57.5q-215 0 -359.5 125t-201.5 336h-182q-59 0 -85 49t-1.5 98t86.5 49h151q-2 23 -2 70q0 41 2 61h-151q-59 0 -85 49.5t-1.5 98.5t86.5 49h182q55 215 201.5 342t359.5 127q281 0 443 -215 q25 -35 24.5 -71t-24 -61.5t-53 -39t-64.5 -5t-60 41.5q-98 127 -266 127q-240 0 -330 -246h312q61 0 85.5 -49t-1 -98.5t-84.5 -49.5h-350q-2 -20 -3 -61q0 -47 3 -70h350q61 0 85.5 -49t-1 -98t-84.5 -49h-310q88 -238 328 -238q172 0 266 129z" glyph-name="Euro" unicode="€"/><glyph d="M823 440v529q0 37 38 48t54 -22l134 -262l131 262q16 33 55 22t39 -48v-529q0 -33 -25.5 -45t-51.5 0.5t-26 44.5v328l-81 -156q-12 -27 -40 -26.5t-42 26.5l-84 156v-328q0 -33 -26 -45t-50.5 0t-24.5 45zM369 440v488l-179 -10q-33 -2 -45 23.5t0.5 51t44.5 25.5h457 q33 0 45.5 -25.5t0 -51.5t-45.5 -23l-178 10v-488q0 -33 -25.5 -45t-50 0t-24.5 45z" glyph-name="trademark" unicode="™"/><glyph d="M1049 801q66 0 93 -53.5t0.5 -106.5t-93.5 -53h-433l152 -172q45 -49 19.5 -105.5t-79 -67t-100.5 35.5l-303 344q-63 70 0 141l303 346q27 31 60.5 37t61.5 -9.5t47.5 -41t18.5 -59t-28 -64.5l-152 -172h433z" glyph-name="arrowleft" unicode="←"/><glyph d="M807 354q0 -66 -53.5 -93.5t-106.5 -0.5t-53 94v432l-172 -151q-49 -45 -105.5 -19.5t-66.5 79t35 100.5l344 303q70 63 141 0l346 -303q31 -27 37 -61t-9.5 -61.5t-41 -47t-59 -18.5t-64.5 28l-172 151v-432z" glyph-name="arrowup" unicode="↑"/><glyph d="M379 801h432l-152 172q-27 31 -27.5 64.5t19 59t47 41t61.5 9.5t60 -37l303 -346q63 -72 0 -141l-303 -344q-41 -49 -100.5 -35t-78.5 65t19 107l152 172h-432q-68 0 -94.5 53t1 106.5t93.5 53.5z" glyph-name="arrowright" unicode="→"/><glyph d="M807 1024v-432l172 151q31 27 64.5 28t59 -18.5t41 -47t9.5 -61.5t-37 -60l-346 -303q-72 -63 -141 0l-344 303q-49 41 -35 100t65.5 78.5t106.5 -19.5l172 -151v432q0 68 53 94.5t106.5 -1t53.5 -93.5z" glyph-name="arrowdown" unicode="↓"/><glyph d="M72 623q-63 70 0 141l258 295q27 31 60.5 37t61 -9.5t47 -41t18.5 -59.5t-28 -64l-106 -121h668l-99 112q-27 31 -27.5 65t19 59.5t47 41t61 9t60.5 -36.5l250 -287q61 -72 0 -141l-252 -293q-25 -29 -58.5 -36t-61 8t-47 40t-19.5 59.5t26 65.5l101 121h-668l106 -121 q27 -31 29 -65.5t-18.5 -59.5t-48 -39t-61.5 -8t-60 35z" glyph-name="arrowboth" unicode="↔"/><glyph d="M623 1362q70 63 141 0l295 -258q31 -27 37 -60.5t-9.5 -61.5t-41 -47.5t-59.5 -18t-64 27.5l-121 107v-668l112 98q31 27 65 28t59.5 -18.5t41 -47t9 -61.5t-36.5 -60l-287 -250q-72 -61 -141 0l-293 252q-29 25 -36 58.5t8 61t40 47t59.5 19.5t65.5 -27l121 -100v668 l-121 -107q-31 -27 -65.5 -29t-59.5 18.5t-39 48.5t-8 61.5t35 60.5z" glyph-name="arrowupdn" unicode="↕"/><glyph d="M868 467l-274 276v-196q0 -59 -50 -86t-100.5 -2.5t-50.5 88.5l2 434q0 43 30 72.5t71 29.5h434q61 0 86.5 -50t0 -100t-86.5 -50h-195l275 -275q43 -41 27.5 -95t-65 -69.5t-104.5 23.5z" glyph-name="uni2196" unicode="↖"/><glyph d="M565 467q-31 -27 -64.5 -30t-58 14.5t-39 43t-10.5 57.5t31 56l274 275h-194q-61 0 -87 50t-0.5 100t87.5 50h434q41 0 70.5 -29.5t29.5 -72.5l2 -434q0 -63 -50 -88t-100 1.5t-50 86.5v196z" glyph-name="uni2197" unicode="↗"/><glyph d="M565 1051l275 -277v197q0 59 50 85.5t100 2t50 -87.5l-2 -434q0 -43 -29.5 -73t-70.5 -30h-434q-61 0 -87 50.5t-0.5 100.5t87.5 50h194l-274 274q-43 41 -27.5 95.5t64.5 70t104 -23.5z" glyph-name="uni2198" unicode="↘"/><glyph d="M866 1051q31 27 65 29.5t58.5 -14.5t38.5 -43t10 -57.5t-30 -56.5l-275 -274h195q61 0 86.5 -50t0 -100.5t-86.5 -50.5h-434q-41 0 -71 30t-30 73l-2 434q0 63 50.5 87.5t100.5 -2t50 -85.5v-197z" glyph-name="uni2199" unicode="↙"/><glyph glyph-name="partialdiff" unicode="∂"/><glyph d="M1124 887q156 -145 156 -375q0 -231 -156.5 -376.5t-406.5 -145.5q-156 0 -273 55l-45 -57q-47 -59 -108 -37q-51 18 -41 69q2 20 20 43l49 62q-166 143 -165 387q0 231 156.5 376.5t406.5 145.5q154 0 280 -61l50 61q53 68 116 49q51 -16 45 -69q-4 -29 -28 -60z M369 512q0 -137 86 -219l403 506q-59 20 -141 20q-164 0 -256 -83t-92 -224zM717 205q164 0 256 84t92 223q0 125 -74 209l-403 -500q61 -16 129 -16z" glyph-name="emptyset" unicode="∅"/><glyph d="M1120 1434q66 0 93.5 -53.5t1 -107.5t-94.5 -54h-102v-1432q0 -68 -54.5 -94.5t-107.5 0t-53 94.5v1432h-178v-1432q0 -68 -54.5 -94.5t-107.5 0t-53 94.5v1432h-101q-68 0 -94.5 54t1.5 107.5t93 53.5h811z" glyph-name="product" unicode="∏"/><glyph glyph-name="summation" unicode="∑"/><glyph d="M401 575q-68 0 -94 52.5t1.5 104.5t92.5 52h633q66 0 92.5 -52t0 -104.5t-92.5 -52.5h-633z" glyph-name="minus" unicode="−"/><glyph d="M469 76l-279 839q-23 66 21.5 111t107 35t82.5 -76l150 -450l176 811q8 39 39 63.5t70 24.5h299q70 0 99.5 -55.5t-0.5 -112t-99 -56.5h-209l-242 -1122q-12 -55 -58 -76.5t-94.5 -3t-62.5 67.5z" glyph-name="radical" unicode="√"/><glyph d="M360 365q-98 0 -168.5 47t-103.5 116.5t-33 151.5t33 151.5t103.5 116.5t168.5 47q199 0 355 -151q156 152 356 151q98 0 171 -47t104.5 -116.5t31.5 -151.5t-31.5 -151.5t-104.5 -116.5t-171 -47q-201 0 -356 151q-156 -151 -355 -151zM360 586q115 0 205 94 q-90 94 -205 94q-53 0 -76.5 -47t-1 -94t77.5 -47zM1071 586q55 0 79 47t1 94t-80 47q-117 0 -207 -94q90 -94 207 -94z" glyph-name="infinity" unicode="∞"/><glyph d="M1124 1450q37 -39 33 -86t-35.5 -74.5t-74.5 -35t-86 35.5q-35 35 -82.5 16.5t-47.5 -69.5v-1343q0 -98 -55 -174t-134 -109t-172 -16.5t-161 86.5q-31 31 -34 67.5t15.5 65t48.5 48t66.5 14.5t65.5 -36q43 -35 87 -14.5t44 68.5v1343q0 98 55.5 174t133 107.5 t170.5 16.5t163 -85z" glyph-name="integral" unicode="∫"/><glyph d="M270 731q27 74 85.5 115t138.5 41q59 0 128.5 -46t108.5 -46q43 0 66 41q27 49 76 52t80.5 -33t17.5 -83q-23 -74 -73 -116t-122 -42q-57 0 -130 45.5t-118 45.5q-59 0 -82 -41q-29 -49 -79 -53.5t-82.5 32.5t-14.5 88zM270 383q27 74 85.5 115t138.5 41 q59 0 128.5 -46.5t108.5 -46.5q43 0 66 41q27 49 76 52.5t80.5 -32.5t17.5 -83q-23 -74 -73 -116t-122 -42q-57 0 -130 45t-118 45q-59 0 -82 -41q-29 -49 -79 -53t-82.5 33t-14.5 88z" glyph-name="approxequal" unicode="≈"/><glyph d="M1079 645h-219l-160 -199h379q61 0 86 -49t-0.5 -98t-85.5 -49h-538l-168 -209q-47 -59 -109 -37q-51 18 -41 70q2 20 21 43l106 133q-57 2 -81.5 51t1 97t84.5 48h154l158 199h-312q-59 0 -84.5 49t-1 98.5t85.5 49.5h469l197 245q53 68 117 50q51 -16 45 -70 q-4 -29 -29 -59l-133 -166h59q61 0 86 -49.5t-1 -98.5t-85 -49z" glyph-name="notequal" unicode="≠"/><glyph d="M1081 666q57 -29 59.5 -87.5t-43.5 -94t-108 -5.5l-629 307q-55 29 -55 95.5t55 93.5l629 307q57 29 104.5 -6t46.5 -93.5t-59 -88.5l-440 -213zM408 88q-68 0 -94.5 52.5t1 104.5t93.5 52h632q66 0 92.5 -52t0 -104.5t-92.5 -52.5h-632z" glyph-name="lessequal" unicode="≤"/><glyph d="M358 666l441 215l-441 213q-57 31 -58 89t46 93t105 6l628 -307q55 -27 55.5 -93.5t-55.5 -95.5l-628 -307q-61 -31 -107.5 5t-44.5 94.5t59 87.5zM1032 88h-633q-66 0 -92 52.5t0.5 104.5t91.5 52h633q66 0 93.5 -52t1 -104.5t-94.5 -52.5z" glyph-name="greaterequal" unicode="≥"/><glyph d="M614 51l-282 582q-18 25 -18.5 60.5t18.5 62.5l282 579q35 63 102.5 63.5t100.5 -63.5l283 -579q18 -27 18 -63t-18 -60l-283 -582q-33 -61 -101.5 -61t-101.5 61zM715 352l168 342l-168 340l-166 -340z" glyph-name="lozenge" unicode="◊"/><glyph d="M735 1270q-70 0 -117 41t-47 106q0 68 46.5 107t117.5 39q70 0 117 -39t47 -107q0 -66 -48 -106.5t-116 -40.5zM313 0q-68 0 -95.5 56.5t0.5 110.5t95 50l353 -20v632l-353 -20q-66 -4 -93 50t-0.5 109.5t93.5 55.5h459q45 0 76 -30.5t31 -75.5l2 -721l239 20 q68 6 95.5 -48t0 -111.5t-95.5 -57.5h-807z" glyph-name="glyph363"/><glyph d="M1247 414q0 -166 -116.5 -273.5t-301.5 -138.5v-131q0 -49 -31.5 -81t-78.5 -32q-49 0 -81 32t-32 81v123q-287 25 -405 233q-31 55 5 101.5t100.5 44.5t101.5 -64q57 -96 280 -96q133 0 234.5 50t101.5 151q0 115 -60.5 150.5t-254.5 49.5q-258 18 -382 102.5 t-124 297.5q0 172 110.5 283.5t292.5 138.5v123q0 49 33 80.5t80 31.5t78.5 -31.5t31.5 -80.5v-123q131 -18 232.5 -74.5t144.5 -149.5q14 -31 8 -63.5t-30.5 -54t-54 -31.5t-64.5 4t-61 51q-72 102 -289 103q-127 0 -208 -49.5t-81 -157.5q0 -104 60.5 -134t238.5 -42 q102 -10 177 -24.5t143.5 -44.5t110.5 -75t66.5 -115.5t24.5 -164.5z" glyph-name="glyph364"/><glyph d="M109 600q0 270 167.5 439t442.5 169q272 0 440 -168t168 -440q0 -358 -227 -358q-100 0 -185 96q-68 -68 -202 -68q-131 0 -201 55.5t-70 133.5q0 88 79 138t194 50q80 0 137 -43q0 104 -31 131q-35 29 -83 32t-101 -30q-39 -37 -82 -25.5t-50 51.5t27 83q53 53 156 63.5 t184 -22.5q35 -14 58.5 -28.5t39 -41t23.5 -42t12.5 -63.5t4.5 -73v-98v-56q0 -35 17 -65.5t52 -30.5q33 0 49.5 81t16.5 151q0 180 -121 294.5t-305 114.5q-186 0 -309 -125t-123 -305q0 -221 140 -343t361 -85q68 12 101 -30t10.5 -91t-90.5 -55q-299 -39 -499.5 132 t-200.5 472zM713 399q45 0 91 14.5t46 45t-46 45t-91 14.5q-47 0 -86 -16.5t-39 -42.5q0 -25 40 -42.5t85 -17.5z" glyph-name="glyph365"/><glyph d="M719 184q-233 0 -377.5 141.5t-144.5 381.5q0 236 141 379t381 143q236 0 379 -143.5t143 -378.5q0 -231 -143 -377t-379 -146zM719 1085q-174 0 -276.5 -102t-102.5 -276q0 -172 100.5 -274.5t278.5 -102.5q174 0 275.5 102.5t101.5 274.5t-100.5 275t-276.5 103z M918 520q-57 -61 -137.5 -75.5t-151 12t-120.5 94t-50 158.5q0 88 49 155.5t118.5 96t149.5 15.5t139 -75q27 -33 18 -69.5t-49 -50t-73 19.5q-51 59 -129 27.5t-78 -119.5q0 -84 77 -116t132 25q33 31 69 23t51.5 -48t-15.5 -73z" glyph-name="glyph366"/><glyph d="M799 -88l-344 344q-41 41 -38 92t39 81t82 38t91 -37l344 -344q25 -25 35 -53.5t3 -53t-21.5 -47t-39 -36t-49 -18.5t-52 3t-50.5 31z" glyph-name="glyph367"/></font>
</defs>
</svg>
